<mxfile host="65bd71144e">
    <diagram id="5jEfxVwqZtwkkLB00oML" name="Page-1">
        <mxGraphModel dx="2060" dy="1178" grid="0" gridSize="10" guides="1" tooltips="1" connect="1" arrows="1" fold="1" page="0" pageScale="1" pageWidth="827" pageHeight="1169" math="0" shadow="0">
            <root>
                <mxCell id="0"/>
                <mxCell id="1" parent="0"/>
                <mxCell id="AhNlXJ4hRKMXUMh4VS_F-2" value="Drag or click these blue arrows to add connectors" style="text;html=1;align=center;verticalAlign=middle;resizable=0;points=[];autosize=1;strokeColor=none;sketch=1;hachureGap=4;pointerEvents=0;fontFamily=Architects Daughter;fontSource=https%3A%2F%2Ffonts.googleapis.com%2Fcss%3Ffamily%3DArchitects%2BDaughter;fontSize=20;" parent="1" vertex="1">
                    <mxGeometry x="-211" y="-103" width="497" height="28" as="geometry"/>
                </mxCell>
                <mxCell id="AhNlXJ4hRKMXUMh4VS_F-3" value="" style="sketch=1;orthogonalLoop=1;jettySize=auto;html=1;endArrow=open;sourcePerimeterSpacing=8;targetPerimeterSpacing=8;fontSize=16;fontFamily=Architects Daughter;fontSource=https%3A%2F%2Ffonts.googleapis.com%2Fcss%3Ffamily%3DArchitects%2BDaughter;startSize=14;endSize=14;curved=1;exitX=1.005;exitY=0.536;exitDx=0;exitDy=0;exitPerimeter=0;entryX=0.5;entryY=0;entryDx=0;entryDy=0;" parent="1" source="AhNlXJ4hRKMXUMh4VS_F-2" target="AhNlXJ4hRKMXUMh4VS_F-34" edge="1">
                    <mxGeometry width="120" relative="1" as="geometry">
                        <mxPoint x="275" y="6" as="sourcePoint"/>
                        <mxPoint x="410" y="22" as="targetPoint"/>
                        <Array as="points">
                            <mxPoint x="418" y="-67"/>
                        </Array>
                    </mxGeometry>
                </mxCell>
                <mxCell id="AhNlXJ4hRKMXUMh4VS_F-4" value="Click here to export and undo" style="text;html=1;align=center;verticalAlign=middle;resizable=0;points=[];autosize=1;strokeColor=none;sketch=1;hachureGap=4;pointerEvents=0;fontFamily=Architects Daughter;fontSource=https%3A%2F%2Ffonts.googleapis.com%2Fcss%3Ffamily%3DArchitects%2BDaughter;fontSize=20;" parent="1" vertex="1">
                    <mxGeometry x="-329" y="-26" width="291" height="28" as="geometry"/>
                </mxCell>
                <mxCell id="AhNlXJ4hRKMXUMh4VS_F-5" value="" style="edgeStyle=none;curved=1;rounded=0;sketch=1;orthogonalLoop=1;jettySize=auto;html=1;endArrow=open;sourcePerimeterSpacing=8;targetPerimeterSpacing=8;fontSize=16;fontFamily=Architects Daughter;fontSource=https%3A%2F%2Ffonts.googleapis.com%2Fcss%3Ffamily%3DArchitects%2BDaughter;startSize=14;endSize=14;exitX=-0.007;exitY=0.5;exitDx=0;exitDy=0;exitPerimeter=0;" parent="1" source="AhNlXJ4hRKMXUMh4VS_F-4" edge="1">
                    <mxGeometry width="120" relative="1" as="geometry">
                        <mxPoint x="140" y="279" as="sourcePoint"/>
                        <mxPoint x="-519" y="-115" as="targetPoint"/>
                        <Array as="points">
                            <mxPoint x="-477" y="-7"/>
                        </Array>
                    </mxGeometry>
                </mxCell>
                <mxCell id="AhNlXJ4hRKMXUMh4VS_F-10" style="edgeStyle=none;curved=1;sketch=1;orthogonalLoop=1;jettySize=auto;html=1;fontFamily=Architects Daughter;fontSource=https%3A%2F%2Ffonts.googleapis.com%2Fcss%3Ffamily%3DArchitects%2BDaughter;fontSize=20;endArrow=open;startSize=14;endSize=14;sourcePerimeterSpacing=8;targetPerimeterSpacing=8;exitX=0;exitY=0.5;exitDx=0;exitDy=0;exitPerimeter=0;" parent="1" source="AhNlXJ4hRKMXUMh4VS_F-6" edge="1">
                    <mxGeometry relative="1" as="geometry">
                        <mxPoint x="-326" y="121" as="sourcePoint"/>
                        <mxPoint x="-511" y="131" as="targetPoint"/>
                        <Array as="points">
                            <mxPoint x="-417" y="83"/>
                        </Array>
                    </mxGeometry>
                </mxCell>
                <mxCell id="AhNlXJ4hRKMXUMh4VS_F-6" value="Drag or click to add shapes and text" style="text;html=1;align=center;verticalAlign=middle;resizable=0;points=[];autosize=1;strokeColor=none;sketch=1;hachureGap=4;pointerEvents=0;fontFamily=Architects Daughter;fontSource=https%3A%2F%2Ffonts.googleapis.com%2Fcss%3Ffamily%3DArchitects%2BDaughter;fontSize=20;" parent="1" vertex="1">
                    <mxGeometry x="-318" y="69" width="356" height="28" as="geometry"/>
                </mxCell>
                <mxCell id="AhNlXJ4hRKMXUMh4VS_F-11" value="" style="shape=image;verticalLabelPosition=bottom;labelBackgroundColor=#ffffff;verticalAlign=top;aspect=fixed;imageAspect=0;image=data:image/png,iVBORw0KGgoAAAANSUhEUgAAAXAAAAHICAYAAABXgLEnAAAAAXNSR0IArs4c6QAAAJBlWElmTU0AKgAAAAgABgEGAAMAAAABAAIAAAESAAMAAAABAAEAAAEaAAUAAAABAAAAVgEbAAUAAAABAAAAXgEoAAMAAAABAAIAAIdpAAQAAAABAAAAZgAAAAAAAACQAAAAAQAAAJAAAAABAAOgAQADAAAAAQABAACgAgAEAAAAAQAAAXCgAwAEAAAAAQAAAcgAAAAAgGMrkQAAAAlwSFlzAAAWJQAAFiUBSVIk8AAAAm9pVFh0WE1MOmNvbS5hZG9iZS54bXAAAAAAADx4OnhtcG1ldGEgeG1sbnM6eD0iYWRvYmU6bnM6bWV0YS8iIHg6eG1wdGs9IlhNUCBDb3JlIDYuMC4wIj4KICAgPHJkZjpSREYgeG1sbnM6cmRmPSJodHRwOi8vd3d3LnczLm9yZy8xOTk5LzAyLzIyLXJkZi1zeW50YXgtbnMjIj4KICAgICAgPHJkZjpEZXNjcmlwdGlvbiByZGY6YWJvdXQ9IiIKICAgICAgICAgICAgeG1sbnM6dGlmZj0iaHR0cDovL25zLmFkb2JlLmNvbS90aWZmLzEuMC8iPgogICAgICAgICA8dGlmZjpSZXNvbHV0aW9uVW5pdD4yPC90aWZmOlJlc29sdXRpb25Vbml0PgogICAgICAgICA8dGlmZjpYUmVzb2x1dGlvbj4xNDQ8L3RpZmY6WFJlc29sdXRpb24+CiAgICAgICAgIDx0aWZmOllSZXNvbHV0aW9uPjE0NDwvdGlmZjpZUmVzb2x1dGlvbj4KICAgICAgICAgPHRpZmY6T3JpZW50YXRpb24+MTwvdGlmZjpPcmllbnRhdGlvbj4KICAgICAgICAgPHRpZmY6Q29tcHJlc3Npb24+MTwvdGlmZjpDb21wcmVzc2lvbj4KICAgICAgICAgPHRpZmY6UGhvdG9tZXRyaWNJbnRlcnByZXRhdGlvbj4yPC90aWZmOlBob3RvbWV0cmljSW50ZXJwcmV0YXRpb24+CiAgICAgIDwvcmRmOkRlc2NyaXB0aW9uPgogICA8L3JkZjpSREY+CjwveDp4bXBtZXRhPgpgtfwkAABAAElEQVR4Ae2daawdR1r++15fTxImjJ0ZiRkQJgkgRoKBxCCEBIgkYhmQ/uAYsW9JAPEFUBJAGgkESUBi+UKSLwj44liMWAVJWMROYqFB7I4BIbEmMWBrbILjeGLH8XL+9euZ9+Q9dbvP6XN6qepznlfqW9V9uqveeqrqqbfequ67NQlSZCCZqJEBElJBCAiB3BDY2trKTaVSn50UWomsU6CuPIWAEFgVgSrOyoHUByPwKgA8mIt+9/cqLgSEgBAYGoGYsD1nxb8NpVvvBO4LaYWKr8Xndp+Fi363+xQKASEgBFZFYFkS9vd7jvLXV9Wl6XO9EbgvEMr486q4v1al/KLfq57RNSEgBIRAUwTmES+/wUF19/jr8+5rqkvT+zon8Jho7bxpiOJ2b9NC6D4hIASEQNcIeFK2uA/hKTu3vO3cOMzO7feuw84I3BQ2Be3ch8Tjc+731+3c0rHQnrNzhUJACAiBrhCoIlp/jbidV8XhJ/sdnSxuvGXnXelr6XRC4KYkiVrch8TnHfacf8YU9KH97q8pLgSEgBBog0Adudp1HxKvO9ABjrL7Obd4fJ3fupDWBO5J1eKEVcf169en132cgtj9FveFs3T9NcWFgBAQAl0iYGTr0zSy5prFLdze3p65Zuf+eXuOEB6ryiO+f5nzVgTuidUIOA6NqOtCf78V0ofLFEb3CgEhIAS6QMCI1odG3ISQNZxmcc7hMiNxu9d04RzhHovbb23ClQkcRRAfEufwZB3H/bnd70OfZhznXCIEhIAQ6BMBI1gfWtwTNHEOOM3icJndQxgL6XAPYmnG9yxzvhKBmwI+JO7Jmfi8g/v37t1bfNzHfVwZ7uzslAXqolDLAKB7hYAQEAJ1CMBTHFevXi2uXLlSXLx4sQzhKSNtQrvPQrtGaPcS8rtxnI/X5b/o+lZIZKlvodjtPpxH3NeuXZshcgr0jne8o7jxxhunBVmkpH4XAkJACOSCAHx3+fLl4rXXXpuxvuE2jj179syQuydxygCBG4lbuGrZliJwI20yI85RRd5G2oQWx8Lev39/aW2vqqyeEwJCQAjkhMCbb75ZnD9/vrTQPXkbiVvYF4k3JvAm5O0J28ff+c53lhZ3TsBLFyEgBIRAVwi88cYbxSuvvFJa30bahD7uSdws7zhcVp9GBF5F3mZ9m5/bCNuHN9xwQ3HLLbdMpwvLKqf7hYAQEAJjQQBOPHfuXOleMfK20FvnkLaRuRE4ZfTxpmVeahETBe0w4ib0pG1x/Nxvf/vbm+qh+4SAEBACo0YAAsbb8Prrr5duFbjSixE05O1/s+v+3qbxhQRuGRlx+9BI3EjbQnzdN910U1MddJ8QEAJCYG0QwHCFpLHG5wn3mEDicOuyZL6QwC0DC8nEiNusbwshcJG3IaVQCAiBTUXADFhI3JMycSPrKsKuujYPw7kETmIIYXzEJA554zYxxedlqt+EgBAQAuuOAFwIT7LdEIG44UkjdCNyw8Gu23mT8C0bvsHdRuJV5M2CpXzeDUDULUJACGwMAnAi3GheCgvhUuLGqR4QrjWVWgK3RCwDC6vIm2vsNpEIASEgBITALAK4lbG8PXcaeVto/Dr75OKzWgKPH7UMLPTKsPK6ivkf56FzISAEhMC6IcBi5bve9a7pbj3PncanhKtIJYFbYj5x4j5ji/OGJa/FS4SAEBACQqAaATgSrjTeJDR+5QmLE9p5GVnwp5LA42d84sS9EkwPJEJACAgBITAfAbjSc6eROOGqspDA55E3UwO+KCgRAkJACAiB+Qi87W1vK/eHe+K2uOdZS4Vri2QXgdtDlqAlYOcWkjHbBiVCQAgIASHQDIF9+/aV7pIq4vbc2yy1othF4PGDRtiEZGoH5/J9x2jpXAgIASFQj4BtKawi8Pqn6n9ZSOA86knc4rhOtPOkHlj9IgSEgBCIETC3sxnExqfc5+Pxc3XncwncJ2hxC/lPOhIhIASEgBBYDgG403iUELEwjpc/zvlTS+B1CVrGWrycg6p+EgJCQAjUIMBipvFoVchjxr8W1iQ16wO3my20hDiPD/Y0SoSAEBACQmA5BODOmE+XS+Gtu2stcG6pInK7Lv/3WyAqJgSEgBBoigDcadzqQ4s3TYf75hJ4VUKWiQi8Ch1dEwJCQAjMR8C407jUwvlPVf+6kMBJ3B8k0ybDajV0VQgIASGwOQgYh1q4askXEniccNsM4/R0LgSEgBDYRASMSwmr4k0wWZrAmySqe4SAEBACQqB/BFYicBst+ldPOQgBISAEhEAdAksRuIi7DkZdFwJCQAg0R8C41EKe9PGmKS1F4E0T1X1CQAgIASHQPwKNCHyVkaF/1ZWDEBACQmCzEaglcJH2ZjcMlV4ICIH8EaglcFQXiedfgdJQCAiBzUVgLoF7WETmHg3FhYAQEALpEWhM4OlVlQZCQAgIASHgERCBezQUFwJCQAiMCAER+IgqS6oKASEgBDwCInCPhuJCQAgIgREhIAIfUWVJVSEgBISAR0AE7tFQXAgIgVEh8MILLxTHjh0blc5dKqv/i9YlmgnTeuqpp4qHH364ePXVV1tpceeddxb79+9fKo277757qfvrbq5L5/nnny+eeOKJ4t577y2OHDlS93jn15999tkSz/vuu2+aNvieOHFiep4qgh6QV53wG/dQn7fddlvx4IMP1t2a5XVImXrneOmll6ZlMWWtfHZOOR999NGy7d56661lme23dQ63wv7uj/5b5FBKixJev359ely9erXwx5UrV4oDBw6sMy6jK9stt9zSmrzHUOjjx4+XpNSXrkePHi2eeeaZkjjaDoZ96bhKuvfff/+gg98yOkLQEDakDGHPG5iWSZeBC2Jn4L/rrruyIvWTJ08W/GN4/j+mhXv27Ck4tre3y8P+c4+FVWWXBV6FygivrRPZzIOfzk6n7FrA75577umMPLrWr216zNDuuOOO4qGHHmqbVGfPQ9RPPvlkgW59CG2FgwEZMTI/dOhQL22ojzIsSlMW+CKERvK7H6WxNurcEUMVJ57iVuVL53r55Zerfqq99txzz/VSNogNMslJzBXA4OLdNtTvIqnyC/McFm5KoSxG2tR/EzEcrL3g0sKqhpi5FuPTJE2sc2YluJaWdRk2SX/RPV1Z4CLwRUgv+fsbb7xRvP7668W73vWuJZ9sd7sn8L5Irp2GzZ+mQ9o0mhDfvkkfZSO/22+/fcYFRcemk5M/oQmdfdEMIPXgabqiOwOTkXlKAodoH3vssYXWtlnHYAzuMdbU1TzCpczcw8FgBcnPMxJIC4yGJvKuCBy/91SC33vCce3atUnwc08uX748uXTp0uTChQuTc+fOTc6ePTs5ffr0JGQ+fUaRtxAAs8/8zM9kTWHykY985K0fBoiRpx2B5AbIcZgsKIuVi7CPsoWF0Zk8AtENU7gBcvFlC2Q1QI6zWcAbYXFxBl9fn8TBGz25tw958cUXJ48//vgkDA61eoDN008/3Uf2lWmGQWVy6tSpyZkzZ8pyw7EXL14sORcegYONjysT+NhFbSMMLagrCQNe8c///M9lcqHRdJWs0ukZAfORWjax1WfXxxhi+ZpglQ4p5M26ArtDYsEt8sgjjxT0Eyxl3BnzLOv4+WXOseSxsqnnwHtFIOpyUdOnATaHDx8u9R0aJ6/HsvGsFjHDCFT8wi/8QrkCy64KDiqV453vfGcZ3nTTTeXvVtBg6Rb/8z//U4SZQXmE0bz4pE/6JPs5Wci07X3ve1+y/Nc1Y09IXZURwmbLoElfRGLpDxmmKguuDMg7JkOIG0KHsFMJ/nMOBg50MRcT+nANvcNMr7cBpctyZ0Xgv/d7v1f8wA/8QKvyUSGM7KmFwUjSPQJ9EDhtho7rO3L3mqdJMcVsooq8cyDuuAZYq6De2QWDhX7+/PnyFvRnTYTZQaoBMNa17jwrF8rnfM7nFO9///uLz//8zy8+4zM+o/j4j//4Or13Xf/kT/7kcncCYQ4S1g5yUEM6CIFBEagibxYIuZ7S6p4HAnphGLDN0sRcKnaea5gVgb/3ve8t/uAP/qD467/+6+Jf/uVfitdee630WeFWMfnFX/zF4j/+4z+K//3f/y0+/OEPF2FhtWDnx3/913+V057v+q7vsltnQkbTX/3VX52uhP/7v//7zO928o//+I/FT/7kT9rprpB8Pu/zPq/4jd/4jV2/+QsicI9G/vF1tL5BvY8Zy7zaxI/s3SZhcbJ8izZ3Sxb9sMY9iXPOG8A5S1YulDqg8HObfMEXfEHxqZ/6qXa6MKRjftu3fVvx3//937vu/eqv/uriZ3/2Z4tP//RPL3/7z//8z+LLvuzLirAyXDDl+9Zv/daZZ3gD9Ru+4RuKv//7vy9++qd/uvj6r//6md/9CVsJJUIgNQJDEjiuKJ8f5J2r1V1VL0biuFZs3z171nGv5CpZWeB1IPkRven+alabGT2pDCNvrPNf+ZVfKX7pl36pvP47v/M7xed+7ucWf/mXf1lmjd8a8kYgfavE8kL481M/9VPTe2msCNeIc/zET/xEeY0/nPO5gXe/+93FO97xjjLP6Y+KZIWAb19ZKTYyZfgMgQn7ucdE3qY3JO6tbgakeJeS3ZtDuJODEot0CPtDp7c0JfCf//mfn74AwgsEP/iDP1i8/e1vn6YDQX/jN35j8eu//uvFj/zIjxR/+qd/Wu4a+eM//uPiy7/8y8v7vvZrv7b427/923I3zF/91V9NF0exvLHekR/+4R8uw/hP2NdZcJiwxVCSJwL4ZyXtEABDb317EmyX8vBPY/QxA7cXgCgbu1ZylFEQuFlILGreeOONC3GE8D/wgQ+U97Eo+oVf+IXFP/3TP5UfisEdw+8Q8u///u+X9/iGhwsFK/2bv/mbC1wqEPVv/uZvFt/yLd9S3osO/pXrH/3RHy198KYUAwfEzf0/9mM/Vrz55pvl8Smf8il2i0IhsHYIeCsVPzJ7r8csELb1c88PuZVpFARuFvgnfuInNsLvZ37mZ6bW7x/+4R8WHPPEv6rNfd/0Td9ULpJ+//d/f/GhD32oeM973jN9/Nd+7dcKr8eP//iPT38j8nd/93fFn/3Zn5WuExZlJUJgExAwI4uy5r5g2aQ+PGnnPBiNgsBfeeWVEvOmL+jwppWX8Hp78Vmf9VmlC4XFRaxwdongjsEH/p3f+Z3+9jL+fd/3faXvnMHABNfKV33VV9lpZWguHj6/KxECm4LAurmh4vWvXOtxFAT+f//3fyV+n/AJn7AQR8j5X//1X6f3/cmf/EnxpV/6pdPzZSLeZ85z+Mc/+MEPlgucdenwHXVEBF6H0HLX8UdK8keAerKtmBbmr3W1hljf3gJP8TJUtWa7r27vvpTfFV6TR8y6nache8dNvud7vmcheYePxhTs/TbitWfZA4oPG+EFoy/6oi8q49/+7d9e/NzP/VwZr/pjxE26EiGwKQjEJOd94mPDwH+ffN++fdkuYILrKAjcdnOwHW+R+HtYjLRtgfFzbC3khR38WxC0bSXkvn/7t38rvuZrvqZ8BKufl4uwvs198r3f+73lwmacJuc2EBiRV92ja0JgKARiYu0rXyxwyM7EFgDtfCwhvnyve667TwzP7Ancf1PkhhtuML1rw5tvvrncg80NED+kGz4lWfzFX/xF8Ud/9EflXu2v+IqvKPdos30QImeLITtVEN7u/Mqv/MrpIiguGBYt+YgWAwL+dOTrvu7rygXO8sT94T6El34kQiA1AkMtKJKPf+GFGay3ZFPj0DT/Bx54YOZNUt7nyFmy94HbB2YAsalV+0M/9EPFb//2b5dvTPLWJEeV8N0UPnxlr98zWLBtkO2DCFb3Z3/2Z08fxcLgg1tY7AwO3/Ed31G+1j+9IUTsf4XKheJRGVcc8pEsjwAEzv5v67OQITOAoWYBy2s8+wRuH+/6gRty3oGC9tlb4EbakC2fl20iLD7+zd/8TfFbv/Vb5Yex/DPsOoGweRuTb6p893d/d2H/zYa3Nz/t0z6tvJ293+wJj4UK/fM///MC10rVlxN51R8xvePndd4OAS1qtsOvz6exwj0BkhefZo2v9anDqmmzi4YBx4QXefyMwq5nF37sHzuUgf0HCP4bBP8VYl3+Iw/lCjtZyjL58tbFuX+RhA9o1d4SVuEnYWG09vc+fggNa/rfRvr4rzV96Nw0zb7LBl4+j3X6jzxx2Zpi3uY+/vuNx5N4cEW0SbLXZ/lvQGHwmeocZtqT48eP95qn/iNPaBVNBQsb631np5nHyCzyeenP88d/yZd8if6ZwzzwMvttKD9ximKncAFgufIhKy/4kvnGNt9L8S/9+HtSxLG6Y783bqCxuH2yd6GkqFTlmRcCfnfDEJqlIL2+ypWKLPmQFS/U+bpjbzXXIXLefk758g//gengwYO7FlrH9gVFEXhfPSdhuik7Rh/F7tsaIn3/Heixv4ji6yDlgixb8GiL/JtDLwwqWLkQKDNjLOAhLHPqlYGDAcR0M70YaBhwGGDGJM18CmMqkXQtP4M7BhKq6thVrzDbroY+q5Zpvy1iYSky5ecYm0COYMgiHHG/pzlFWZjNMIiwkAnG9oU/0wUd2W7IgTCY+iNuI+VNC/5Qf+TD4EGccN5ARh7kP8aZ1xaeesPDooS8kGIHOyr8wR5n2y5nzypMi0ATv31aDbvJHSupr5cr/OvgaItv3Kz/eQTQTcn6TwVSh9BSCkSO9b2MgQGxcvj6sDJQHiuTj9vv80K+Wc6gkmJn08mTJ4u9e/eW63IW7tmzp/xi6vb2dvmP261PW1hVFhF4FSojvDavkkdYnFqV2Zvbl2UMAdCZYyuxVpkR/YCLgEHIBqTUqoM1+kDo+KOHEtseiBHAoJBKROCpkM80X6yTIVwNqYsftnf1SkJM6SHxKldO6rKvmv8YXASQubk6IPcu8Ye0qVP824Q5iAg8h1rISAc6AFNTCIhp4Tw3w7JTzb6KGXemKr0oD1YaB/cT9i0xibPAuWirIdZcE4sOC3hRWvPKRz3HAvGhM0KcgRzSZqbSVK84zRzOrT1Y+Sz05fR6Msvw/nPKHrcxf3/KuAg8JfrKeyMQgDBycTlsBOAbVMiuCHx7gzBTUYXAUgiIvJeCSzcnQEAEngB0ZSkEhIAQ6AIBEXgXKCoNISAEhEACBETgCUBXlkJACAiBLhAQgXeBotIQAkJACCRAQASeAHRlKQSEgBDoAgEReBcoKg0hIASEQAIEROAJQFeWQkAICIEuEBCBd4Gi0hACQkAIJEBABJ4AdGUpBISAEOgCARF4FygqDSEgBIRAAgRE4AlAV5ZCQAgIgS4QEIF3gaLSEAJCQAgkQEAEngB0ZSkEhIAQ6AIBEXgXKCoNISAEhEACBETgCUBXlkJACAiBLhAQgXeBotIQAkJACCRAQASeAHRlKQSEgBDoAgEReBcoKg0hIASEQAIEROAJQFeWQkAICIEuEBCBd4Gi0hACQkAIJEBABJ4AdGUpBISAEOgCARF4FygqDSEgBIRAAgRE4AlAV5ZCQAgIgS4QEIF3gaLSEAJCQAgkQEAEngB0ZSkEhIAQ6AIBEXgXKCoNISAEhEACBETgCUBXlkJACAiBLhAQgXeBotIQAkJACCRAQASeAHRlKQSEgBDoAgEReBcoKg0hIASEQAIEROAJQFeWQkAICIEuENhoAn/ssccKDokQEAJCYIwI7IxR6bY6v/rqq8U999xTvPDCC2VSk8mkePTRR9smq+eFgBAQAoMisJEW+MMPPzwlb9B+6aWXBgVdmQkBISAEukBgowgcy/vw4cPFU089NYPds88+O0PoMz/qRAgIASGQKQIbQ+DmNnnmmWd2VYX9Zi6VXTfoghAQAkIgQwQ2gsCbEHSTezKsP6kkBITABiOw9gReR8z79u0rjh8/Xtx3333T6rd7CSVCQAgIgdwRWGsCN0KOXSOQ9/PPP1/ceeedpT9cJJ57M5V+QkAIVCGwtgTehLwNEBY1PYlD+Gwz1O4UQ0ihEBACOSKwlvvAlyFvqxRIHIucLYYIJH7w4MHiueeeK6/bfQqFgBBIiwD9+8SJEyspwcw7lkOHDo22j2+Fl1gmViCLEl6/fn16XL16tfDHlStXigMHDthjWYWrkLcvwP33318cPXp0emn//v0i8SkaigiB1RBg9xeki2FEH50nzHyHnP3edtttxYsvvjhPpc5/O3nyZLF3795iZ2dnGu7Zs6fg2N7eLo+tra0yXwurlFgrAm9L3gaQSNyQUCgE2iMAGd9+++3tE+oxBTNee8xiJumuCHytfOC8pDNvwXIGwTknuFOOHDkyvaNuYJjeoIgQEAK1CIzhMxX0+THK2ljgDzzwQBFXgt9tskrlkB7pmsidYkgoFALNEKizvm+99dYC14UdPrWqa/73ZeLz0mLNy3zp3DekG6UrC3wtFjH7IG8aCa4UxEjcLPGxLmzi22eGwsB09913j2rhBr3vvffemd1CZeUM+CfGD31oExwpBZKkPv1OqpT6+Ly99d3WoPLpdhF/4oknyt1mpAWG9Avr812kP0gawfczlbBwOeG4du3aJCxUTi5fvjy5dOnS5MKFC5Nz585Nzp49Ozl9+vQkjB7TZ1JHAuAsws4cd9xxxySMpp2pFtwpM+kHS3wSSLyz9IdI6Omnn54pQ4zZWM5T4T4G/Lps8120SfTx7SoMMF0k22ka6GQ60q/huSHk5Zdfnpw6dWpy5syZMk849uLFiyXnwr1wsPHxPH1G7QOvsrwDeZcv6TAl6koYlat84ozYYxHcP+sgqazdMeBXtUUuZZ176xs9HnrooZTqVOaNFc7MAKFtcT4mGa0PfB5599XZ2AoFmZ8/f35axzTKxx9/fHqec+SWW26ZTvfNB+n1PXbsmD9NEmcA9vXH1DZYK1NdggVeugumFwaM1OEX69inSnG94Vqy9sh+5qqPtfWpT13aYOJ3ntx1112lYVV3f8rrDDT2j11oe2HmMNMG+9CtKx/4KAkc0nzyySdncDXL23f+mRs6OqHD4G+0TkOysYXeUVadJkPHZpeOySpESKfkWFXAbVnhZSowRyCvNvkvm7e/f1X8VrGKacMssDUR2p69t8BzwQXQ5LHe74n76CrtrXclP5YBljczduvTjzzySBHPHrrWpSsCL7x/xXwuOfvAY390AHaCz3so3xV4hY9gTcK0a+o7Q4fQ4QbVwddbk3iwzqb6BiJs8kjye2IfKnWfSnLFL+4P+OpTC30xDCajam+BtKf6onvffLKRPnB8zrYjxEbEoSxvy48Q6wjLynxnXMNK9P+mjWu5CFYr/7TCBKttDOLdAWDNro8UkjN+MSYesxRYkSd+ZL9W0bc120U5mTFYfx6VL9yP1jlb4LGlESptcMvbY0W8yhJn9A7TxfjWpOfBRz+1LsANy3YMEqa1U70ffPDBZCrnjh8zUOqVg/aXWny9jWW2B2ZDWuFdWeCjcKFAiNZALRzabVLXKSBxGqnpZWGwOuoeGfy671BhMWnw/FfJMN62B86pJHf8GNys3RGmxCo2tFK6vZZtL7hNvGsUQu9LNobAaYzen0YDzYW8rXKpeG8FWWcK09vefWmmQ10IfqYP4Vg6VC4+5zHgFxs4KWcrrAVZexuT9W39x1vhlKOv2epGEHi8GAKguZG3VXwdiWO9pbSIvHWGdYGeuQudxkiAMCUhjQU/jxdtLoWMYbBbhAv9w1vhGGF9SFcEnu2LPCwksCjoF0NYZGAhM1jkob3mJejEwmYYYGYUYwGMrXDonUJsixl5s+CVI3YxLjFWKRddx4Ife8BNaHMcQ4t9S598g/VdpKy3VctO//ALwywK57AwXFeebAk83tEBeUOQTffH1hW4z+t1JE6e7J7h8ANSn7qQNg3P5zeWDuVJEyJIVedjwi/eYz806dA3OUzGsPPEdI3DWHcGJt+P4vtTnmdF4DQ63oiC6OzlDcAZA3lbJc4jcSxLBqahxHdiiDDu5EPpsUw+6OytR28NLZNOF/eOCb+4bv0g2AUWi9KwNxm5j/46FmOhqlzBBVXEM5qY1KueS3LN+3dSbiOM/WcBjNIPGhpDUh+yx2eZOL40/6EcKw/hEEL+Ps8+V9S7LI9fvET/vhaRFuk8RvxYNPR1ThmGkLDveybfHD9atSwO8cJw1/127X3gAbBRWd7o6wVLnJcDUom3HtFhDBYR01T/whHrCVhDKWSM+MVWeFyGPnDEMo3becpZU1dlBMt4PaurtLtMJxsXCn7OGDA+hpPK/9kWZMgofmuUNJleDiG+86YkwmXKmtPi5Rjxi4nTl2GZeljmXu/u4rl4EXCZtHK6l3LZP3tAr6H67dIY+KlFShcKejDlC2QzMx0LlqNXcTRx9A6VMT1wBVG2Ib5VEU//x7L3OwzWU7zALhf3yVjwo95pZ77d9e1GoY7iPHN7E3kV0ojdn11vBe7KhTLjkE1N4AC9DiROh/ediAbedQOY1yjj/PvuxPN0afpbvAaCLzyVjBE/wyomniEMhvjll+B+MHVGGTIo+f7bh0+/KwLPxoUSACulahcHU+sqd4Q9k1PI7hm/HzaQd7m9akhXkN+BEBrfKPd+x+6AIet4jPgZPjFuQ7hR8IOzy8kk3lJo18cSxjtO4vOsyuGHyBwscNOnajqY8o0802teiM6xG2Do6WRsPQxhgc3DpOlvYeCeWj3MWFLNGsaKn8fZuzTAdQiJd22M1Qqn3fm22If1TX2srQVuo5tZ4liwJvwTh3ihy35LHbJoGb98FKbiBavZQ4q3uLCKYotsSF2a5oXO/kUJdKb+U8gY8Ytx8juOwNW/UxHf29U57Zz/umMyViscfvFtMWvrO4CdnQvFGgAhbgcagidxXCm5kXgVeQe/YOE7ki9Xn3E//R8DeYOFJ03OU+BGvsgY8fuo5m/9jfEbqr/E+fiXe97SLu+Y/09fuB9TbWNtjJKfXuXkQvF6scDlp4WhcBMWmnKQKrdJX9OuReWNFwKHXDhdpNu83/2UlZdRUslY8avCy7/UE0io6pZervmPf9FPx9IGASN2A+FO60vW3oXiR6BcLfEqy5tpZGyJ+LL0Gff5svd7yIXTVcuFzn7KGluPq6a7ynNjxK+unP7lGvY0x/u1655rex2Xg58xj+m/vPsZA/04e+ubyvIjTK4WuOnIaB5b4qkW6aosb/Z5p1p8AyNvyfJfZMYgubw6P1b86uo4Xowdsj3k/h+MqjCLre++eaUrC3xUBA7wMYlDWkNP06rIm4ElJXnHe5f7nP5VdYBVroEXNoQdOe39HgN+izDnvy8ZtsSHFO/CCWsxQ2a9Ul7smjGs6Mt9S1cEvhOUHpWYO4VV7/Pnz5fTb3Z/hBF0EJdBlduEKSOLral2TlCBfvENPfz5vApmmjjUVJHdEN5dEk/rUy66eryWwS/GduhdR5Y/uMa7Tba2tuzn4tixY+WXPllcH0Jwpdi7GyxS0z9SYbOovLRD9DNJ6cYzHRqHfqTJ3YXidY2nPENY4lWWdwB6kNfjfdnjODMQ9Bj7keqLieuCX5P6j9tOn+feCg+GV59ZtUqbTQceuyFm9F1Z4FlvIwyg1gqjOfusTcwy9gtR9lsXoaUfWznokNJypGyxJdtFeVOkkWoGsy74paizeXn6PdT0m7765jwdFv1G3fvZ11gW/6fl8kPXmCxw0zv2/YaCTbjWpdRZ3l3ns6rO62BBplwAXgf8aPeLjhRbNL0VHlx1SdeJqvpXbH0PtdjblQW+RaGMzS1KGMh8ely9erXwx5UrV4oDBw7YY8lDRnbzt5ky+LECwdrpyuE8yzsnXxkWTvxCDBbtMlsJm/ooyQtcVhHva7Tn0ZNZzFC+eMvXh1X4gd2iWUGTe3w+y8axEJedIVRhTL5gvEx7WFbXqvuxwv32PHzw3jKvemaoa+DKJ6u9BGNtYZ37+1eNnzx5sti7d2+xs7MzDffs2VNwbG9vl4etYVhYlddaEDgF64PEx0LeVRWra0IgBwToQwzMbDhAGBD9HvUmOi4yLFY1KBjo/GAXdkHtMoKa6LfKPSLwCtSqSByLgx0qiyypODmRd4yIzoXAagjEVvhqqfT/VNj7Pdh6VlcEPtpFzKrqrHKbMDqzzXCZaSjPMLUi9IJLhjwkQkAINEdgkQXdPKX+7gy++sHIu8tSjG4f+KLCG8F6nzhEfPDgwUZ7xY3wYx+vyHsR8vpdCFQjwCwYggwLd9U3LHGVdLpaK6Gvm2snF7/8ElCUt64dgVOqKhI3lwhEXLftT+S9bPPR/UJgMQK4L5eZAS9OsZs70Ik+DzcYZ3ST8nCprM0iZhVkVT5x7quypqvImzcs+RjPWCu3ChNdEwJCID0C8oE3qAOIF7KOBfeK39oE0eNi8W4Tez1e5B2jp3MhIARyQWAtXSgeXCNg7xPnd3xeTKH4bGT8m5H30Htmvd6KCwEhIAQWIbDWLhRf+Dp3ir+HuMg7RkTnQkAIdI2AXChLIlrnTvHJ8B0EfOGyvD0qigsBIZArAmvvQvHA17lTuAfy5q2sZV/48ekrLgSEgBAYEoG1epGnCXB1lrjIuwl6ukcICIGcENg4Agf8mMTxe8vyzqlZShchIASaILCRBA4wkDhfXeTw2webgKZ7hIAQEAI5ILCxBJ4D+NJBCAgBIdAGARF4G/T0rBAQAkIgIQIi8ITgK2shIASEQBsEROBt0NOzQkAICIGECIjAE4KvrIWAEBACbRAQgbdBT88KASEgBBIiIAJPCL6yFgJCQAi0QUAE3gY9PSsEhIAQSIiACDwh+MpaCAgBIdAGARF4G/T0rBAQAkIgIQIi8ITgK2shIASEQBsEROBt0NOzQkAICIGECIjAE4KvrIWAEBACbRAQgbdBT88KASEgBBIiIAJPCL6yFgJCQAi0QUAE3gY9PSsEhIAQSIiACDwh+MpaCAgBIdAGARF4G/T0rBAQAkIgIQIi8ITgK2shIASEQBsEROBt0NOzG4XASy+9VLzwwgsbVWYVNm8EROB514+0ywABSPuxxx4rDh48WB7EJUIgBwR2clBCOgiBXBF46qmnigceeGBGvUcffbS0xI8cOVLs379/5jedCIEhEZAFPiTaymt0COA2qZJnnnmmtMblUqlCR9eGQkAEPhTSymftEIDc77nnngIrXSIEUiAgAk+BuvIcLQL79u2b0f3VV18tXSwPP/zwzHWdCIEhEBCBD4Gy8lgbBJ5//vnijjvu2FWeJ554orTGIXSJEBgKARH4UEgrn7VA4M477ywXMB988MFd5YHc2akiv/guaHShJwRE4D0Bq2TXGwEs7ueee6649dZbZwqKXxwSl198Bhad9ITA2m4jPHbsWC+Q0UE5quTQoUMFFppkMxC4++67S2v7oYceKo4ePTpTaLYe0gbZargJguuIfqH2P2xtZ0XgbM06ceJE2Sma+BKZqja5byhIsbpefPHFobJTPgkQoL35vd/Eqfd77723uP/++4vz589PteI6bRRL3T8zvWFNIvRbBqy4L952220FRxvBLVUlXaRdlW7VNXRgsKYec5OtSRBTyqKE169fnx5Xr14t/HHlypXiwIED9lgnISCxJWvsYhiOvRzS/6MI8NKOf/OSTkxnrhIIDBJ/9tlnZ36GvHluXa1T8OhrxjsDZOKTLvv2yZMni7179xY7OzvTcM+ePQXH9vZ2eWxtbZUltrCq+NtVF1Nco6Osg2B1STYTAYgaaxS3id9uCLHLL76ZbaLvUmfjQsFyiUdxOoFZLXVWD53G7ukDrCbpkz+uHwRrjbJINhcB6p/2SujbNG4GrPN1fgX/rrvuKsueqvbpi/TZOmEwbbpLCJ9+vLZRl26q61kRONarb/AsDo3BMrc9wFQilU456LxDCnnyMknsh1xWh0UdoCq9usG16t5510iHzsVg+P73v794z3veU96Oew2M8TOPZVEQH63pTRs23zgWOtcpB+VZN6HP5l6upvpRT7kTeBH8OlMJfu8Jx7Vr1ybBzz25fPny5NKlS5MLFy5Mzp07Nzl79uzk9OnTk+C/mT7TZST4CfHHT48wkk7ComCXWfSW1n333TejN3gNKWDlsVvX+PHjx4eEdfL444/P4EobXVZow8EynUmH+glkV/arZdPL7X7f1sBrXSTmoy7L9fLLL09OnTo1OXPmTNkG4NiLFy+WnAv3wsHGx/PyzcYHHhpBOfUKREi0FKzJsbyijIVofk/05nxIaWt5D6lrm7yY4QwpXbjnzBqPX/6hjeAbx9Ibq8T1sSntMJf6ysaFYoAw3WSaGU85u5qmWz5dh/jdmD7ajoUnn3yyPJ/nj+taB0sPPySk4ad/XBsSwyZbPOn8wRIxtRuFKfBspFiDmyBsBgTaibVvMGD3FdceeeSRuf7bBlkMfktM4GMejAYHr4sMvXluJnsqF4rpEhryzHQzNHr7KesQt0mwwqe6U46hJLSFab5M/eLp35C6rFrmuN4pQxcujFX14bkYR87bCm6g8D2VaX1Z3YVBt8yvbfpDPh/jM4Z21hSfuGxNn2ty31q6UGxAwhrxryhjzbFIl7uYFW56YoWnmlLG1nbTlXfTPYeQMnThwuiyLLHFuUralAlLNXapmDXexWL0KnrpmfEhkJUP3OCDCOPdJ7gmUpGh6dUkZPBJ6Quv03EM2NXpntP1Lgic8tDGcak8/fTT0/Zi5VwH37iVRWG/CGRJ4BSZbXj4bU3oODTs3CUnKzx3rFbRrysCXSXvPp5hSxtl4js6XriGb3xs1jjtXzIcAtkSOBDEbpOULollqiRXK3yZMuR677oRODhDeizcB3//6K3x3FxeubbjrvTKmsDZSREWRaZlxQ0wRisc9886Es+0YhTpBAEGftYq4n8YMVZrvBNQEiYyBrdj1gRO3cULmmO0wilHiv3sfiEYHST5I4DRAol7w8W0lm/ckBgmHMPCf/YEzvTSu1IYFeMFzmGqc7lc0Nu/sssUmWNIgQwk40SANh62sc3sxqIkuVvj8oEP296yJ3DgYDuZ33KFFT6G0TEeaMa2IDVsU8wzt5Q+Xdo97dy/nWwo5WqNp8TLsNmkcBQEToVAht4lcPjw4ey3FWIB+90FWE8xqW9SY1umrLEfeJlnu7w3tUVpM9Cq7Ya5W+Nd1oPSqkZgNAROQ/bkR+Pl85y5Cz58L8weUsiyr6yn0NHnmZo4vS45xHHHYY37rbWml1njY3lXwvRW2B6B0RB4VVHxKefuSmEanIM1yYAnaY9AyvbGjI43ONluGIvN7piZSjYHgVEReLwIyBuPuVtqdCz7Zw80K3tLc4gmxuAh6RaBHLaWMasL31OpbPvh07XdFlipZY3AaAicjuP/1yBTScgx950W3u1DS8CCkjRHQIPQbqyYBVT9E2HujF12u5/WlXVCYDQEHlvfEOMYrG//SVd2E2iVvr77MCBL6hHAiGEnE98Qj105zOxYMB/6P0HVazv+X8ZgbO2MBWZPhEN/23pVjGLrOz5fNd11fU4EXl+zGDBVVjfrKyxi5jJTYZDJ3bCqR3l8v4zCAmck9KPhGIgwdvlgfad09/gtmONrppurMe2Ihcl42ywWN4uZWOK5kDe1FM8MNrfmhin5KCxw+y83QAIR5dRg66qJt0fpfCapB52Ug4dhoHA5BOqsbowBrG5ZusvhuY53Z0/gsfU9lkUav987lfW9jv72MQzebYmCgR93Sbzuk5u7pG05+3jeZr7whrnkbFZg/QFjhnaEK3bshk32BO6tbyp8DIs0vvGgcyrre2wW2tj0pW67FgZ+2oufveEuwXBJ1Y66LmMf6bFGxqzEyLoqD++Gte8rGZnzopR/a7rq+RyvZe0Dj61vLNkxdHI/6KzDKD9UwzULaaj8csoHa9H+ubEnb9oPpCTyrq4tiPv2228vDbt55F399Ec/DgaZQ+CkQ981y73umZyuZ22BeyIEtLFY336kT+ny8XrYf0HPqfE11QULdMz6Lyon7Rzr0RM3ZYa0U7afRXpX/Q6JDuHmgmRZ2K0jbfDDIOCIjT76Bc/Hn5fgGphzwDVjaHPZEnhsfY9l66AfdGhE/pOyVQ2+j2tVnaiuofeRf9dp0gmPHTvWdbLJ06NO8HXHdUNbxyoco3/WD0J9AVy3uEt/g3g5mszmIGx4Bqzj9sW1MUi2BO6JECAZFXMXaxCmJw0phfDqPg0ytjDiRppCN58nROXljTfemJ5i/Zi+OVlC/rMIU2VXiNC+q9o0WwPHZnX74oMPJB5bvf6eNvEq3CBuZjAYS8vkywBJH+Wg75IGxJ1Te1uI1cTJ9evXJxzXrl2bXLlyZXL58uXJpUuXJhcuXJicO3ducvbs2cnp06cnJ0+edE91Hw0fsp8ExadHWH3vPpMeUgw++qnO6B++V9FDLtVJerzWOR4+q1oNQI9XYzzbZEWbCNbhTDshfdr4kO2lTRn8s3FfpSyUL3yTxd/WOl6HW/g/ASU3tc7gYwnAc+G/Ie2qH8rVpQTjanLq1KnJmTNnSv3h2IsXL5acC/fCwcbH8/Kd0coeSE3gwYc2A+CRI0fmlSGL32iwvqMPPej4vNc5TucaWmI8V80/WNwzbcTShYTGKnG7tzIFS3gSrNnWxSL9YCFX4tZnWyDf2CBrXRiXwNoSeDyihxd3XLHzjcaVHabCgyobppGVjdw61LqEKazUGLtlKxYyiI0S0qTOaO9jF8qAwRLjxDnlXoXIqec64ga3oWZi6EHf7nqw6IrAt2g8AehSLEoYrPHpcfXq1cIfwcQvDhw4YI91GrKVB3+UCf+JJMVCoOXfJERf9PYSpmJL+eP8s6vEWYyxnQz4UMEMXyQ+PfyC+PlM0NdjbNeHDuPdCv/wD/9Q/PIv/3Kpxhd/8RcXN998c1kGFq04uD9+uWUInbe2tmaysX4yc7HmpGpfN7ey59jqpubR0V2mPPj147UXCkIbpP44WGDkjWq/SMt6B+2V+qUt17VP/rUieSzj684RyOCGLvbu3Vvs7OxMwz179hQc29vb5WHtzsKqcmRF4DQAVuVNqKRlF3RoHMtULjsA2q6c0+A4TOicKYjG8lfYLQJxB2pC4BAQbdm3C7SyBTc/oHarbfrU5hH5qtqx4A1xMwCsg3RF4Nn4wJlmBuKtnIaFChvV9aGmd4FIJAMgELe/RVmyZlPVlse6ULmovHW/z3OtxJjWneO+WAc3U4xRVy6UnQBcFoKl0tYSzqEgTA1zd/nkgNNYdIgt6Hl6036rvmHCM+sy9Z9X/vg3rGVmuBxY5cxKq9wr8XPMYHmWfuTdLPF9Oi+KbAicCoP8mlTwKhUX+9xWSaPuGRqo7R1lmifZPAQgesg79t3iMoG8NnlQx63J+gyHuSwttJZC/0csLE/0ZyEC2RA4I23c+Bdqn8kN6G0Ncp19m5nAnZ0aVS+XoGRwmZRWp6zIt6oMMkdE1G9h0iaWDYG3KUTqZ+mg6qSpa2H4/Bm4677HgcsEi1MiBPpEYLvPxJW2EBg7AnXrMrhF6v43JVtfRd5jr/lx6C8LfBz1JC0TIYBrLBas7qptonKZxEjpvG8EZIH3jbDSXzsEqsgblwlkL1fa2lV31gWSBZ519Ui51AhUWeBeJ+0y8WgoPjQCIvChEVd+a4OAXCZrU5WjLYhcKKOtOik+BAJ8yoF3CGKRyyRGROcpEBCBp0BdeY4GAfYr++/x4DLRLpPRVN/aKyoXytpXsQrYFgEInD3fbCnkTVstVLZFVM93hYAIvCsklc5aI6B93WtdvaMtnFwoo606KS4EhMCmIyAC3/QWoPILASEwWgRE4KOtOikuBITApiMgAt/0FqDyCwEhMFoEROCjrTopLgSEwKYjIALf9Bag8gsBITBaBETgo606KS4EhMCmIyAC3/QWoPILASEwWgRE4KOtOikuBITApiMgAt/0FqDyCwEhMFoEROCjrTopLgSEwKYjIALf9Bag8gsBITBaBETgo606KS4EhMCmIyAC3/QWoPILASEwWgRE4KOtOikuBITApiMgAt/0FqDyCwEhMFoEROCjrTopLgSEwKYjIALf9Bag8gsBITBaBETgo606KS4EhMCmIyAC3/QWoPILASEwWgT0T41HW3VSfGwIvPDCC8X58+dr1d63b19x55131v6uH4RAjIAIPEZE50KgJQIQ9bFjxwrCl156qQxfffXVpVLdv39/SeZ33313cejQIRH7Uuhtzs1bkyBWXIsSXr9+fXpcvXq18MeVK1eKAwcO2GMKhcDGI/D8888XR48eLQgh7a4FQr/33nsLCP2+++7rOnmlNzACJ0+eLPbu3Vvs7OxMwz179hQc29vb5bG1tVVqZWGViiLwKlR0TQg0QACr+sknnyyeeuqppUn7rrvuKnMgjRMnTjTI7a1bIPOHHnqoePDBBwvikvEhIAIfX51J4zVCAGsbEp3nGrn11ltLixm/NgfW8yLBgkdIlzhHHcFD3k888YQs8hKxcf0RgSeor9hauuOOO2QBJaiHlFnSBg4fPlwSa5UetIn777+/dHfcdtttVbcsfQ2XDET+zDPPFM8+++yu58nvyJEju67rQr4IiMAHqBs6K5YWHYcOVCVmXeGXbGJhVaWha+NAgPZwzz33lIuSsca4RB599NHe2wBkTj60Sy+0vaeffloGhQcl43hXBF6wiGkSFi4nHNeuXZuEhcrJ5cuXJ5cuXZpcuHBhcu7cucnZs2cnp0+fnoTM7ZG1DF988cVJsGomYYrKAm/jI3SiyXPPPbeWmGx6oWj/YbDe1RbC1r9JIM7B4aGdkbdvn4888sjgeijD1RB4+eWXJ6dOnZqcOXOm5FY49uLFiyXnwr1wsPHxvBy0iBmN0ixKYeFgbVUJe3WZGtf5JXkGa4gpbVdT6Co9dG1YBPB30za84C5hZpZqIZFtigcPHvQqFcH4yKLd4ephcRdscPHME1vQnXfPuv0mC3zesLTCb1hYYZvWjEUTGk15HtwjlZY1VhBWT1is2vUc1nsKy2yFouuRBQgwI7O2YCF1TptJLbQ/04mQ85QSjJ+lZ65e/1zicEFYIO6tjruywOVCCa39+PHjk2Atz3QEGhLETedtIsHiriTyYLk1eVz3ZIxATJK0Deo7B4kHl/DSTxK16EO4EHMh4K70wBCjbF2LCLwjRKkcKslXOL7FVTooFhkdyKdFHN9pDtZaR5BtXDL/7//9v5k6xfrOSbwvnLacQqrWB+J+MNZzjLuu+29XBL7Rr9LjQ2RXgfd349fEd8fukmUldJ5yxwrP4zO1715YPsHlksxfumxZ7H57JdxjRDnBZxN8l/i4f/d3f9fgKMPc1jbe9773FR/60IdK3agn2tsq7XemkEuc0N7J04RX//F78+aoF9PNX8s1zs4zW/Ng5w/77Vkby078aG2rnil3oeB3Yiq2igXsy7IoXmV5B/LubKQlfW8ZhYovLfGmLplF+vf5e+iQjafD+Aq5f12lyn2Cay0nee973zszQwgL7IOqBx60bzsGzbzHzIKBMi0T8S6lKws8Kx94GLWngNEY+iJxpkOx26RL8raKriJxypWrQMRVawHWMeeFPFdH5MGKnfgj1/JX6cVCtC93+E7F5IMf/GDVrUmu0ca8fsS7nu4vKph3n9AO1kX6LNfaEXj4rsOuhgjJ0kC7FBq3rxgaPJZy1/mYzlUdzH7LKXz88cd34R8TQ5NzOjCzKBZvY5z989zHTKuO9HPBhp1GXm/i6M711MLgEhsi6De0xPgMnX8f+cETfZZr7QjcT1c8cDTQLt0OMan0Sd7WsHx5iOcmVSRFfUAQVdYcgxKEz9Q5dhPFZW1yDpH3NYC2xboKGysTbYkBqMv22UTf4J+tdXEFf3iTJDq9J24DnSaeKDHqtM9yrR2BV/kafUdp20kgothFMwR50/7iwSlRm6zNFovSsCaEmJcRiL5q941Ps0mc+qkaMJbRpet75xG4LxMYoj+zjy4HI9o9hM3+atYbqixurwdtbWjx+ffl9hy6TOQXu8+61KErAh/FLhRWuHnjLHSmlVbXWf2Ov2ERyLtgh0GwokL72zxhdwmr62BLaBIIoAhWpZ02CtltwMHKfSCx6e4bHg4Dc7nzBpzJhwPcqZP4bVby5XfqOVd597vfXXz4wx/epR56x7iFmcX0vkDwBQcSSHja7sDCi9+pEf/m77N42NJYplX1kSu7Z8jQyjhknn3lRT1lL35USbkLJbbAsejiKUwAc+mFTayh2GoZyvI2bHOwwLHisBBxV4Bj3YHF2UawoLHgObBg5gl5xdigF3rmIljAHqsPfOADE9pqVdv09/Ud9/j6vgOeQwv74q28bdvP0LrPyw/usHIRdildWeAzWqUk8Hi6QqMEQHaHeBCJQ0KLGgodDyKInyU9fhtS4gXaIfNmSh8PYDEmdg42KYS6jOt5EfkPqafhQ0i7RBioiHvy8vd1HWfAwKhh7SFuv+hh+aUgcL+utKhfluCN5A9lMVwJu5SuCDwbF0rVdIVpN1N8NtA/9thjAcOPClNLDn5n6k7I8zb95Bmm87EEq6XckF+VV3xvl+dD54fuYPHAAw9U4lBXNl4+SiG4GqhPQnOr4I6gbnMV6pR2yYH7BP3tCJ2ztdqBsEs8wISDNl4n5JtKrM9Z/uiCvpJhEMiGwOcVl05iflbfOSBqjkVCZwiWaBEs8kW3rs3vlLdqEOPfcFURo/fRpgABQkRn1ioQfLqQQ4rBb9nygx1ty9oXhM4Rk5tdt/Q95maE8JuP2725hvHgMYb6yhXLVfTKhsDnWRgUjN/pAJASHZ1FuEXCAg9WJR1rkxoWg5qfsYBTcFGUi2yLcF6EaZ+/x5Yb5Yiv9Zl/V2l7Yq4aLLvKJ4d0GKS85Ny+vJ7rEs+GwGOCreu4ZonbdJUQYscyx9KmAdlhFtG6VFbTcsSWN7iAU4xx0/R033gQsO/vDKUxg5UkHQLZEPiyEEDwdSS/bFrrdn/sVmLGMgbyZpDxkkv9hoXBRjM+r3uqeFz3qfRYh3zH0Ge21wFolWEWgbFOa/3MgVmDRAikRGAM7iAR+AAtZOhpZuw6GoNVhvVtn++kSlLtiBmgOSiLkSAwhn4jAh+gMQ1N4PHC2cMPP7zrv5gPUOzGWdBR2PJowtSVnUeS/BGIZ3v5a7xeGorA16s+y9JAgOGbFNOS0cmwym+//fZym17sa57emChy+PDhciHaskdfdB2DBWQ6b2q4znU0tOG1ShsSga+CWotnWBAbQiBsT+LkyW4dyBvCzEnCW4271EHX+Ps1u27SheQIxLO9o0ePJtepKwXGMDiJwLuq7TnppGoIkHjVQkxuC4Tgw1uysWCJ8xEzyFySJwK0L2+U8AYtdYbbDrdY/D7CsqWwj64t+9yq99vLZOjt3Xqrptf3c6PdRtg3MF2mn8pPSGeKBw/bE95l+dqmxVQVXfF7s3gZf1mP6/wuyRMBDAX/Yh1tzrc76q7tIEy7oJ3w/zYJmwg6sDBO3sSr+iFp+fTMvWih5VNlYNhvSUP/gZaUH7NCjwDE9Mjlozh8tCg0wMov+YWKLz+sFRrXZJ6+qT42FH+jmw9EUZ7cJf74F+0ipfCBKGub1GVu4vVLhVVVnRlmXYZhfWfhF0n52Fd4h2BaZ23z50NrXfebrj5mlY0LJR7xAuhJhVGbKRSLaVgYWBGxjtzDNZt2cS8+wKqRPkVhvB5Mc/FXjuHlBPDkMwiS8SBAnYUvJZZvQ/epNW2afhn3RcuTfooLp+53u69JyGyVMmG959pv5EKpqEn8X0zblxUIHbK3XSDxAs+y6bW9n6mhTW2HfsW6re633HJL+XkES4cOmcubmaZTrmEqrHBzcBh5Qqb0CcTXHe2SY5HwLORph2/DkHj43PQMsZJf7LeGhOmH6ESe9E/Tifzpq/jxGRi4h7zQlWeq1o8W6Tz07yJwhzgVyw4NKjEWPgZFhdIICK1REfovJPIcjYF0aCyMQkwJjAAAG0NJREFU4F58I/TX+4jTEG1XAHrSwNEpd+GNTF8HWOOURTIOBKyuLOxCa/oUg4O1Z/oq7ZlrCORbRd5cb0rEqQ2ulXDy/ryUPvD44+ld+5x8OaviYctd5T8+wL84z79NWviWYz9kqIzSBxcaT/m/DO2ccEiJ9QoNfsjs5+YVOtfEH6FDVv4TDuompYRBe+pPlQ88ZU1MZv7xB/+VyCRe7wmWd6f/m9Ty6Srsygc+wyY5EXhXQDVJB4LwBEucBrDsf4WB6IO1uCutOO0mOnV1DwMhZfE6MKjw345iCRZIed8QhBmssxmdvH4+3scCUlzuRedenxwJPF5AXFSeMf9etSGANh5cITPtaZHRlRqDrgg8m0XM0EmSCFN19qx6wV3C9WWnVEwZeS6nLUf4+Fhgwhdogo4s9LDoyrTT9rzax6S4xvS0LyF9praLBBzRlTJI6hHYdHxoT7hYTAJ5F126byzdHMMsfeBh2j8IVpADb/v5yidviGzVTsFzkB/kj795SJ93HWjogR+QRu31MT9i1XN0CoRnu5RFgwP+brDj2JRO2CW+m5YWxokZHpQ9WOib1W78VCKlC8VPjfA5Vk3xva5t46QfyHZm2tX1dJ08YvdFaGNtVV/5efbH4jdEh6ZHINFO6gJ3lPclkz94U++4bJjy9l3nqwLnsWJNITcBW69jbvp1qU/ME74P09eGXjtbtWxduVBm2CQXAqcxUjF9dWgquYpM+qj8KhJftdK7eg4i57+bQ0b47CFS4nQOyIBzTwjEgyW+Un0E66jypYquB8uusKlKx2MBTrkJg5/XMTf9utRnngFC+x2LdEXgWxQ4VH4pFiUMZD49rl69WvjjypUrxYEDB+yxTkKm6rZFyBLEHRHIZmV3hqXjQ9wl8UeSApmUPlny60PishnOfeTVRZpghAvD9pD7NMGI38IAOJ2q4l831wzP4priwM/t3VOWTt94Wz5dhVtbW9OkKDdtMifBheA/UJZ7+2qDHW61qnaJ6w2X4Fjk5MmTxd69e4udnZ1puGfPnoJje3u7PKzdWVhZtlDZU0lpgWP5Vbkb2DHRlWVMOqQXgJgeWKJ9C/mSD2Xsa1bRRxmw7LDQPV5t42OykgzTuMx2PZcw3kKXi1596MEMKK4PzulbY5KuLPBsXCgGftWWPkiXaX8bgThTkHcbnXN5ljqJSaKqE9VdY2Bm6tu2DlPhEZcrlR51+eJu9Dp2ZfDU5ZfyehWB0zbHJl0ReHa7UHA3ILYLgjjTcba9hVF2Om3nelPhi2T2xpY9Ewhl1zX7TeEsAtQJB+4Q3CIc1AlCaO4Teyp0sjIaBsyyvnC5jFUoqxfcPzkJ7pMqN1VOOnapS+zmxH3HTpSNFT9ypXSheD2I17lUwjdKGrtUcAEEn9mMdRIqurQG4/x0LgSqEMCapc3YwUszuQi6xdb3GF1Uy+BJ+awuCIdwgS6jX9N7u7LAs3OheABooFVTJhotRB6so11kjqsk7MPe5S6hspnK4w6QCIFlEGDHjJFGWMTc1eaWSaure6tcgvSVdRfvYh1zebsi8Gx2oYQOUitMkQJh75qq2wNMqzjmrUKzSs10k2m9RAgsgwBuFHYumYRZXenOo82lEHZr4RKMXSeB1DeifeO2o+z05VR10Lbeu9qFst1WkSGep7FSaWH6OvNKuOVNZdaRNz6yMO0qnxd5G2IKl0EAwmbNxARCT/Htd/5TkX2fPiZv2vimtG/KSZ2MlbytHXURjsIC9wWl4WKR87p6mIb4n2biWNwQP4tvqugZaHSyAgK0O0jjxIkTM0/TtmhjLNSGKf3Mb21PyBPSZubIUSfBrVDqUPe7rueHQFcW+OgI3FcFVjcHFpEJnYyXLTgkQqBLBOpI3OdB+7MDI6JpO7TdPL5N+3bt87C47cBgAJGMCwER+LjqS9quCQI2A1zlv61D7F5IC+JeRXDpMBPV7HIV9NI/IwJPXwfSYIMRwFJmYT3+/EPfkNj7C5vi7+4bz1Tpi8BTIa98hYBDACsa/zTuDsL4pSZ368pRfOv42HGVyOJeGcasHhSBZ1UdUkYIfBQBI3Lb6hYvei7CiTc9IWnzo8dul0XP6/dxICACH0c9SUshUCKwyN/NYmfTBU9BOn4EuiLw7L6FMv6qUQmEwG4EzKre/YuuCIHVEdhe/VE9KQSEgBAQAikREIGnRF95CwEhIARaICACbwGeHhUCQkAIpERABJ4SfeUtBISAEGiBgAi8BXh6VAgIASGQEgEReEr0lbcQEAJCoAUCIvAW4OlRISAEhEBKBETgKdFX3kJACAiBFgiIwFuAp0eFgBAQAikREIGnRF95CwEhIARaICACbwGeHhUCQkAIpERABJ4SfeUtBISAEGiBgAi8BXh6VAgIASGQEgEReEr0lbcQEAJCoAUCIvAW4OlRISAEhEBKBETgKdFX3kJACAiBFgiIwFuAp0eFgBAQAikREIGnRF95CwEhIARaICACbwGeHhUCQkAIpERABJ4SfeUtBISAEGiBgAi8BXh6VAgIASGQEgEReEr0lbcQEAJCoAUCIvAW4OlRISAEhEBKBETgKdFX3kJACAiBFgiIwFuAp0eFgBAQAikREIGnRF95CwEhIARaICACbwGeHn0LgRdeeKG45557iqNHj751UbESATABGzCSCIEuEdiaBLEELUp4/fr16XH16tXCH1euXCkOHDhgjykUAsXtt99evPTSSyUSt912W/Hcc88VhJssNqi9+uqrU1xefPHFTYZEZf8YAidPniz27t1b7OzsTMM9e/YUHNvb2+WxtbVV3m1hFXiywKtQ0bWlEbDBnwch8meeeWbpNNbtgaeeeqow8qZs+/btW7ciqjyJERCBJ66Adcn+/vvvnynKww8/XEBgmyqU/cknn5wp/kMPPTRzrhMh0BYBEXhbBPV8icDdd9+9C4kHHnhgI0kc4qbssWy6SynGQ+ftEdhpn4RSEAL1CBiRxRZ6/RPj/mVTB61x19p4tZcFPt66y1pz7++F1GJ3QtbKr6icyHtF4PTYygisFYGzYPTYY491vmXr4MGDBSvBdFDbabEy4hvy4PPPPz+zaIf/F/zWVWLyZgB7/PHH17W4KlcmCKwNgUPe7LV99NFHC8iDeBdCWrZ/l4Up0hWJL0b2zjvvLOvBW+Lgt44kXkXetBstWi5uJ7qjHQJrQeBG3ka0QOK3b7WBCCK64447pklA3ljkdFDJfAQ2gcRj8qat0EYou0QI9I3A6Am8irwBzVt+bUDcv39/ES/AWZ64ayTzEYDIGFj9ILgulngVeTOw02YkQmAIBEZN4Eak3vI20Lq0gOqsedw1dOK6302XTQ/ZPgexrROJr0Le2ka46T2h+/KPdhsh09TDhw9P/dPdQ1OdIpb9+fPnpz9iTTKA8Op4DpbXE088UTz77LOlfgxiphNhl4PaFICPRU6cODFzifrxhEX+kDj7xe1esEOOHDlShmP4w2ANefs3TRmYKJthbeWIDQvK/fLLL9vPnYfkZ8YEoeV/33337ZpFdp65EkyDQHgFeirh+ycTjmvXrk3C904mly9fnly6dGly4cKFyblz5yZnz56dnD59ehLe458+kyJy/PjxSegsfMNleoRONHnwwQen53fddVdnqj3yyCPTdImHDjE9Nx3QB71SSfjGxuTee+/dpZfpN3T49NNPV0JBO6KuvD7BRVV5b24X0T0MgjO6UxauV0kYmGbu9WUeMk7bpG3QRiR5IBAG8smpU6cmZ86cKdsPHHvx4sWSc+FeONj4eJ7Go3OhYOmwE8QsjdARyql5bAH1aW1iOcZbxNAHvcyqRK8hhby9VThk3lV5mfUX/4aVSl1htZqAWe6uKKtfXy4sW84pU5UwC8lB0J22wYxVsl4IjMqFYh3dVwGdyEjTkzrT1WUWGe3ZuDPiBvDTXsgHYYsYv7HAaS4V0oCIOA+zgfK+of7kQhZW3qpX6+03I3EwtM/PUoeQYS6uKNOVkHplgIzJ29qdv9fHvQvJX08V9/qn0kH5dovAaD4nGy8aAQNWsN9r6z9p2i1Mb6WGZR9cJdMLEGeYnk79uvYDxD6kbzf+5GRwIZWqoG88KJmOPpxHuP4+4jaIVV0nPxvc4t+rzsHJSJzfeT4nEqd+47UWbzRUlclfgzRZlyCdKoypG8rcRBhImpCwv+/YsWMzSYfp+My5TtIg0NXnZAvvXzGfS04+cPyLoeHP+BLDQuIk9rGGTj9zT6iWXs7JOxZ0DJ16V374Hev8o3Eabc/j8rZNb8jnY+wCoWXhr61aa0HXsQj6+3bR5brQWDDIVc+N8IFjbcQvzeA7xQLE6vUyz4rhGSxSf3gfrE9nUZytg7FgRTGdjv3i+B1jf338bFfnZnFbelh8YxGwC8Q4VdfqvYm1OX2o4wh5x3WHjug6FsESl6w5An6EyskCZwU/EOOMBXHo0KG5Fi1WOfewU2RVwWLGmo8P9Gmyis9zWOmh2UwPytH3DhWsK58neoxNwqA6UwZwi2daQ5SpavfImCxvw4g24NsEbWTMQh9iVmtlIt6kT+ZY5q4s8CxdKMEvOq0kq6w2pDx0BTIIVJERxNCXrAOBV+FG/eNCC371vqCbpku7i9115E9djlHWicBjd5DxAoP8GEm8KwLPahsh01MW4/w0lRdnghVWfqQqVNooJDSqcrHJuwWYzlYtxI6iQAMpCW64x2L3FtdYCPTtomuVLH3y8oIu8TX/u+LDIFDluiRn+pXfyDCMNvnkkg2BUxH8Gy4v1nlif7e/J+c4hBP7xSHxISS3LWxNy2wkzsAdS59lqkrb2h86SdIiYG8XV2kR77Spumddr2VD4Cy6xYsu7L9OuZDVttIpj98i1za9ZZ6vIqRlnk95L4TJAmIsfS7MVqXNtr8xk/e8hf0Y2zGfVw32Yy7PMrpnQ+A0tuAjntEdAsRiXeaFnJkEEp4w8LAvPR6Abr311oRajSNrpsTxW6VYw+wZ70tImzy88F+E+nTb+Lz6iI958InxCJsT4kvTcwbaTZVsCJwKoBOFhZddn4K1r/6NpZLwmcZb0NCdRhgTeh9liomojzz6ShPCjP/9GmsJffuhITvyiLdjjn3dYl2sU9YoqsrCNX7bVMmKwKkERlNILiYhOjZ7wmM3S1xxTIXxic07qqbLcTrxOfk2IV/0rCLvsIumtCqHsIrG6j4Bu3iNgE8ScH0I3IzE/eIz7WDMJL4ubhTaNP0PIwjSZiZLPdGXh2gbMR9kc+63R+W0D5wtZezpDkDNHKEia/dUs9Uwvr/r83nbGcNMYVf+obFN2M7Vt/hthPN07FuPVdOv2nvd57bLRXqGxedddZlSn0X61v3u+8TY94HXlXGM17vaRpjlPnBfIf4TsUbGYcTd9YJH3T5Re6arsKoTMNgE98+uDh9mEXNfPPLlbBtnYLMyDjFgxPrywg17tVfJOybvoQa9uAzxeawX+K5C4mCyKjaxTsue+zJUtd1l09P93SDQFYGP4mNWVVPr0JnKRU/85iZMs9i50qeETjDjj8W1gsskdq8wvUPvocR/zIpps00rfbxPXfBDggV1wCJk068x4u/mfhOmx/iic5n6owvbWO2Lk+gZSLFcrzGd60LwYBcSaziGjW+vdc+1vU5e1h59nHQD/bRNXs93gEBXH7MaBYGDFw0S/7jvSFynQ9ChLG7b9iDQJp3FCI6OWiXkCznZwOAJnN/4Up33qUNA3N8k76r8Vr3mCXzVNLp8jpevFu3fj33LuZG34VHV9qjjRYNUneFh6aYIReApUN+dZ1cEnr0LxU9YcJPglghwzByB2EtXhXe3dOkH9n5E/PIILgNcOV6XsLBS65/35egj7vXIIQ4+8yQMcDPYDelumqdX3W+0PerXY0sZ5ol3X/jnUsVxTUnyQKArF0p2u1BC464VrGUsZaxgL1zDjTHvbS1//7Jxb2GjA/vSsbyZnpqgE5Zaqqk/Fi86xNiYfkOH5sKpyje2vNlxRB3Oe6YqnSGvUa/UL7qaLLKwcSflINYuhnTp5VDuTdBhVP+Rhwqhk9PZcVGYu4TrdK6+xBM4PltP3OTJVJopdUrBXbHIZQFGse6r6ow7y0vswqkiY/KO1wvGQN5WTmt7lD3+x8x8MqGqzPashcH+s2gZ0pa7EPJOZTx0ob/SWA2B0RG4FRNrgo4U7xu23/sKYwJsuqDVlz7LpDtkB4/zGjt5G851JM7gGHabzJB4Ews8HggtH4VCoAkCo3KhxAXCCqfTsPgVi1lI8fWuzskz+EXLmUBXaa5rOpBbbHmzyMz1JlZrbrgYiXt3ipXRD/Axgfv7cyuT9BknAqMmcCDHgqHzxJ0j/pZGm+qJBwPyIs/YymyTxzo96wdUIzZCk6G3WFq+XYZG4n7NgTLytrAvq89zjIOV11/x/BAYPYEDKZYOvkReszWBJLoSXts1IQ/yiq0r+31TQz+A2sBm5O2t0nUgb6tjI3Hf1lgviWcbdr9CIdA1AqP1gcdA0Jnwi/PSBHH/ckh877LnEDbpQdqkL9mNQGxdrjt5ewRsd4ctqpu/H/eeFw36Hg3Fu0BgbQgcMCCRPnaD2ODQBeDrmgauLPuwPi4nXAle1sny9uWyeB2J2++EInCPhuJdILAWLpQugFAa7RDwFrh3mZDqupO3IQeJe3dKjIO5lux+hUKgLQIi8LYI6vkSgTpy2hTytmYQk7hdJ/SDnL+uuBBYFQER+KrI6bmFCGwaeRsg80jc7lEoBLpAQATeBYpKY5d1uankbU2hisRlgRs6CrtCQATeFZIbng4uFL+Ns8tdQGOFlhfNTMCmzs1k9ygUAssisFa7UJYtvO7vFgGsTnYBsSNFZPXRl8zYSsiWSk/m3aKu1DYZgdF8D3yTK0llFwJCYL0Q6Op74HKhrFe7UGmEgBDYIARE4BtU2SqqEBAC64WACHy96lOlEQJCYIMQEIFvUGWrqEJACKwXAo0JPP6PK+sFg0ojBISAEBgfAo0JfHxFk8ZCQAgIgfVGoJbAsbhlda935at0QkAIjBuBWgL3xRKRezQUFwJCQAjkgUAjAs9DVWkhBISAEBACHoGlCFyWuIdOcSEgBITAaggYl1pIKj7eNNWlCLxporpPCAgBISAE+kdgJQJfZaTovyjKQQgIASGwWQgsTeAi781qICqtEBAC/SBgXGrhKrksJHAS9weZcD6ZTFbJT88IASEgBDYaAbjTSLsqtGtNQFpI4HEilvjVq1fjn3QuBISAEBACCxAw7jQuXXD73J8bEziZWYaEV65cmZuwfhQCQkAICIHdCMCdnkuNW+3a7ifqr8wQeJxAVcJ27c0336xPVb8IASEgBIRAJQJwp/EoN8S8W/lQzcUZArd7fOJcs3MLuSYfOChIhIAQEALLIWA+cM+nFif0Ep/734hXErjdZIlybnHC7e3tglHk+vXrdqtCISAEhIAQWIAAnHn58uUZPjVutUfjc7teFc4lcHvAEvThtWvXitdff91uUSgEhIAQEAILEIAz4U7jUoxh4ohdW5DEzM8LCdwStdAy5NxWU2dS1IkQEAJCQAhUIgBnwp3wqOdSrq0iuwjcEiK0OAkTtwwt8zfeeKO4dOnSKvnqGSEgBITARiEAV3IYjxrH+nBZQHYReJyAT9ziRuDcKwKPEdO5EBACQmA3AsaVxp8xkfOEcazFd6cye2UhgVtClrBlakqwmPnaa6/NpqozISAEhIAQmCIAR7J4abzpeRRuRSycPtQgUknglpCRtg+9AsTZEsPGdNwpEiEgBISAEJhFAG6EI+HKmD89t/KUce9sCvVnO/U/zf5CwkbYPiSOgmyP2dnZKY/ZJ3UmBISAENhMBFi0vHDhQrntes+ePVMCNz71BO7J28fnIVdpgfOAJWAZ2LV4BEEpDgj83Llz5RaZeRnqNyEgBITAJiDAdkE4EW6ENz2Bc27caly7Cia1BB4n5jMzEjeFjMC555VXXtH2whg8nQsBIbBRCGB5w4UIRO650vgzJnEjcgubADaXwC0hwvgwJbxiLGhyHcVx2EuEgBAQApuGANwHB8KF+L7hSDuMNwljTl0Fp7kEXpUgmVrmpowpRwiJE1KAj3zkI1VJ6JoQEAJCYC0RgPPgPjgQIjduNK600JO3B4Lry8jCRUwStI+v+IRRpE4g8be97W3l9kIKcfPNNxc33HBD3e26LgSEgBAYNQLwHORNuHfv3tKQZVOHEbgP4U5P4MuStgdqK5Dzwn+t428hzoFj3kJ8PJwT+sNGG6YRN954Y0nkELtECAgBIbAOCGCsQtzsxIO4jQc9YVvc+NBCI3HDYRUiX2iBkzgJG4lbJihhq6umQBzyu1njFNAKedNNN5WEzgglEQJCQAiMCQEWKOEy3qzEOEXM6oYXzfImXkXexqG+zFXX/O918UYWuD1sJE5ocUiaOCGHWeAWtxAFKZgVmDQ5x7VC4X2hVy2M6alQCAgBIdAWAeM1OA3ShrtwkRA3gbs4514j7KqQaxxwmz9Ipw3fLUXgZGbE7UNI2gpL3Ei7Kk4auFH4zQPBdYkQEAJCIHcEMDYhY7wLiJGzhVjdxC2EoDn3xO1J28eXLfvKBE5GkLYROYRsJG4hI5eRuA/tdwoFGCbcz28cEiEgBIRASgSMcCFiE4xOuIzfjLAXhZaODy09rrWRpQmczDzBWtyIt4rIq8jb7rPnLIzTrzrnmkQICAEh0DUCnlAt7onX4mZRe/Lmt/jcrqGnPWs6c95WViJwy9TIm3MjYB8aSfvQ4tzn45ZWHFpeCoWAEBACQyFg5OpDI2BCT+Dxuf3m70dvzk183K6tErYicDI0wrW4nRNyxCQdn9t9Flo6hCb8JhECQkAI9IlATKp27kPiMUHH59wTH15vS89fWzX+lgN6xRRQxgi2SjEKh3AP5G33x4RtacThimrpMSEgBITAygh4LiNu5xZvEpK5PRfHV1YserC1BW7pGfHG50bU9nvdOc/ZPXHc0lQoBISAEBgKASNfH8bx+BzduGbXTdf43K63DTsjcFPEkzDX7NyHPl51j6XlQ3vGX1NcCAgBIdAVAnUka9eXDdHLnulKxzid1i6UOEEU9mRbVQC7ZvdZ6NOquuZ/V1wICAEh0CcCxlOWh51byHWLW2j3+t/8ta7jnVvgXsE6EvbXfbzJs/4exYWAEBACfSBQRcjkE1+Pz6vu6UM/S7NXArdMCOuIetFvPg3FhYAQEAIpEagibNNn3m92T9fhYATuFZ9H5v4+xYWAEBACOSOQgrQ9Hp37wH3idfG40CL0OqR0XQgIgVwQiHkrB72SEHhc8ByBiXXUuRAQAkIgNwTq/61ObppKHyEgBISAEJhB4P8DwaDEjf4bVvYAAAAASUVORK5CYII=;" parent="1" vertex="1">
                    <mxGeometry x="-49" y="164" width="139.02" height="172.26" as="geometry"/>
                </mxCell>
                <mxCell id="AhNlXJ4hRKMXUMh4VS_F-13" style="edgeStyle=none;curved=1;sketch=1;orthogonalLoop=1;jettySize=auto;html=1;fontFamily=Architects Daughter;fontSource=https%3A%2F%2Ffonts.googleapis.com%2Fcss%3Ffamily%3DArchitects%2BDaughter;fontSize=20;endArrow=open;startSize=14;endSize=14;sourcePerimeterSpacing=8;targetPerimeterSpacing=8;entryX=0;entryY=0.139;entryDx=0;entryDy=0;entryPerimeter=0;exitX=0.586;exitY=-0.036;exitDx=0;exitDy=0;exitPerimeter=0;" parent="1" source="AhNlXJ4hRKMXUMh4VS_F-12" target="AhNlXJ4hRKMXUMh4VS_F-11" edge="1">
                    <mxGeometry relative="1" as="geometry">
                        <mxPoint x="-216" y="236" as="sourcePoint"/>
                        <mxPoint x="-52" y="190" as="targetPoint"/>
                        <Array as="points">
                            <mxPoint x="-185" y="197"/>
                            <mxPoint x="-111" y="170"/>
                        </Array>
                    </mxGeometry>
                </mxCell>
                <mxCell id="AhNlXJ4hRKMXUMh4VS_F-12" value="Double click to add more shapes" style="text;html=1;align=center;verticalAlign=middle;resizable=0;points=[];autosize=1;strokeColor=none;sketch=1;hachureGap=4;pointerEvents=0;fontFamily=Architects Daughter;fontSource=https%3A%2F%2Ffonts.googleapis.com%2Fcss%3Ffamily%3DArchitects%2BDaughter;fontSize=20;" parent="1" vertex="1">
                    <mxGeometry x="-408" y="245" width="314" height="28" as="geometry"/>
                </mxCell>
                <mxCell id="AhNlXJ4hRKMXUMh4VS_F-16" style="edgeStyle=none;curved=1;sketch=1;orthogonalLoop=1;jettySize=auto;html=1;fontFamily=Architects Daughter;fontSource=https%3A%2F%2Ffonts.googleapis.com%2Fcss%3Ffamily%3DArchitects%2BDaughter;fontSize=20;endArrow=open;startSize=14;endSize=14;sourcePerimeterSpacing=8;targetPerimeterSpacing=8;exitX=-0.008;exitY=0.571;exitDx=0;exitDy=0;exitPerimeter=0;" parent="1" source="AhNlXJ4hRKMXUMh4VS_F-14" edge="1">
                    <mxGeometry relative="1" as="geometry">
                        <mxPoint x="-506" y="356" as="targetPoint"/>
                        <Array as="points">
                            <mxPoint x="-477" y="379"/>
                        </Array>
                    </mxGeometry>
                </mxCell>
                <mxCell id="AhNlXJ4hRKMXUMh4VS_F-14" value="Click to add special stuff" style="text;html=1;align=center;verticalAlign=middle;resizable=0;points=[];autosize=1;strokeColor=none;sketch=1;hachureGap=4;pointerEvents=0;fontFamily=Architects Daughter;fontSource=https%3A%2F%2Ffonts.googleapis.com%2Fcss%3Ffamily%3DArchitects%2BDaughter;fontSize=20;" parent="1" vertex="1">
                    <mxGeometry x="-414" y="365" width="250" height="28" as="geometry"/>
                </mxCell>
                <mxCell id="AhNlXJ4hRKMXUMh4VS_F-19" style="edgeStyle=none;curved=1;sketch=1;orthogonalLoop=1;jettySize=auto;html=1;fontFamily=Architects Daughter;fontSource=https%3A%2F%2Ffonts.googleapis.com%2Fcss%3Ffamily%3DArchitects%2BDaughter;fontSize=20;endArrow=open;startSize=14;endSize=14;sourcePerimeterSpacing=8;targetPerimeterSpacing=8;exitX=0.458;exitY=-0.036;exitDx=0;exitDy=0;exitPerimeter=0;" parent="1" source="AhNlXJ4hRKMXUMh4VS_F-17" edge="1">
                    <mxGeometry relative="1" as="geometry">
                        <mxPoint x="512" y="43" as="targetPoint"/>
                        <Array as="points">
                            <mxPoint x="636" y="28"/>
                        </Array>
                    </mxGeometry>
                </mxCell>
                <mxCell id="AhNlXJ4hRKMXUMh4VS_F-17" value="Drag or click this arrow to rotate" style="text;html=1;align=center;verticalAlign=middle;resizable=0;points=[];autosize=1;strokeColor=none;sketch=1;hachureGap=4;pointerEvents=0;fontFamily=Architects Daughter;fontSource=https%3A%2F%2Ffonts.googleapis.com%2Fcss%3Ffamily%3DArchitects%2BDaughter;fontSize=20;" parent="1" vertex="1">
                    <mxGeometry x="558" y="65" width="338" height="28" as="geometry"/>
                </mxCell>
                <mxCell id="AhNlXJ4hRKMXUMh4VS_F-22" style="edgeStyle=none;curved=1;sketch=1;orthogonalLoop=1;jettySize=auto;html=1;fontFamily=Architects Daughter;fontSource=https%3A%2F%2Ffonts.googleapis.com%2Fcss%3Ffamily%3DArchitects%2BDaughter;fontSize=20;endArrow=open;startSize=14;endSize=14;sourcePerimeterSpacing=8;targetPerimeterSpacing=8;exitX=0.521;exitY=0;exitDx=0;exitDy=0;exitPerimeter=0;" parent="1" source="AhNlXJ4hRKMXUMh4VS_F-20" edge="1">
                    <mxGeometry relative="1" as="geometry">
                        <mxPoint x="501" y="138" as="targetPoint"/>
                        <Array as="points">
                            <mxPoint x="593" y="147"/>
                        </Array>
                    </mxGeometry>
                </mxCell>
                <mxCell id="AhNlXJ4hRKMXUMh4VS_F-20" value="Drag blue dots to resize" style="text;html=1;align=center;verticalAlign=middle;resizable=0;points=[];autosize=1;strokeColor=none;sketch=1;hachureGap=4;pointerEvents=0;fontFamily=Architects Daughter;fontSource=https%3A%2F%2Ffonts.googleapis.com%2Fcss%3Ffamily%3DArchitects%2BDaughter;fontSize=20;" parent="1" vertex="1">
                    <mxGeometry x="499" y="196" width="236" height="28" as="geometry"/>
                </mxCell>
                <mxCell id="AhNlXJ4hRKMXUMh4VS_F-24" value="See an outline or zoom in and out" style="text;html=1;align=center;verticalAlign=middle;resizable=0;points=[];autosize=1;strokeColor=none;sketch=1;hachureGap=4;pointerEvents=0;fontFamily=Architects Daughter;fontSource=https%3A%2F%2Ffonts.googleapis.com%2Fcss%3Ffamily%3DArchitects%2BDaughter;fontSize=20;" parent="1" vertex="1">
                    <mxGeometry x="395" y="619" width="320" height="28" as="geometry"/>
                </mxCell>
                <mxCell id="AhNlXJ4hRKMXUMh4VS_F-25" value="" style="edgeStyle=none;curved=1;rounded=0;sketch=1;orthogonalLoop=1;jettySize=auto;html=1;endArrow=open;sourcePerimeterSpacing=8;targetPerimeterSpacing=8;fontSize=16;fontFamily=Architects Daughter;fontSource=https%3A%2F%2Ffonts.googleapis.com%2Fcss%3Ffamily%3DArchitects%2BDaughter;startSize=14;endSize=14;exitX=1.006;exitY=0.464;exitDx=0;exitDy=0;exitPerimeter=0;" parent="1" source="AhNlXJ4hRKMXUMh4VS_F-24" edge="1">
                    <mxGeometry width="120" relative="1" as="geometry">
                        <mxPoint x="636" y="625" as="sourcePoint"/>
                        <mxPoint x="816" y="625" as="targetPoint"/>
                        <Array as="points"/>
                    </mxGeometry>
                </mxCell>
                <mxCell id="AhNlXJ4hRKMXUMh4VS_F-26" value="Expand to change styles" style="text;html=1;align=center;verticalAlign=middle;resizable=0;points=[];autosize=1;strokeColor=none;sketch=1;hachureGap=4;pointerEvents=0;fontFamily=Architects Daughter;fontSource=https%3A%2F%2Ffonts.googleapis.com%2Fcss%3Ffamily%3DArchitects%2BDaughter;fontSize=20;" parent="1" vertex="1">
                    <mxGeometry x="726" y="-39" width="233" height="28" as="geometry"/>
                </mxCell>
                <mxCell id="AhNlXJ4hRKMXUMh4VS_F-31" value="Right click to show a menu" style="text;html=1;align=center;verticalAlign=middle;resizable=0;points=[];autosize=1;strokeColor=none;sketch=1;hachureGap=4;pointerEvents=0;fontFamily=Architects Daughter;fontSource=https%3A%2F%2Ffonts.googleapis.com%2Fcss%3Ffamily%3DArchitects%2BDaughter;fontSize=20;" parent="1" vertex="1">
                    <mxGeometry x="36" y="505" width="263" height="28" as="geometry"/>
                </mxCell>
                <mxCell id="AhNlXJ4hRKMXUMh4VS_F-33" value="" style="edgeStyle=none;curved=1;rounded=0;sketch=1;orthogonalLoop=1;jettySize=auto;html=1;endArrow=open;sourcePerimeterSpacing=8;targetPerimeterSpacing=8;fontSize=16;fontFamily=Architects Daughter;fontSource=https%3A%2F%2Ffonts.googleapis.com%2Fcss%3Ffamily%3DArchitects%2BDaughter;startSize=14;endSize=14;exitX=0.449;exitY=-0.036;exitDx=0;exitDy=0;exitPerimeter=0;" parent="1" source="AhNlXJ4hRKMXUMh4VS_F-31" edge="1">
                    <mxGeometry width="120" relative="1" as="geometry">
                        <mxPoint x="86" y="505" as="sourcePoint"/>
                        <mxPoint x="338" y="312" as="targetPoint"/>
                        <Array as="points">
                            <mxPoint x="182" y="375"/>
                        </Array>
                    </mxGeometry>
                </mxCell>
                <mxCell id="AhNlXJ4hRKMXUMh4VS_F-34" value="" style="shape=image;verticalLabelPosition=bottom;labelBackgroundColor=#ffffff;verticalAlign=top;aspect=fixed;imageAspect=0;image=data:image/png,iVBORw0KGgoAAAANSUhEUgAAAk4AAAGQCAYAAABYhe83AAAAAXNSR0IArs4c6QAAAJBlWElmTU0AKgAAAAgABgEGAAMAAAABAAIAAAESAAMAAAABAAEAAAEaAAUAAAABAAAAVgEbAAUAAAABAAAAXgEoAAMAAAABAAIAAIdpAAQAAAABAAAAZgAAAAAAAACQAAAAAQAAAJAAAAABAAOgAQADAAAAAQABAACgAgAEAAAAAQAAAk6gAwAEAAAAAQAAAZAAAAAAGlAh6AAAAAlwSFlzAAAWJQAAFiUBSVIk8AAAAm9pVFh0WE1MOmNvbS5hZG9iZS54bXAAAAAAADx4OnhtcG1ldGEgeG1sbnM6eD0iYWRvYmU6bnM6bWV0YS8iIHg6eG1wdGs9IlhNUCBDb3JlIDYuMC4wIj4KICAgPHJkZjpSREYgeG1sbnM6cmRmPSJodHRwOi8vd3d3LnczLm9yZy8xOTk5LzAyLzIyLXJkZi1zeW50YXgtbnMjIj4KICAgICAgPHJkZjpEZXNjcmlwdGlvbiByZGY6YWJvdXQ9IiIKICAgICAgICAgICAgeG1sbnM6dGlmZj0iaHR0cDovL25zLmFkb2JlLmNvbS90aWZmLzEuMC8iPgogICAgICAgICA8dGlmZjpSZXNvbHV0aW9uVW5pdD4yPC90aWZmOlJlc29sdXRpb25Vbml0PgogICAgICAgICA8dGlmZjpYUmVzb2x1dGlvbj4xNDQ8L3RpZmY6WFJlc29sdXRpb24+CiAgICAgICAgIDx0aWZmOllSZXNvbHV0aW9uPjE0NDwvdGlmZjpZUmVzb2x1dGlvbj4KICAgICAgICAgPHRpZmY6T3JpZW50YXRpb24+MTwvdGlmZjpPcmllbnRhdGlvbj4KICAgICAgICAgPHRpZmY6Q29tcHJlc3Npb24+MTwvdGlmZjpDb21wcmVzc2lvbj4KICAgICAgICAgPHRpZmY6UGhvdG9tZXRyaWNJbnRlcnByZXRhdGlvbj4yPC90aWZmOlBob3RvbWV0cmljSW50ZXJwcmV0YXRpb24+CiAgICAgIDwvcmRmOkRlc2NyaXB0aW9uPgogICA8L3JkZjpSREY+CjwveDp4bXBtZXRhPgpgtfwkAAAyDElEQVR4Ae3dW6wcV7kg4Nq2Eww4vgQGonCxEZkkKAE7giPIIMY20pmTBxBBOho/zEN25g0BkskjIBmk84giPyDxMjrePIxQJARBIE3OSGD7EJIRHMYOSWZIlAhbIZGBYDtOmFx86anVe9d273Z37+6u26qqr6R236pWrfX9y93/XrW6KkksBAgQIECAAAECBAgQIECAAAECBAgQIECAAAECBAgQIECAAAECBAgQIECAAAECBAgQIECAAAECBAgQIECAAAECBAgQIECAAAECBAgQIECAAAECBAgQIECAAAECBAgQIECAAAECBAgQIECAAAECBAgQIECAAAECBAgQIECAAAECBAgQIECAAAECBAgQIECAAAECBAgQIECAAAECBAgQIECAAAECBAgQIECAAAECBAgQIECAAAECBAgQIECAAAECBAgQIECAAAECBAgQIECAAAECBAgQIECAAAECBAgQIECAAAECBAgQIECAAAECBAgQIECAAAECBAgQIECAAAECBAgQIECAAAEC5QgcO3ulV07JSiVAgEA+gQ35Nrc1AQIEihX49fnlpOlfJU/FwiqNAIFCBCROhTAqhACBogT+35XlksLd4ytJVFFlK4cAAQJ5BSROeQVtT4BAYQLDh+jeTLOn/33BYbvCgBVEgEBuAYlTbkIFECBQhMCvzo1OkC5cKqJ0ZRAgQKAYAYlTMY5KIUAgh8ATFy73Lk6YDj48EpVjVzYlQIBALgGJUy4+GxMgUITAuUsL6xZjsvi6RFYgQKACAYlTBch2QYDAeIHjU/56LkwWf2zM4bzxpXuHAAECxQpInIr1VBoBAjMIhF/NTThCd01Jb6Ur//aV0XOhrlnZCwQIEChBQOJUAqoiCRBYX+Dp1670wq/mZl1evZwkv0+3nXU76xMgQKAIAYlTEYrKIEBgZoG/vDXzJqsbnMmx7WohHhAgQGAOAYnTHGg2IUAgn8CjU85rmrSXaedGTSrDewQIEJhVQOI0q5j1CRDIJRDmKBVxaqZwrG7cuZ9yVdDGBAgQmCAgcZqA4y0CBIoXCHOUilrCuZ9MFi9KUzkECEwjIHGaRsk6BAgUIlDG4bWQiP0fk8ULiY9CCBBYX0DitL6RNQgQKEBg1lMPzLLLP5ssPguXdQkQyCEgccqBZ1MCBKYTePLV+U49MF3py2uVMZo1y/6tS4BANwQkTt2Is1YSqFXgrxfL373J4uUb2wMBAkkicdILCBAoVaDKa8yFyeL/5szipcZT4QS6LiBx6noP0H4CJQqEJGaOk4PnqtFr6WTxp0wWz2VoYwIExgtInMbbeIcAgZwCIYmpY3nZZPE62O2TQCcEJE6dCLNGEqhe4FgBZwfPU2uTxfPo2ZYAgXECEqdxMl4nQGBugRjO6G2y+NzhsyEBAhMEFia85y0CBAiULjDLyNS+Gzf4zCo9InZAgMAkASNOk3S8R4AAAQIECBAYEJA4DWB4SIAAAQIECBCYJCBxmqTjPQIECBAgQIDAgIDEaQDDQwIECBAgQIDAJAGJ0yQd7xEgQIAAAQIEBgQkTgMYHhIgQIAAgS4J/Jenw4WKLLMISJxm0bIuAQIECBBokcB//2N6ev9fvSl5miGmEqcZsKxKgAABAgRaJ/BamjdJnqYOq8RpaiorEiBAgACBNgqkiZPkaerASpymprIiAQIECBBoo8DKCfklT1MFV+I0FZOVCBAgQIBABwQkT+sGWeK0LpEVCBAgQIBAewSWXrrc+48n01/T/fyN0ZPCJU8Tgy1xmsjjTQIECBAg0A6BB09f6idLi09eTP71T+mv6bIzESyMuHa25Gls0CVOY2m8QYAAAQIE2iFw02/e6j3w+0tJkuZOy0uaLGUJUy97baitkqchkOWnEqeRLF4kQIAAAQItEUhPNXDm7JXlxiwMfe2PS5pa0vQymjEkWMYulEmAAAECBAjUIhDOzxRGjrJl9eHKg2zUKXt/8H5LOir16betOY734z9fXi1hcNUuPZY4dSna2kqAAAECnRHoTwAfTJqSkAMtjzx9aeem5MTdbxtvccO1SdORFy/3vnjiYvKPT2WTo8Zv3uZ3JE5tjq62ESBAgEAnBUKS058Avqb16WDRpoV+wvS92zct3LV1zHBTSJr+w9qRplDe/U9d7Jf2wxcvJ8fOXunsyNOmNaaeECBAgAABAo0XuP/5kOSE3CYdHwkDTb10pGlL+jg99HbXpNaNSJrC4bkw0rRaXjpqte//LidRk4pq63tGnNoaWe0iQIAAgU4KhNGh5PW06f0xofSf/gTwheTYR64b7ZFNEB+RNIUNvviejSH1Spd+BrZcbnoIsKvznSROy73BvwQIECBAoBUC//zn7Bd0aaKzcjTuH9+3Mdl344aVBGiomWGdMUlTtmaYE9VfwrobllOH/3m2m0frJE5Zr3BPgAABAgRaIPDLv6Ynt8xGka4sJ1E/vPO60UlTaO86SVNYJcyJCvf9ckPZ6e17f0rPC9XBReLUwaBrMgECBAi0U+DEhTSjSfOm5cNq4S7NdybMZr7xxjQNGJoIPlZm88A7odw3Bp536KHEqUPB1lQCBAgQaLfAK6tnBl85jJZ+y9+4dfxX/dm/u378SNQQ1TfftykJidbgrZ+oDa3X9qcT8tC2N137CBAgQIBASwXCiFBY0iN1B27YkHxv+Vmuf//plpXDdQOlTPyF3sB6bXoocWpTNLWFAAECBAgEgTAPqT+RO0keenVlsnhOmW8+d6n3386tLet/3HZdMvZ8UDn3F+vmEqdYI6NeBAgQIEBgRoFtq4NCV0eczl5Ym+zMWOTq6v/0UjoZPJzmYGDpWtIUmj7+wOcAjIcECBAgQIBA/AL9RGZjqOfKHKcw8lTUj98Gk6ZQ7tqTi8ePU1ANJU4FQSqGAAECBAjEIPCZd6WZUzbHaeWcS3mvL/el36/MOg/lrty+dFM/Q4uhyZXWQeJUKbedESBAgACBcgX+63tWvtrDqFC4pUve68t97/TKsFUob+XcUP/pxql/kFdugysuXeJUMbjdESBAgACBMgXuf196iZRwGK2f12QjRL25ry+39tIqK+VuWRi4FEuZrYmvbIlTfDFRIwIECBAgkEvgyL8Pv/0KmdPKqFMvfZxeXy75+Ru9ac+9FNYLSdO9/25DcuTO7Dp3YQRrwnXvctW6GRtLnJoRJ7UkQIAAAQJTC4RRp8+8Z3gOUpo8pdf/vevxN5Mvp3OWJiVQ//mpi72w3hdPXEyWXrqSLN58NXmaeN27qWvY3BVDOmohQIAAAQIE2ijwqzd7/ZGm1batjEJlz9+eJN+8eVMSTm4ZztO05pQD/cGl5RGmMOIUkqeH/3Kls4foMjKJUybhngABAgQItFFgMHkKv4jrTxi/mkCFS6iES6/c+Ju3emfPZud8yt7P7pP+4br+/Kk2Gs3QJofqZsCyKgECBAgQaJzAp9+20L+Yb6h4L02MslMVTGpIyJf66y0nUuGwn6RpGUziNKnjeI8AAQIECLRAIIwoPXh7OmE8nFm8P+IUDsGF24glvJ/dtmxIjv3d9ckv77oupFKWVMAlV3QDAgQIECDQAYEHdi5fj+XIi5d7//znK8kvz14efVbxzRuScHLLcJ6mL75n48K+DthoIgECBAgQIEBgKoHs13XZ/VQbWYkAAQIECBAgQIAAAQIECBAgQIAAAQIECBAgQIAAAQLVCpglX633VHv73YXLvXOXFpIdm3rJx7am1xyyEOiQgP7foWBr6jUC+v81JNG94Es5kpAcPn2pdzA9rX1yITv52EDFtm5IDqdnbD248ouIgXc8JNAKAf2/FWHUiDkF9P854WraTOJUE3y22/5/mOfTn4ReHHM+jWzFcJ+eRmMpPQ/H4s1GoQZZPG6ugP7f3NipeX4B/T+/YR0lSJzqUF/Z54GnL/Ye+mOaNM24HHj/xuShO5yMbEY2q0cmoP9HFhDVqVRA/6+Uu9CdSZwK5Zy+sHn/02R7kDxlEu6bKKD/NzFq6lyUgP5flGQ95bjkSg3uYXh2npGmwaqG7ZdeujzF8b3BrTwmUL+A/l9/DNSgPgH9vz77ovZsxKkoyVnK+cWbvanmNK1XZjha99m3ieF6Tt6PS0D/jysealOtgP5frXcJe3OtuhJQJxXZnwz4+0uTVpn+vXRCeb88v7ZbY3bixIneK6+8suY1T6YT2LZtW3LXXXeVlozr/9PFoUlrHTt2LJqR77QupdOdOnUqCbdZlrRe/f9T+v8savGuW9oHZLxNrrlmj7/VG3nKgXmrlZ6qILn7+lxxnPTBN+2HxLTrDTbz/PnzycmTJwdf8riFAvfee2/y8MMPL/fREvt/up9eup8WCmpSkwWq6v9NNmpa3Y04VR2xUedpylOHgfJCAnT48OEkJCTDy6S/xPbt2ze8uucEChPYs2dPSJyWyxvor4XsYKC8NfsppHCFdE1g586dya5duwpt9he+8IVK+n+hlVbYRAGJ00SeYt88fvZKb+9v3iq20LS0cKbZcIbxkBytfkEVvpe1Be7evTvZvn372hfHPAvrhS+1vIsEL69gPdvv37+/P9pUdv/fu3dvcujQoXoaGelei/q/V1fzQhJTdCJTZVvCiHp26Lvs/l9lu7q+L4lTC3pAuDxLWD75yU8m4csjLPfcc0/ygQ98INmyZUv/+eA/Yf7PBz/4wcGX1jzesWPHmufZk3e+853JLbfckj295v6JJ5645rXshQ9/+MMj6xLeP3PmTPKnP/0pW3XN/Xvf+97kpptuWvNa9uS1115Lnn/++ezpNfchuRu3PPfcc8nf/va3kW9P2uekuvKZHMuR2AW8mPX/kKClX1Rr5ttMiqX+kySx+4TPquxzpez/X5cuXUpCn+j1rnahhYWF/nSC4VH8MDXh1VdfTT7/+c+v9uA33ngjCbdsOXjwYP/h0tJSb3FxcflDOnuzwPus/xdYpKLWEZA4rQPUhLe3p9e0C8vb3/72JP3y6D/+yEc+MnZEKHwIHD9+vL9e9s/gX6bDHxLZOufOnUtefPHF7OlM97/97W9nWj9bOdTlmWeeyZ6u3och9VDncXVdXXHMg/ABOW4CeZggPW4JH4zj9jn4gTtq+3HbhXXDh/a4ZdI+J9U1lDlpn+P2F14vw2fS/vK8l/X/UMZwe5vko/8k/cRjOIZZ3xj+/BmefjBpRPqrX/1qEpKdsAxvlyY1SbhlS0iWsuVnP/tZ8p3vfCd7uub+tttuS0K56y3Zftdbb973B/v/vGXYbjaBqz1ktu2sPa/Av7xx9c+ZecsY3u4fNvfj+K1vfauX3vrvhhGncSM1Yfh43KTscEht3GG1MNryyCOPDO999fngh8/qiysPwnZh+1HLpH1OqmtoX2jnuCX9S2/cW/3t5vX51Kc+NdI2fOCPcw0VmfTBHrYb94URDlXcfvvtY/c5brvNmzeP3CZDmfSBHmzC9tmyXlnZeqPu03Zf/Zwpsf+HfadfiiP/f42auxIS0nF9MpQV3MctYbvB0YXB9UJCH26jlhCrUfEKr41L5EeVU8RrYZ+hD4yqTyh/vZiHBGRcHwr/p0cZhH2F7cb9P5n0WVDH58+zzz6bPPbYY6vcIRHPPh9vuOGG5OMf//hYp6z/ZIeq+4WU3P9XK+pBqQJXP9BK3Y3CVwX8qmiVwoNuCFT1qyK/qutGf5rUymyqwvA6IYnLEp7h90KCkyU5g++tSXgG38jzuMTP/zzVsu1sAhKn2bxyr13oeTzS2hxOL/p7MNLzOB09enTkX/+5EecsYNKozpxFTrVZHfsNf9lnc0OmqmT5K/U/a0ru/1H1t/JJq9vDuIRkvRpMGmUd3HZc8jK4Tkh+sonWg6836XHJ/b9JFI2uq8SpjvA5c2wd6vYZi0BJ/T+2RL1O7lJGS+psUJv2XVL/bxNR7G2RONUQoSMvXu7d/9TF3Hs+cud1yf3v2yiGuSUVUKWA/l+ltn3FJqD/xxaR2evjIr+zm+XeIiQ7B96/MVc5YXtJUy5CG9ckoP/XBG+3UQjo/1GEIVcljFbk4su38YGnL/Ye+uPlmQsJSdNDd4Qr/FoINFdA/29u7NQ8v4D+n9+wrhJ8+dYlv7Lf/rDtM+k5fNIL9q67pLnSkds2GWlaF8oKTRHQ/5sSKfUsQ0D/L0O1/DIlTuUbT7WHB09f6j3w0pVk5AWA0wv5PnjzhuSBSH89N1UDrURggoD+PwHHW60X0P+bFWKJU4TxeiK99lw4jf6O9Izgu9Nr0EVYRVUiUJqA/l8arYIbIKD/NyBIqtgcgUcffXSK43nNaY+aEiBAgAABAgQKFwhnRE4L7X3hC1+QOBWuq0ACBAjEIRDORRYunfWjH/2oN+7yQXHUtNu1cJHfSOMf/gNlF5vMzr4bLhnwk5/8JNIaqxYBAgQI5BEI1/H79re/3S9i3rO159m/bacTkDhN51TLWuMuhFlLZeyUAAECBAgQSCROEXeCgwcPRlw7VSNAgAABAt0TcObwBsV81BW8G1R9VSVAgACBKQVOnz495ZpWq1pA4lS1eI79SZxy4NmUAAECDRI4depUg2rbrapKnLoVb60lQIAAgUgFwuRwS/wCEqf4Y6SGBAgQINAhgdtuuy1ZXFzsUIub1VSJU4PitX//fmcRb1C8VJUAAQLzCNx66639xMm5nObRK38biVP5xvZAgAABAgQItERA4hRxIMPxbse8Iw6QqhEgQIBA5wQkTp0LuQYTIECAAAEC8wpInOaVq3i7nTt3VrxHuyNAgAABAgSGBSROwyKRPncOp0gDo1oECBAg0CkBiVOnwq2xBAgQIBC7wMsvv5yEa5X2er3Yq9rJ+kmcOhl2jSZAgACBWAUef/zxxLVKY41Okkic4o2NmhEgQIAAAQKRCWyKrD6qMyAw+BfH9u3bB97xkAABAgTaLuB6dXFG2IhTnHHp1yoc4w63sOzZs6d/7x8CBAgQ6IaAxCnOOEuc4oyLWhEgQIAAAQIRCkicIgyKKhEgQIAAAQJxCkic4oyLWhEgQIAAAQIRCkicIgyKKhEgQIBAdwU+//nP969Tun///u4iRNxyiVPEwRms2r59+wafekyAAAECBAjUICBxqgF92l0uLi4m4WYhQIAAAQIE4hCQOMURh2tqsXnz5n7SJHG6hsYLBAgQIECgNgGJU230k3d89913L0xew7sECBAgQIBA1QISp6rF7Y8AAQIECBBorIDEqSGhS39dYQSqIbFSTQIECBBor4Br1bU3tlpGgAABAg0UeOyxx5IXXngh2b17dwNr3/4qS5zaH2MtJECAAIEGCfz1r39Nwm3btm0NqnV3qipxijjWS0tLEddO1QgQIECAAAECcQn00upkt7hqpjYECBAgUKjA3r17s8/7/v327dvDvSUyAZPDIwvIqOoYrh2l4jUCBAi0W+D8+fPtbmBDWydxakDg9uzZ04BaqiIBAgQIEGi/gMSp/THWQgIECBAgQKAgAZPDC4JUDAECBAgQKELgtttuS9KrR/SL8iOhIkSLLcOIU7GeSiNAgAABArkEbr31VtcqzSVY7sZGnMr1zVW6uU25+GxMgAABAgQKF5A4FU5aTIFHjx7tLSwsX2Xl0KFDxRSqFAIECBAgQCCXgEN1ufhsTIAAAQIECHRJQOLUpWhrKwECBAg0SuDEiRNOghlZxCROkQVkVHV27do16mWvESBAgEDLBZwEM74AS5zii8k1NZI4XUPiBQIECLROIPusf/bZZ5NwGgKnIogzxCaHxxkXtSJAgACBjglkidMzzzyThFtY7rvvvo4pxN9cI07xx0gNCRAgQIAAgUgEJE6RBGJUNfbt25eEm4UAAQIEuiPgwu5xx1riFHd81I4AAQIEOibg5MdxB1ziFHd81I4AAQIECBCISEDiFFEwVIUAAQIECBCIW8Cv6uKOj9oRIECAQMcEbrjhhsThuniDbsQp3tis1swE8VUKDwgQINB6gQ9+8IPJ4cOH+zcnwIwv3BKn+GKiRgQIECDQYYEXXnhhtfUnT55cfexBHAIO1cURh5G1CH9xWAgQIECAAIF4BCRO8cTimppkx7h7Pdd4vAbHCwQIECBAoAYBh+pqQLdLAgQIECBAoJkCEqdmxk2tCRAgQIAAgRoEJE41oNslAQIECBAYFsimZwy/7nlcAhKnuOKhNgQIECDQUYHt27f3W/7Tn/60f51Sp6KJsyNInOKMi1oRIECAQIcFXOg33uBLnOKNTbK0tNS/RVxFVSNAgACBEgQctisBtaAinY6gIMgyigmJU1juu+++/r1/CBAgQKAbAk58GW+cjTjFGxs1I0CAAIGOCrzyyisdbXn8zZY4xR8jNSRAgAABAgQiEZA4RRII1SBAgAABAgTiFzDHKf4YqSEBAgQIdEjg7rvvTg4cONBv8blz5zrU8mY01YhTM+KklgQIECDQEYF3v/vdSfhVXbgdO3as8a1+6rUrrbrgamNHnEIgXn4rSfbduGGh8b1qTAMWFxfHvONlAgQIEGibwP79+8P3WauSjBCjy1cWkmNnr/TefX2S3Lml+d/ZjUyc/tf55aSpbf9phtuTJU69Xuv+Hw031XMCBAgQaLlAGOz41bkrvU/vaHby1LhDdSFrfeNKy3uX5hEgQIAAgRYKXEzHAcL3eJMP3zVmxCk7NNfCfjSySStDtv33nnzySUNOI5W8SIAAgXYJHDp0KPnMZz4TrlXXn4by9a9/vXf8+PF2NTJtTZNHnxoxPygcmhs3ytTmOU6t+5+iQQQIECDQOYEnLvR65y6N//u/aXOfoh9x6uKhud9duJx2soVkx6Ze8rGtGxuR3Hbuk0CDCRAgUIJAFz//mzb6FO2X8rSH5toy4nT49KXewZfSyVsXRkzg2rohOXzzhuTgzk3RxquEzw9FEiBAoBMCbf/8X2/EaTDITRh9ivKLOMy6DxPIplmanjj1/8M8fzlJpmnwdQvJ0u2bksWbjUJN0zesQ4AAgZgFuvL5P0viFOK1Of3Z2qe2x/vLu+gSp3BobpaO3uTE6cDTF3sP/TFNmmZcDrx/Y/LQHWkWZSFAgACBRgp06fN/1sQpC2is3+/RnI4gwM6aNGW4Tbyf9z9NaGtItsL2TWy3OhMgQKDrAj7/p+sBIScIPw6bbu3q1opi1GKWQ3PV0cy2p1ky4/7w7O8vzbaDEWsvffQ6h+1GuHiJAAECsQrU9fnf9IGJWb5jy4597YlT04OZBWimoP7izd5Uc5qywsfdh6N1n31b7TEcVz2vEyBAgMCQQE2f/234ro1l7lNth+q6dmgu+68T/tooJGkKBaZH6/rlZYW7J0CAAIFoBXz+5wtNOJ9jDAlgLaMVbTg0Nxz+qUecHn+rN/KUA8MFTvs8PVVBcvf1tcRx2ipajwABAgRSgRo//2NIOIrsA3WOPlU+4hSC1+lpzaPO05SnNxVdXp662JYAAQIExgsU/XlddHnjax7dO3WOPlWWOP3bK1c69au5Ub3s+IynWhhVxqjXwplmR73uNQIECBCIQ8DnfzlxCIMxVf/yrrLE6c0RJ8Quh7F7pYbLs1gIECBAoHsCPv+TpOqhg8oSp0/v2LCwZWP3OnUVLd6eXtPOQoAAAQLdE+j653/IK0J+UWXkK0ucQqM+sW3DQrgOTVeXvTeWE9zdLgTc1S6l3QQINETA53/xgQo/ygp5RfElTy6x0sQpVOXOLRsWpv4F2uS6N/Pd8Cu4IpeiyyuybsoiQIAAgasCRX9eF13e1ZpG/SicwrDOPKLgb/Hprets9PS1LH7NwzcXS150ecW3WIkECBAgEASK/rwuurwmRKmOQ3PDLpUPcQ1XoC3ndJopEazpzLHD9p4TIECAQMUCNX3+t+E8TmGqTzhqVXHErtld7RUINQqnKnjt8jV1m+qFmRKWqUosf6UjL17u3f/Uxdw7OnLndcn979sYRQxzN0YBBAgQ6IBAFz//w5VCzqUXzcizxPRdX+xxozlVujZpPCQ7B96f7yeGYXtJ05wdzmYECBCoScDn/2zw4QzhMSVNofZRJE6hIl2bNP7QHdfNnTyFpClsH9wsBAgQINAsAZ//08UrHJr71Pb6D80N1zaaxCmrWGyZZVavMu7Df55wuC2ZNgdK1wvrS5rKiIYyCRAgUJ2Az//J1iEXiGE+06haRjtqMe2k8bYkWg+evtR74KX09Oqjrj2U/uT0wfTXeA/s3BRtvEZ1Lq8RIECAwPoCbf/8n2WOU50X710/UstrRP1FPM2k8bYkToMBeyK99lw4jf6O9IzgTm45KOMxAQIE2i3Qxs//aROnWH41t14PizpxCpV/6rUrvZffGt+MNiZO41vrHQIECBAg0CyBaRKnJn2XRzfHabg7dG3SeNb+p59+uvfwww/3b08++WS+33FmhbonQIAAgegFfv7zn69+5n/jG99YfRx9xeeoYN1nAZ+jyvH8qm69yjcpG12vLdO8/+tf/zrZvn17//byyy9Ps4l1CBAgQKAFAocPH06OHTvWC7dHH320BS0a3YQd6bTdqi/QO7oms70a/YjTYHNC8jTtD9AGt2vi4zNnzjSx2upMgAABAgTWFQjf57u3LkQ/XWhUQxqVOIUGhOw0XKum7csbb7zR9iZqHwECBAh0TKCJh+aGQ9S4xCk0IJxpPAzxWQgQIECAQNsEbr311rY1qd+eph6aGw7GpuEXmvK8qUN8TfFVTwIECBCoR+CZZ55J0gni/Z1v27atnkoUvNc2zVNu5IhTwfFUHAECBAgQiEbg1VdfTU6ePNm/RVOpHBVp20BHY0eccsSwEZueOnUqWVpa6tf1vvvua0SdVZIAAQIECLRdQOIUaYRD4nT8+PF+7Xbv3h1pLVWLAAECBAh0S8ChugbE+/z58w2opSoSIECAQBECe/bsKaIYZZQkIHEqCVaxBAgQIEBgHoFw8mNLvAISp3hjo2YECBAgQIBAZALmOEUWENUhQIAAgW4LbN26NVlcXOwj/OEPf+g2RoStN+IUYVBUiQABAgS6K7Bly5Z+4pQlT92ViLPlRpzijEv/4r4mCEYaHNUiQIBAiQIf+MAHSixd0XkFJE55BUvaPiRNX/va1/qlHz16tKS9KJYAAQIEYhN4xzveEVuV1GdAwKG6AQwPCRAgQIBA3QK9Xq/uKtj/BAGJ0wScWN46duxYLFVRDwIECBAg0GkBiVOnw6/xBAgQIECAwCwC5jjNolXhuqdPn65wb3ZFgAABArEI7N+/fyH9RZ3jdbEEZKgeEqchEE8JECBAgEDdAtlF3vfu3Vt3Vex/SMChuiEQTwkQIECAAAECBJonEIZp+7f0Lw5Dts2LnxoTIEAgj4DP/zx6JW5rxKlEXEUTIECAAAEC7RKQODUgnk888UQDaqmKBAgQIFCUgLlNRUkWX47EqXjTwks8f/584WUqkAABAgQIEJhdwK/qZjezBQECBAgQKFVg165dySuvvFLqPhROoG0Cq5PD04aZHN626GoPAQIEJgikV4zohZsfB01Aqukth+pqgrdbAgQIECBAoHkCDtVFGrN77rknCbewHDx4MNJaqhYBAgQIEOiWgBGnCON94sSJ3k033ZTs2bOnf4uwiqpEgAABAhUI+FV1Bcgz7kLiNCNYFauP+hXd0aNHzXOqAt8+CBAgEJHAqO+DiKrXyapInDoZdo0mQIAAAQIE5hGQOM2jZhsCBAgQIECgkwImh3cy7BpNgAABAjELHDp0KDl+/HjMVexs3Yw4dTb0Gk6AAAECTRAwxzWuKBlxiiseq7U5efJksrS0tPrcAwIECBAgQKB+AYlT/TEYWYOQOIVbtqRnkM0euidAgACBlgs4DUG8AXaoLt7YqBkBAgQIdFTAaQjiDbzEKd7YqBkBAgQIEFhz9AFH/QISp/pjMLEG27Ztm/i+NwkQIECg3QJGn+KKr8Qprnj0azM4tylcdsVCgAABAt0SOHz4cBJulvgETA6PLybJqL8uRr0WYdVViQABAgQKEPBHcwGIJRUhcSoJNm+x2QV+d+3a1T8J2uAoVN6ybU+AAAECzRHwh3NcsZI4xRWP1dqExGlxcXH1uQcECBAg0E0BfzjHFXdznOKKh9oQIECAAAECEQtInCIOjqoRIECAAAECcQlInOKKh9oQIECAAAECEQuY4xRxcAar5vT7gxoeEyBAoN0Cg9cq9fkfV6wlTnHFY2xt/KpiLI03CBAg0DqBwcTJ539c4ZU4xRWP1dqcOXMmOXXqVOLM4askHhAgQIAAgdoFJE61h+DaCoS/Lh555JHk9ddfd0qCa3m8QoAAAQIEahMwObw2+vE7HjxnRzgBpoUAAQIECBCIQ0DiFEccpqrFiRMnelOtaCUCBAgQaJXA0aNHff5HElGJUySBmKYaJghOo2QdAgQINFtAkhR3/CROccdH7QgQIECggwLhklsuuxVn4CVOccalX6vt27cn4WYhQIAAgW4JDCdOjjjEE3+JUzyxuKYm4UK/4WYhQIAAgW4LDP5oqNsS9bde4lR/DEbWIPy1sX///uT48eOr74fzOlkIECBAgACB+gQkTvXZz7xnidPMZDYgQIAAAQKFCkicCuUsprDBUaZiSlQKAQIECDRZwByneKIncYonFmNr4rIrY2m8QYAAgU4ImOMUT5glTvHEYmxNTBAfS+MNAgQItFIgJErh5g/n+MLrWnXxxWRsjfzFMZbGGwQIEGiVwMGDB/vtue+++5Lvf//7rWpb0xtjxKlBEXSMu0HBUlUCBAgUIOB6pQUgFlyExKlg0KKKe+SRR5Jer5fs27dvoagylUOAAAECzRTwo6F44iZxiicWa2py5syZ1efmOK1SeECAAAECBGoVkDjVyj/dzl12ZTonaxEgQKANAoPTMnz+xxdRiVN8MRlbI0O1Y2m8QYAAgdYIDP4QyBGH+MIqcYosJkePHu1FViXVIUCAAIEIBE6cOOH7IYI4qEKEAocOHeodOXJk9T/ID37wg/A4u0VYY1UiQIAAgTIEnnzyyeyzv+cP6zKEldlqgR//+MeryVSrG6pxBAgQILBGIHz+P/74474D1qjU88RP3etxn7jX31243Dt3aSHZsamXfGzrRjGaqOXNtgno/22LqPbMIqD/z6JVz7q+lOtxv2avh09f6h186UqSXEhvw8vWDcnhmzckB3duEq9hG89bIaD/tyKMGjGngP4/J1xNm/kirgk+223/P8zzl5Pk4hQjsNctJEu3b0oWbzYKlfm5b7aA/t/s+Kl9PgH9P59fXVtLnOqST/d74OmLvYf+mCZNMy4H3r8xeeiONIuyEGiwgP7f4OCpem4B/T83YW0F+PKtiX7e/zRZdSVPmYT7Jgro/02MmjoXJaD/FyVZTznO41SDexienWekabCqYfully5PcXxvcCuPCdQvoP/XHwM1qE9A/6/Pvqg9G3EqSnKWcn7xZm+qOU3rlRmO1n32bWK4npP34xLQ/+OKh9pUK6D/V+tdwt42lVCmIicI9CcD/v7ShDVmeCudUN4vz6/tZkCzap0C+n89+seOHat0dDpca23wsiH1tLqcvYZrx816GZR9+/b1/8DV/8uJSdWlGq2oWvzxt3ojTzkwbz3SUxUkd18vjvP62a5agRL7/1NPPdV7+eWX52pPmljMtd3gRqdOnUrCLe8SEo7Bi7zmLc/29Qrce++9ycMPP7z8GV1i/6+3ld3auxGnquM96jxNeepQdHl56mLbpOq/7Mv+ki0iGVhcXEzS2/IXR9H9daC8H/7wh8m3vvUtvZBAVAJhdCpNnJbrNNBfC6lk0eUVUqn2FyJxqjDGx89e6e39zVuF7zGcaTacYXxpaamX3govP8YCi/hCL6Nd6ZB8GcU2uszMpOz+32ikHJUPX8zh8NG0y6yH0Xbt2pWEWyxLrP/31/PR/9cTas77EqfmxGpsTcPlWbJl+JDDPffck4TbqOW5555Lvvvd7456q//a4cOHx74Xtgvbj1om7fORRx5Jwm3UcssttyRf+cpXRr3Vf+3gwYNj3wvbhe1HLZP2OamufJJ+38nbf/7+7/++1JGgrP9/9KMfTSb1Wf1nvv9fIVH53Oc+5//XnJ8/d9xxx6iPpcJey/p/YQUqaF0BidO6RPGvsD29pl1Ywgfc8HLTTTfNPJExK2PSBMgtW7Zkq11zP2mfkyaMhjIn7fOaHQ28EJKmcdtO2uekug4UP/LhuP2Flfkkq/FIvziuZvYjJfO9mPX/v/zlL6v7nLXEGPvP7t27R44kffKTnxzbznPnziWvv/76yOaHUaNJfXbv3r0jtwsvfuITnxg76jRpn5PqunPnzuRd73rX2H1OquuXv/zlsfPAQjs/9KEPjSx327ZtSajTqGW9Sd9Hjx4dtdnqawsLo7t5NjF8dcWCH2T9v+BiFTdBYHSkJ2zgrZwC//JG8b9u+YfN/Tim8zt6w3M8wofPuA+gM2fOjB39Ca0Mc1PGLWEUJ2w/apm0z5DEjEtkQhIzbnQj7GfSYciwXdh+1DJpn5PqOsknfOhP8gn7HDfBN3ywh9uoZdxhiFDP0L5xbQxljUqcs32E7TZv3pw9XXMf6jmuruHLZPAw0Lh6rylw6Mn+/fuvfs6U2P+HduspgfgE9P/4YjJHja5+oM2xsU3mECjxVxXprzd6q5MQ06qFL/d5vuhGtSp8cQ9+gY5aZ5bXQr2Kqtvwftd8UQ+/6Xm9AiX2/3obZu8EphDQ/6dAin8ViVPFMSr0PB5p3Q+nF/096DxOFUfR7uYV0P/nlbNdGwT0/zZEMUkkTnXE0Zlj61C3z1gE9P9YIqEedQjo/3WoF7pP16orlHO6wo7cVsyc/KLKma7W1iJQjEBR/baocopplVIITCdQVL8tqpzpam2tQQGJ06BGRY/vf9/GhQPv35hrb2H7UE6uQmxMoAYB/b8GdLuMRkD/jyYUc1fEF+/cdPk3PPD0xd5Df7w8c0EhaXrojnCFXwuB5gro/82NnZrnF9D/8xvWVYIv37rkV/Z75MXLvfufSS/6m16wd90lzZXC8KyRpnWlrNAQAf2/IYFSzVIE9P9SWEsvVOJUOvF0O3jw9KXeAy9dSUZeADi9kO+DN29IHvDruekwrdU4Af2/cSFT4QIF9P8CMSsoSuJUAfKsu3givfZcOI3+jvSM4LvTa9DNur31CTRZQP9vcvTUPa+A/p9X0PYECBAgQIAAAQIECBAgQIAAAQIECBAgQIAAAQIECBAgQIAAAQIECBAgQIAAAQIECBAgQIAAAQIECBAgQIAAAQIECBAgQIAAAQIECBAgQIAAAQIECBAgQIAAAQIEGi7grNQND6DqE2i6wLGzV6a4UONyK/fduMFnVtMDrv4EGi6woeH1V30CBAgQIECAQGUCEqfKqO2IAAECBAgQaLqAxKnpEVR/AgQIECBAoDIBiVNl1HZEgAABAgQINF1A4tT0CKo/AQIECBAgUJmAxKkyajsiQIAAAQIEmi4gcWp6BNWfAAECBAgQqExA4lQZtR0RIECAAAECTReQODU9gupPgAABAgQIVCYgcaqM2o4IECBAgACBpgtInJoeQfUnQIAAAQIEKhOQOFVGbUcECBAgQIBA0wUkTk2PoPoTIECAAAEClQlInCqjtiMCBAgQIECg6QISp6ZHUP0JECBAgACBygQkTpVR2xEBAgQIECDQdAGJU9MjqP4ECBAgQIBAZQISp8qo7YgAAQIECBBouoDEqekRVH8CBAgQIECgMgGJU2XUdkSAAAECBAg0XUDi1PQIqj8BAgQIECBQmYDEqTJqOyJAgAABAgSaLiBxanoE1Z8AAQIECBCoTEDiVBm1HREgQIAAAQJNF5A4NT2C6k+AAAECBAhUJiBxqozajggQIECAAIGmC0icmh5B9SdAgAABAgQqE5A4VUZtRwQIECBAgEDTBSROTY+g+hMgQIAAAQKVCUicKqO2IwIEhgWeuNDrDb826fms608qy3sECBCYR2Bhno1sQ4AAgUkCIcE5d2mmnGhScXO/tzn90/BT2zf4nJtb0IYECAwLGHEaFvGcAIHcAru3LixcF0G6ImnKHUoFECAwJCBxGgLxlACBYgQ+vaPekZ59N9a7/2IUlUKAQGwCEqfYIqI+BFoksGNTPcNO776+RYiaQoBAVAISp6jCoTIE2iVQxyG7MK/pzi1Gm9rVk7SGQDwCEqd4YqEmBFopUPUhO/OaWtmNNIpANAISp2hCoSIE2itQ1SE785ra24e0jEAsAhKnWCKhHgRaLFDFITtJU4s7kKYRiEhA4hRRMFSFQJsFyjxkt2Vjm+W0jQCBmAQkTjFFQ10ItFygjEN24XxRn9hmMnjLu47mEYhGQOIUTShUhED7Bco4ZFfmSFb7I6KFBAjMKiBxmlXM+gQI5BIoMtExrylXKGxMgMAcAhKnOdBsQoBAPoEiDtmZ15QvBrYmQGA+AYnTfG62IkAgh0DeQ3bmNeXAtykBArkEJE65+GxMgMC8AnkO2eXZdt762o4AAQJBQOKkHxAgUJvAPIfszGuqLVx2TIBAKiBx0g0IEKhNYNZDduY11RYqOyZAYEVA4qQrECBQq8C0h93Ma6o1THZOgMCKgMRJVyBAoHaBaQ7ZTZtg1d4YFSBAoNUCEqdWh1fjCDRDYL1DduY1NSOOakmgCwISpy5EWRsJNEBg3IiSeU0NCJ4qEuiQgMSpQ8HWVAKxCwwfsjOvKfaIqR+B7glInLoXcy0mEK3A8CG7caNQ0TZAxQgQIECAAAECVQscO3ulV/U+7Y8AAQIECBAgQIAAAQIECBAgQIAAAQIECBAgQIAAAQIECBAgQIAAAQIECBAgQIAAAQIECBAgQIAAAQIECBAgQIAAAQIECBAgQIAAAQIECBAgQIAAAQIECBAgQIAAAQIECBAgQIAAAQIECBAgQIAAAQIECBAgQIAAAQIECBAgQIAAAQIECBAgQIAAAQIECBAgQIAAAQIECBAgQIAAAQIECBAgQIAAAQIECBAgQIAAAQIECBAgQIAAAQIECBAgQIAAAQIECBAgQIAAAQIECBAgQIAAAQIECBAgQIAAAQIECBAgQIAAAQIECBAgQIAAAQIECBAgQIAAAQIECBAgQIAAAQIECBAgQIAAAQIECBAgQIAAAQIECBAgQIAAAQIECBAgQIAAAQIECBAgQIAAAQIECBAgQIAAAQIECDRL4P8DEZp+x/J8LU0AAAAASUVORK5CYII=;" parent="1" vertex="1">
                    <mxGeometry x="294" y="17" width="237.48" height="161" as="geometry"/>
                </mxCell>
                <mxCell id="AhNlXJ4hRKMXUMh4VS_F-36" value="Check if your diagram was saved" style="text;html=1;align=center;verticalAlign=middle;resizable=0;points=[];autosize=1;strokeColor=none;sketch=1;hachureGap=4;pointerEvents=0;fontFamily=Architects Daughter;fontSource=https%3A%2F%2Ffonts.googleapis.com%2Fcss%3Ffamily%3DArchitects%2BDaughter;fontSize=20;" parent="1" vertex="1">
                    <mxGeometry x="286" y="-162" width="327" height="28" as="geometry"/>
                </mxCell>
                <mxCell id="AhNlXJ4hRKMXUMh4VS_F-37" value="" style="edgeStyle=none;curved=1;rounded=0;sketch=1;orthogonalLoop=1;jettySize=auto;html=1;endArrow=open;sourcePerimeterSpacing=8;targetPerimeterSpacing=8;fontSize=16;fontFamily=Architects Daughter;fontSource=https%3A%2F%2Ffonts.googleapis.com%2Fcss%3Ffamily%3DArchitects%2BDaughter;startSize=14;endSize=14;exitX=1.009;exitY=0.464;exitDx=0;exitDy=0;exitPerimeter=0;" parent="1" source="AhNlXJ4hRKMXUMh4VS_F-36" edge="1">
                    <mxGeometry width="120" relative="1" as="geometry">
                        <mxPoint x="145" y="246" as="sourcePoint"/>
                        <mxPoint x="813" y="-149" as="targetPoint"/>
                        <Array as="points"/>
                    </mxGeometry>
                </mxCell>
                <mxCell id="AhNlXJ4hRKMXUMh4VS_F-39" value="" style="edgeStyle=none;curved=1;rounded=0;sketch=1;orthogonalLoop=1;jettySize=auto;html=1;endArrow=open;sourcePerimeterSpacing=8;targetPerimeterSpacing=8;fontSize=16;fontFamily=Architects Daughter;fontSource=https%3A%2F%2Ffonts.googleapis.com%2Fcss%3Ffamily%3DArchitects%2BDaughter;startSize=14;endSize=14;exitX=0.219;exitY=0;exitDx=0;exitDy=0;exitPerimeter=0;" parent="1" source="AhNlXJ4hRKMXUMh4VS_F-26" edge="1">
                    <mxGeometry width="120" relative="1" as="geometry">
                        <mxPoint x="145" y="246" as="sourcePoint"/>
                        <mxPoint x="884" y="-101" as="targetPoint"/>
                        <Array as="points">
                            <mxPoint x="804" y="-93"/>
                        </Array>
                    </mxGeometry>
                </mxCell>
                <mxCell id="AhNlXJ4hRKMXUMh4VS_F-40" value="Hover to see tips" style="text;html=1;align=center;verticalAlign=middle;resizable=0;points=[];autosize=1;strokeColor=none;sketch=1;hachureGap=4;pointerEvents=0;fontFamily=Architects Daughter;fontSource=https%3A%2F%2Ffonts.googleapis.com%2Fcss%3Ffamily%3DArchitects%2BDaughter;fontSize=20;" parent="1" vertex="1">
                    <mxGeometry x="-564" y="573" width="173" height="28" as="geometry"/>
                </mxCell>
                <mxCell id="AhNlXJ4hRKMXUMh4VS_F-41" value="" style="edgeStyle=none;curved=1;rounded=0;sketch=1;orthogonalLoop=1;jettySize=auto;html=1;endArrow=open;sourcePerimeterSpacing=8;targetPerimeterSpacing=8;fontSize=16;fontFamily=Architects Daughter;fontSource=https%3A%2F%2Ffonts.googleapis.com%2Fcss%3Ffamily%3DArchitects%2BDaughter;startSize=14;endSize=14;exitX=0.497;exitY=-0.071;exitDx=0;exitDy=0;exitPerimeter=0;" parent="1" source="AhNlXJ4hRKMXUMh4VS_F-40" edge="1">
                    <mxGeometry width="120" relative="1" as="geometry">
                        <mxPoint x="145" y="246" as="sourcePoint"/>
                        <mxPoint x="-493" y="492" as="targetPoint"/>
                        <Array as="points">
                            <mxPoint x="-464" y="535"/>
                        </Array>
                    </mxGeometry>
                </mxCell>
                <mxCell id="-lLK8x3hQrBcMN-jiT6f-1" value="diagrams.net sketch/board editor theme tutorial" style="text;html=1;align=center;verticalAlign=middle;resizable=0;points=[];autosize=1;strokeColor=#666666;sketch=1;hachureGap=4;pointerEvents=0;fontFamily=Architects Daughter;fontSource=https%3A%2F%2Ffonts.googleapis.com%2Fcss%3Ffamily%3DArchitects%2BDaughter;fontSize=20;fillColor=#f5f5f5;fontColor=#333333;" parent="1" vertex="1">
                    <mxGeometry x="-379" y="-165" width="456" height="28" as="geometry"/>
                </mxCell>
                <mxCell id="2" value="" style="shape=image;verticalLabelPosition=bottom;labelBackgroundColor=#ffffff;verticalAlign=top;aspect=fixed;imageAspect=0;image=data:image/png,iVBORw0KGgoAAAANSUhEUgAAAygAAANECAYAAABbwgvQAAAAAXNSR0IArs4c6QAAAHhlWElmTU0AKgAAAAgABAEaAAUAAAABAAAAPgEbAAUAAAABAAAARgEoAAMAAAABAAIAAIdpAAQAAAABAAAATgAAAAAAAACQAAAAAQAAAJAAAAABAAOgAQADAAAAAQABAACgAgAEAAAAAQAAAyigAwAEAAAAAQAAA0QAAAAAmLvrjQAAAAlwSFlzAAAWJQAAFiUBSVIk8AAAQABJREFUeAHsnQeY3cT1t8derztgm+aCAdObTTEYjClLMb0FjAFTQk+Af0IIoSQQQigBAknopsP3hF5MLwaMFwiYZgymN2Mw3Q1wL7v+9Bt2ZF2tbpd2b3nP89yVNBqNRq+0Gp0558y0WeKJQSAAAQhAAAIQgAAEIAABCJQAgbYlUAeqAAEIQAACEIAABCAAAQhAwBJAQeFBgAAEIAABCEAAAhCAAARKhgAKSsncCioCAQhAAAIQgAAEIAABCKCg8AxAAAIQgAAEIAABCEAAAiVDAAWlZG4FFYEABCAAAQhAAAIQgAAEUFB4BiAAAQhAAAIQgAAEIACBkiGAglIyt4KKQAACEIAABCAAAQhAAAIoKDwDEIAABCAAAQhAAAIQgEDJEEBBKZlbQUUgAAEIQAACEIAABCAAARQUngEIQAACEIAABCAAAQhAoGQIoKCUzK2gIhCAAAQgAAEIQAACEIAACgrPAAQgAAEIQAACEIAABCBQMgRQUErmVlARCEAAAhCAAAQgAAEIQAAFhWcAAhCAAAQgAAEIQAACECgZAigoJXMrqAgEIAABCEAAAhCAAAQggILCMwABCEAAAhCAAAQgAAEIlAwBFJSSuRVUBAIQgAAEIAABCEAAAhBAQeEZgAAEIFAmBP7w+jwzv2FJmdSWakIAAhCAAAQKI4CCUhg3joIABCDQ4gRGT1tsho6dg5LS4uQ5IQQgAAEItCQBFJSWpM25IAABCBRJYNqiJeZP47GkFImRwyEAAQhAoIQJoKCU8M2hahCAAASiCPxvRgNKShQY0iAAAQhAoCIIoKBUxG3kIiAAgUonsLBxaezJAm8VJaXS7zjXBwEIQKB6CbRZ4kn1Xj5XDgEIQKB0CSge/vVpDebxrxaZJ39YZOY0pta1QxtjtulRYy4b2Ml0rPE2EAhAAAIQgEAFEEBBqYCbyCVAAAKVR2DijEZzzsR5ZtL8RiPjSUOaS7RKSndPSdkcJSUNIpIhAAEIQKDMCODiVWY3jOpCAAKVT+DuSYvMiFfnWOXEi4lPq5yIhNy9xngxKU99vbjywXCFEIAABCBQFQRQUKriNnOREIBAuRC4Y9JCc8FH861SIuVE0inDm7rG2/9//TqYfVettXn1552ZIV8wfw8rEIAABCAAgdInkKHZK/3KU0MIQAAClUTgvR8bzT8+WeBbTOS+Vev99lyp1ty1Zedml2qVkzXbm5PWa29cBMo1Hy40w1+Zg5LSjBYJEIAABCBQLgTalUtFqScEIACBSiaggPi/TZxvaryl7B9STJb3/lztxZasv5xUkVRRyilrdTDHrN3e33HtRwvMyM8X2u2/vTPP3LdtF0PsvI+HFQhAAAIQKBMCWFDK5EZRTQhAoLIJPPvNIvPBvAbj3LoUGH/5Zp0jlROROH2dVOXka2+Ir2smL/StLx/NazTPeWUiEIAABCAAgXIjgIJSbneM+kIAAhVJ4O4vlioTcu36dd/2pn/36Ff02et2MEd4rl1B6dOlrTnGO0bHOrnnSwLnHQuWEIAABCBQPgSiW7/yqT81hQAEIFD2BH7yvLJe+anBNDbFti/2rCeHrZGqgLiLPNlLPzTNvhGrt7ejeimvynrlx8VmrgpDIAABCEAAAmVEAAWljG4WVYUABCqTwKTZqbOcbNClxvTqHDCFNF32hRt0NL/1rCfppKd3zAadl77WVerk2Sgo6XiRDgEIQAACpUmAIPnSvC/UCgIQqCICs1zgSdM1r9F1qZIRxLD/akuHEg6mB9fPHdDJzFiwdJjhlTs2V3SC+VmHAAQgAAEIlBqB6Faw1GpJfSAAAQhAAAIQgAAEIACBqiCABaUqbjMXCQEIlDKBZTSmcEAmzV5qAQkk57R67sR55v25S49/YHAXszxWlJzYkQkCEIAABEqDABaU0rgP1AICEKhiAv26ps5z8v6cBvPt3PxjR77zjgkqJyp19a6pyk8VY+bSIQABCECgTAigoJTJjaKaEIBA5RLo5g3YtZU3GaNTU9p5OsXtk36ZcDGfq77bmwfFDTPc1nu7b9WtnemswhAIQAACEIBAGRFAQSmjm0VVIQCByiVwsBcAv6TpjbzAM578vykLzTszl7pqZbtyTdR4y5cL/WGGlf+gVfHizcaN/RCAAAQgUHoEUFBK755QIwhAoAoJ7Ny71qzbqa1x4ShtPcPHH96caz7w5kfJJpO9mJXe3kSNv1m9g2+FUVk7emUiEIAABCAAgXIjgIJSbneM+kIAAhVJoMZTSM7r38k0NHlkaeTh6d6fg8bNNX+dMN+8NaO5ovLej43mL96+3V+cY679cKE5cb325oR+v8yT8nevLJWJQAACEIAABMqNQJslnpRbpakvBCAAgUolcIcXe3LRRwtMUB3xjCFmnufttXrHtubSTToZvbRPf2uemTy/0bh9il/5rWdBOWn99uZdzzWsf3f6nyr1GeG6IAABCFQ6AVqwSr/DXB8EIFBWBA5do705e92O1lXLuXtJOZFIIZnuTcKoiRi1LnH7pNBcM3mBeduztKCcWDT8gQAEIACBMiWAglKmN45qQwAClUvg4DVqzZ1bdjFreBYTKSludK+oK9aoXRqxq2+Htua/W3Q2m/TIlDuqBNIgAAEIQAACpUWAIV5K635QGwhAAAKWwIAebc0D23cxr09rMI99tcg89cMi4w3UlSLLe0MI77FyrdmhZzszcIW2pr0i6xEIQAACEIBAmRMgBqXMbyDVhwAEqoPAwsYlZtKsRrOiZylp4+khMxYuMWt0bWvQSarj/nOVEIAABKqJAApKNd1trhUCEIAABCAAAQhAAAIlToAYlBK/QVQPAhCAAAQgAAEIQAAC1UQgFgXF8zxIEbki6BeUhtTN4C7WIVAUgdCjZp89nr+ikHJwHgR4/vKARVYIQAACEIBADgRiCZJXA/38d4vN69MbzISZDWaKN/ylNJ8+3gg0m3WvMQOXrzFDVqoxNcwalsMtIUu+BHj+8iVG/jgJ8PzFSZOyIAABCEAAAsYUHIOiRlnBmW94I8w8+OUiM+r7RRl5HtCz1uzbt9ZssUKNkTUFXSUjLnZmIcDzlwUQuxMlwPOXKF4KhwAEIACBKidQsIIibs9+s9iM/GSBeX9uaOzLNFD7d6kxx69Va3buXZsmB8kQyJ0Az1/urMgZPwGev/iZUiIEIAABCEBABAqOQZHlJB/lRCd7Z06DueHTRXZcf20jECiUAM9foeQ4Lg4CPH9xUKQMCEAAAhCAQDSBvBUUuTYs9gwmcuvK1XISPLWUlIenLDILPD8vAueDZFjPhQDPXy6UyJMUAZ6/pMhSLgQgAAEIQGApgbwVFMWdvPj94qwxJ0tP0Xztge8WmZd+aCAOpTkaUrIQ4PnLAojdiRLg+UsUL4VDAAIQgAAELIG8FRQdpdG6ipXxMZRRbB04vjwJ8PyV532rlFrz/FXKneQ6IAABCECgVAkUpKBoKOFi5c0Yyii2DhxfngR4/srzvlVKrXn+KuVOch0QgAAEIFCqBPJWUDQBnuY5KVa+9soIT6ZXbJkcX/kEeP4q/x6X8hXy/JXy3aFuEIAABCBQKQQKmqgxb60mglYbL5ZFAac///yzWXnllc38+fNNfX19RE5jRo0aZdq3b9/st/nmm0fmnzNnTrO8On769OmR+bfZZhtvEsmaZvuef/75ZmlK2H777SPTyf8LliT4tG3b1my99dZmiTfwXFzP3xLv+WtoaDAvv/yyaWxcqnQnUf/gA1Mp5S/xAIqffosXLzZvvPFG8DL99T59+vh5lM/lnzdvnp8nuPLjjz/6eVxeLfv16xfM5q/ffffdZu7cuUblBZcXX3yxnye4UldXF9z019O9f5S/Y8eO5ocffjDtO3eN9fnzT84KBCAAAQhAAAI+gbwVlPZelKhmiJ86uzg3L5XR0Zut8Suv0ZdykkmuvPLKyN3pPij23HPPvPK3a9fOKiha6ldbW2uX999/f2Q5AwcO9PME85955pmR+Q899FDTxtPI9JGtn1s/4ogjIvOffPLJfp7gMXvssUdk/vPPPz+lXHeOQYMGReYfOXJkZP411lgjMv99990XmX/ZZZeNzD927Nhm+fUxm05Gjx5ttF9Kgn5uvVu3bv4hSl+4cKHp1KlTbM9fB+/5mzdvYYpyohP+9a9/TamHq9Nee+3l1ye4csIJJzSru4456qijgtn89QMPPDAy/2mnnebnCa7ssMMOkfkvueSSYDZ/faONNvIZurprefPNN/t5git6HqMk3f9XvvnXXnvtqOJNuvL322+/vPJfd911kfnjTNQ7SgrKmmsuE+vzF2cdKQsCEIAABCBQKQQKmqjx0ncXmFumLCyKwdF925vTNupg9HF6+OGHm6lTpxZVHgdXPoF7773X6OM+zudPytfw4cMrHx5XaAlIuercubNVdLUMrkv5DW4H17Vv2LBhZq211or1+eO2QAACEIAABCDQnEDeFhQVMXD5Gk9BaV5YPikqQ7LrrrvansnwsepFl7vG7Nmz7U9uW249n2X4OPXCI+VJYNy4cVZBifP5e+WVV8oTRoy1lhWwQ4cOKT+5RIbTorZlbVReLcPr4e1C8oXL0HY6C06MSDIWFefzl/FE7IQABCAAAQhUKYG8FRRNrjhkpRpzQM9ao/lMCpFh3rGDvTIaPLf/mjQBBfoI6dKli/0pRiUuWbRokVV8pPwE/dXddnDpfNpdmrbl6qFfcD3TtnzukXgIjBkzxkz6fLIZvErfop+/QT2M+eSzSea5556LrFzQdS+4rg9kbUelZdqXLr+OCf5cvmCaKzecVmh65AWTmBOBlnr/5VQZMkEAAhCAAAQqlEDeCorntu/Fa7Qx+/atNR/PajSaGT4f2aRrjdl7lVrTSQW1guijbrnllrO/lji9i6dQkK/iANwvuB1c1/58tvPJGy4712PFycXCuPiW4LZbl1Lp1t0yKk37Ck3v2sVzz6mt8Z4/U9Tz17VDjVl91b42QD6qPi3xbHCO8iNQ7u+/8iNOjSEAAQhAoBoJFBSD4kA9+80ic8Oni3JWUqScHL1GrRnap9YbjcmY1lFRXO1ZljsBnr9yv4PlXX+ev/K+f9QeAhCAAARKl0DBCopcHdSb+Pq0BvPwlEVZ3b3k1iXLyaAVPdeupmNLFws1K3UC7hni+Sv1O1WZ9eP5q8z7ylVBAAIQgEBpEChYQQlWf4HXWr/0Q4MZP73BaIZ4TcKokUs1lPCm3WpsUL1iTuTWheUkSI71OAjw/MVBkTIKJcDzVyg5joMABCAAAQhEE4hFQXG9ie4Umm1Z015ongknmQLiXR6WECiEAM9fIdQ4Ji4CPH9xkaQcCEAAAhCAwC8E0oyhlR+egB5iD9Rkju1Mox3pys3enm60rvzORG4INCcQ9fwFlWMdwfPXnBsp8RCIev7c+0/z7Eh4/uJhTSkQgAAEIFAdBPIexStXLC+//LIdsUr5t99++1wPIx8EIACBsiew9dZbm9dee81eh0byQyAAAQhAAAIQyJ1ALBaUqNNpSFsJEyNG0SENAhCoZAIrrLBCJV8e1wYBCEAAAhBIlEBiCkpdXZ3RTxMjIhCAAASqiUCvXr38y8WC4qNgBQIQgAAEIJATgcQUFHd2FBRHgiUEIFAtBLp27epf6s8//+yvswIBCEAAAhCAQHYCKCjZGZEDAhCAQF4EOnbs6OefOXOmv84KBCAAAQhAAALZCSSuoCxevDh7LcgBAQhAoIIIdOjQwb+aGTNm+OusQAACEIAABCCQnUDiCgouXtlvAjkgAIHKIrDjjjua+vp6e1FYUCrr3nI1EIAABCCQPIHEFRQsKMnfRM4AAQiULgEUlNK9N9QMAhCAAARKk0Bi86C43sOPPvqoNK+cWkEAAhBoAQI//vhjC5yFU0AAAhCAAAQqhwAWlMq5l1wJBCBQggRQUErwplAlCEAAAhAoaQIoKCV9e6gcBCBQ7gRQUMr9DlJ/CEAAAhBoaQIoKC1NnPNBAAJVRQAFpapuNxcLAQhAAAIxEEBBiQEiRUAAAhAIEpg6daqpq6uzST/99FNwF+sQgAAEIAABCGQhkLiC0tDQkKUK7IYABCBQWQTat2/vXxAKio+CFQhAAAIQgEBOBBJTUNR7qB/DDOd0H8gEAQhUEAEUlAq6mVwKBCAAAQi0OIHEFBR3JVhQHAmWEIBAtRCora31LxULio+CFQhAAAIQgEBOBBJXULCg5HQfyAQBCFQQgaAF5eeff66gK+NSIAABCEAAAskTSFxBwYKS/E3kDBCAQGkRCFpQUFBK695QGwhAAAIQKH0CKCilf4+oIQQgUGYEFixYYOrr622tZ82aVWa1p7oQgAAEIACB1iWAgtK6/Dk7BCBQ4QQWLlxopLAgEIAABCAAAQjkRiAxBUW9h/o1NjbmVhNyQQACEKhQAlhRKvTGclkQgAAEIJAIgcQUFFdbYlAcCZYQgEC1EkBBqdY7z3VDAAIQgEAhBBJXULCgFHJbOAYCEKgkArNnz66ky+FaIAABCEAAAokSSFxBwYKS6P2jcAhAoAwIoKCUwU2iihCAAAQgUDIE2iVdEywoSROmfAhAoNQIrLfeeqZnz55+tVBQfBSsQAACEIAABLISSNyCgoKS9R6QAQIQqDAC7dql9v3MmTOnwq6Qy4EABCAAAQgkRyAxBaWurs7oh4KS3M2jZAhAoDQJoKCU5n2hVhCAAAQgUB4EElNQ3OWjoDgSLCEAgWohgIJSLXea64QABCAAgSQIJK6gLFmyJIl6UyYEIACBkiVQU1OTUjdcvFJwsAEBCEAAAhDISCDVUTpj1sJ2YkEpjFs1H4VSW813vzKuPUpB4bmujHvLVUAAAhCAQCqBNm3apCbEsIUFJQaIFFE8AX28uV/xpVECBFqXwEsvvWTGjh3rV2LevHn+OisQgAAEIACBSiLgvt/i7IjDglJJT0iZXUuuD3JO+RLQ3ssMJ9UtJQLueWxazpk71+DsWko3iLpAAAIQgEAkgRxCMzJZTILfbJnyRZ47kJiYglJfX29Pc/311wdOx2o1Ewg+tFEc/P1NH3V5GQxz+IeKOidpEEiEQNPz6J7h+bKg8IwmgppCIQABCECgdQj4HW+uzXOdc03V8b/rmrbzUVgSU1AcqnDlXDrL6iKQ7jmw6U4h8ZZ2u+lB9x98D1W646uLIldbLgTCz6tcvMJp5XIt1BMCEIAABCDgCEjJiGrPbLrL5H3HRSkjOi4q3R0WXKKgBGmwngiBqAfZpkkx8X7qZdZ2NoUkqpxEKkyhECiSQPhZnSsXrybFu8iiORwCEIAABCDQKgSilBOncLg2zuaREqMaRigkyueOyXQRiSsomU7Ovson4B5Yd6V2W0qJHt6mDzY9xG5d+Zqte3nD4lKCecN52IZAaxNwL+EFCxakPNetXS/ODwEIQAACEMhEwLVfkZ3HASVD32Eub7g8+62nxFCeTMe4MhJXUPiAdKirbxm+93rI7cPqPajplBL/H8HL42RJY6Nb9ZdL96YqNH4GViDQigSGDBlievXq5ddg/vz5hiHXfRysQAACEIBACRNw32rpqpiyv6nD2XUcRx3jFJVgnmxKCgpKFEnSiiYQqZx4pbr04NKuy0rSpJQE96kiQWUkpWIBJSYlnQ0IlAABzSavl7JECop7rkugalQBAhCAAAQgkJaA315FeLDooDZN31+2jfPWnQLirRh1Kmvbprl9bqljA2fVeWwZgTS3mpiCUldXZ89x4IEHunOxrBIC/oPddL1SMPRAKt3t89ebHn5nJfH3O1beMRKXvjQ5rdrisrCEQKsSaNt26TRTWFBa9VZwcghAAAIQKJBAWIGwiofKkjIiBcNbtUt9zzUpHPpCc4qKsjpxx+aipCSmoLjKsKwuAs0UCe/y3cPr9mnp1IugYmLTAgqJnz+E0KUHH/BQFjYh0OoENJu8e7EvXLiwmZLd6hWkAhCAAAQgAIEMBNx3mWvLbNYmpUTrNt11NGvbZvD+BBQVf73p+y5XJQUFxcFkWTQBpzi4gvRgp1VOvAfVKipa6oDwdlPaLwubw+bXtrR2iVLD57Q7+AOBEiDQRhaUpmd1gaegNETEUpVANakCBCAAAQhAoBmBoFLiOpP9tMB3mL7f9FXmlBX37acC7Teg8iqPt3TfbHa9ab/ySbTPL9/bRkGxWPgTNwH3oGnpHki31IOq9Ubv59ZtPj2QXq+zXGNc73PwYY27jpQHgSQJfDVlSpLFUzYEIAABCECg1QjY7zbvO66hocEOArPYWyo2xX63SRnxaiZHZ9ul3KScWMVE335KD6TZhNAfFJQQEDZjIhDQlFWiU0CkkGg0I/t4Btb1ALevrTW13g+BAAQgAAEIQAACEChdAlIw9HPxlm3kKSBlRUqK91O6xmB1615m35Kiq9J3oU1Lc4lLozjTZCAZArkQsA9aU0atW43Z27aKibcdVkjCikr79u1RTnIBTR4IQAACEIAABCBQYgTcd5y+//TNZ4fWb/r+C66770JV3+aVotIkwW/JxBSU+vp6o5+0K6R6CNiHy7vn7gF0Sykkdl0ovHVnRZFfY62nnGhIVgQCEIAABCAAAQhAoDwJ6FuunecJo2+7sJJivw/dt2BgKSuK3Re65MQUlNB52KwiAmGV1PkZuoczqJzIBCjXLgQCEIAABCAAAQhAoLwJ6JtO33bNlJQmpSRsuAh/M7qrT1xBCVfEnZhl5RBI0XzD1hPvMrXf/ty6lp52LT9FLCeV8xxwJRCAAAQgAAEIQEDfdvrGc0pKyjeg0j1E/rehtx2MRVG6BAXFYuBPHAT0UDXThPUg6qcTNK3bpd1cYkfriuPclAEBCEAAAhCAAAQg0PoENBJrpm8/fQcGRd+OTjFx6SgojgTLggikPFAhP8KUfV7p7mG1Sz2c3s+N/lDQyTkIAhCAAAQgAAEIQKCkCNhvu6ZO6eC3X7CSwW9Eu+59QzrRNgqKo8EyNgL2YZQCEnD3kjJiH0AtdaamJS6AsWGnIAhAAAIQgAAEINDqBGzssWoR/Obz1t23oFNI/O/FiBonpqDU1dUZ/fgAjaBeoUlLdd+mC9TD6In+2ofQLb10BcrbYeeUAYEABCAAAQhAAAIQqBgC7jvPKSHBb0F7kU3fiO6Cw9+QiSko7oS48DgS1bm0WnLTpbuHVBq0DYgKPZzVSYirhgAEIAABCEAAAhVGIPCt53//NV1i8Nsw3VUnrqBgQUmHvrLTUx4+7yHVtg2C8i47/KBWNgmuDgIQgAAEIAABCFQfAfe9J+uJ/QaU0qJfk6R8K7rEpmXiCgoWlBDxCt10D6F/eaGAeRePov0u79JH1D+KFQhAAAIQgAAEIACBMiegbzz3vadLscpIKBDeetM0XWcwr5JQUJrAsIiHQPgBS/uANllV4jkrpUAAAhCAAAQgAAEIlAoBq5DIWhLosHbfiMEOapcWrnfiCgouXmHk1buth9A38VUvBq4cAhCAAAQgAAEIVAWBQr/9ElNQ6uvrjX64eFXF88dFQgACEIAABCAAAQhAIBYCiSkoTjHRbJJI9REIDxcnDTpo5hMRm1Z9aLhiCEAAAhCAAAQgUNEEgt94Ud+Auvjwt2IQSLvgRpzrW2+9tVm4cKFZdtll4yyWssqQQPAhVfW1HfQ/LMNLosoQgAAEIAABCEAAAhkI2G+9pg5ql03fgJkUE5cvFgtKY+hrc6GXsNiLv+/UqZPZdNNN7bkaQnlcBVhWCIHAyAy6Il8p0YPpSS4Po83IHwhAAAIQgAAEIACBiiPgfws2fRv634ruSgPfkrFYUKSgPP/dYvP69AYzYWaDmTK/0Q4P1qdjW7NZ9xozcPkaM2SlGlNT41fNVYVlBRMIP3jh7Qq+dC4NAhCAAAQgAAEIQKCJgP0GDCgg2s40kFbBCoqUkraevvHGtAbz4JeLzKjvFzW7CVNnN5i3vN8tU4w5oGet2bdvrdlihRojawq6SjNcJEAAAhCAAAQgAAEIQKDqCRSsoEg5efabxWbkJwvM+3Mbs4J84LtF5uNZjeb4tWrNzr1rs+YnAwQg0LoEZs6caa6//npbicMPP9z06dOndSvE2SEAAQhAAAJlQuCtt94yX3/9tVlhhRXMlltuWSa1Lp1qFqygyHKSq3LiLvedOQ3mhk+NWa59W2tJceksIQCBXwiMHj3aPPbYY5E4amtrzYorrmhWWmkls9lmm5lNNtkko3k0spA8EmfNmmVGjRplj9h9991RUPJgR1YIQAACEGhZAu+8846RUhAl7dq1M8sss4wduGm11VYz+iUtn332mXn33XfNGmusgYJSAOy8FRS5duknt65cLCfhOklJeXjKIjOge1vTzjPD4OoVJsR2NRNQb8urr76aE4JVVlnFHHXUUWbvvffOKX+pZbrtttvMjz/+aPr372922mmnUqse9YEABCAAgTIiIKv/pEmTcqpxjx49zLbbbms7+nI6oMQyffvtt0YKmWT77bc3HTp0KLEaFl+dvBUUuXYpID4q5iTX6sjda8ee7cyOvfI+fa6nIB8EypqA5hE6/vjjU65h3rx55vvvvzfvvfeemTJlivnqq6/M+eefbyZMmGDOPPNM0759+5T8pb7xyCOP2GvYd999UVBK/WZRPwhAAAJlQkCB13V1dSm1XbRokfnpp5+sy9WMGTOMfg8//LD54osvzF577eUN4lRec/ZNmzbNjBs3zl7j4MGDUVDc3dZoXcXKeK8MFJRiKXJ8pRKQgnL00Uenvbzx48ebiy66yHz55ZfWJaxz587mT3/6U9r87IAABCAAAQhUAwEpKNttt13aS508ebJtN6dPn25dwtS5JzdmpLQIFDQPioYSLlbejKGMYuvA8RAoVwIDBw40cpGSe5TkvvvuM6+99lq5Xg71hgAEIAABCLQIgdVXX90cd9xxRm7SErWdubqGtUgFOYklkLePlSZh1DwnxcrXXhkqq718xhAIQCBvAl27djV///vfzYgRI8z8+fPN7bffbgYNGhRZzty5c41cqhSEL9ewxYsXm169elkf3AMPPNCOMhJ5YA6J77//vrnrrrus69kPP/xgunfvbtZcc01zwAEHmG222SYlkF8xNhdeeKEtderUqXb58ssvmxNPPNGu9+7d25x99tnNzprPOZodTAIEIAABCEAgQEAxG/vvv78ZOXKkkfuX2iEFs0fJwoULrSu1Yj4U59LQ0GCWW245s+6669o2V21xofLNN9+YV155xbqe/fzzz0beEBoIZ4sttjDrrLNOs2Lr6+ut58Ts2bP9feqg1CAAEsWjhAcASLL+fiUSWMlbQVEdCjK7hCqvuVqaJpIM7WETAhDIlYB6gPbYYw872tbrr79ug867deuWcriUE8WzfPzxxynpn376qdHv0UcfNbfeeqtZeeWVU/bnsvHkk0+av/3tbylZFSejn174CuI/4YQT/P2Ko3njjTf8ba1IUXHKSr9+/VL2aSPfczQrgAQIQAACEIBAiIA60zbeeGPbJn3++edGbaUUhKDo417t43fffRdMNuqM008xoLLGLLvssin7c9mYOHGiefDBB1OySknRT22zgvh33HHHlP1qW1XXoCgm1cnmm2/uVu0yyfqnnCiBjbwVFFk8NEO8JmEsRlRGB4bwKgYhx0LAEtAIWBoOWL06ik0JjojV2NhoLRJSTrp06WL2228/s9VWW9mAOik0Dz30kFUOTjnlFHPTTTc1ezlnQqzhHC+44AKbRcMeDx061Lqc6cX6/PPPm7Fjx9oX+6qrrmr23HNPm08Klc4j+ctf/mJf8HoJ//rXv7Zp4ZFICjmHLYg/EIAABCAAgSwENthgA6ugqK1UbIq2nWim8wceeMAqJ2qb1M7JO0BD/ktJUHur4fjvuOMOc8wxx+Q1UI3iR+XVIJHFY6ONNrIuZ1J6PvzwQ/PBBx+YF1980Sy//PJWiXJ1Uvu+9dZbGw1hrHZWcvDBB/ttt+ZccZJk/d05klzmraCoMpt1r7EzxBdTsU27ldeICcVcK8dCIEkCQTOwXm5Bufbaa83//vc/O0LJxRdfnDIWu+ZR2WGHHWzvj5SKf/zjH77CESwjal29OKeddpo1jcut7IorrvBHQVF9ZNXRCGOyzsilS6bwtdZay3Ts2NEMGDDAFulGHdNwjy4teK5CzxEsg3UIQAACEIBAOgI9e/b0d8lyEZQxY8ZYzwMNWjN8+PAUFzB1vK2//vrmlltusR1tauvk1pyL6Dz33HOP7VSUW9mhhx5qdA6J6qP2UCOMqYNOSozcseX2JXEKiIbodyLXaM3xEpak6h8+T1LbBXlrDVy+eOUijjKSgkK5ECgnAjItO/9TjUriRKZd+aZKNCJY1Ey2Uhp+97vf2TxyyVKPSy7yxBNP2CEb5XsrxSdqiMY///nP1m1M8S6FBPC3xDlyuVbyQAACEIBAZRLo1KmTrxwE4zrUbsnLQKIRwaLiU6Q07LzzzjbPJ598Ype5/Hn77betO5msMlJ8nHISPFbzm6ltl2WnkAD+JOsfrGeS63krKA3e98uQlWrMAT1rC67XMO/YwV4ZDcXH2hdcBw6EQKUQ0JCKMjlL9FJyolgPxXxIwn6pLo+WbiQwvZwVxJ6LvPDCCzabLCPpAgSlNK233no2n0zW+UpLnCPfOpEfAhCAAAQqi4DrYJObtBO5e6mTT6JRv9JJ37597a4FCxbYuVXS5Qumf/TRR3ZTlpGwW7PLJ6VFlhGJAunzlSTrn29dCs2ft4uXwkZqvD/79q01H89qNJoZPh/ZpGuN2XuVWtOJ+JN8sJEXAmkJSAlxioj8VZ1oplknCsR7+umn3WbKUiOYOJHfqxt60aVFLd0LUz64l1xySVQWm+Z8ZAtRUFriHGkrzg4IQAACEKh4Amr/XBsY7GwLulCpnXv33XcjWQSVGrW5clnOJq5sKRGPP/542uyu3Qy25Wkzh3a4cyg57vqHTpXYZt4KiqvJFivUmOPXqjU3fGpyVlKknBy9Rq0ZtGKNkSOJp+sgEIBAkQSCVo+ggqKZcp089dRTbjXjMjw6SFRmuYFpRl4nCiLMJgoIlKk6ypQddWxLnCPqvKRBAAIQgED1EAi2k0EFZc6cOT4EDS+ci7jRKLPl1WhhTsKjWrr04FKu22oT5S2RqyRZ/1zrUGy+ghUUuXrt3LvWLNe+rXl4yiLzwHdLe2GjKiW3LllOpJzoWAwoUZRIg0D+BJyVQkduuOGGfgEatcuJZp13cSouLbh0ykN4/PRgHreul6SC3fWSVZBgphnvXbk6Np+Xa0ucw10PSwhAAAIQqE4Czt1KVx/0HnCDuChdc4Vl6lxzyoMLYNcxmUQu2XIfkwuXRrFMJ65c7c+n/VT+JOuv8ltCClZQnIIhS8qA7m3Njj3bmfHTG4xmiNckjFL0NJSwRutSQLxiTuTWJcuJO7YlLpBzQKCSCWiCRo0eItHoWUEFI2hNUboC4uMSvYhlFdGII5oYKglpiXMkUW/KhAAEIACB0icg1y7NYyJRWxZsM4OjYqktcqNoxXFVKltWEU326OI04yg3WEaS9Q+eJ8n1ghWUYKXaeXOj7Nirnf0pfYFnIpEi0jGgibiA+NwNVMEzsA4BCEQRuPrqq/0Aun333Tcly6abbmp7XdQLo5nY41RQNB68FBTFrAR7eVIqkOOG8/8NZ4/zHOGy2YYABCAAgeom8Oyzz9rJjUVB7U1QNIywE7lRx6mgqMNQCoqLs3TnKXQZjINxZSRZf3eOpJd5j+IVVaGAHmJ31yxpMAvnzLIzYb755pu/pMVypqizkwaB6iOgEUM0SeK9995rL14v1/AY7HqhSkmRjBw50qQLtFMAncZh1++rr76y+bP92XXXXW0Wza57zTXXRGaXe9fZZ59ty9U8KWFxLmjpgg/jOEf4nGxDAAIQgEB1E9Bol5pfxA1/L4UhPNKlhvh1HgnPPfecr8iEySnQ/brrrrO/YDxLOF9w242cqVhOKUlRoo4/xXeq7KgBboIuXFHtdpL1j6pvEmk153oSd8F33323HVVIk9Hcfvvt/izScZ+H8kqbgP7BJClLLy243aVz59K+iBaunczNCpqTv6lmfNfEi+4ni4UmbtIETuedd56ZOHGirZ1eov/85z8jJ2rSJIp6AU6bNs2MGzfO9gLJjK2hDRVDIvcwxadIedE474cccoh/xXp5OgVon332sSZwt9MNf6gOCI3pLoWpW7dudgQT3V/NcisFqr6+3sycOdOcdNJJdrIpd7yWGmNeQfk6j4IT+/TpY/1mna9vHOcIno91CEAAAhCoXAJffPGFkcKg9lMeA5rl3f1ksVAbqjZWbeiUKVMsCLWHBx10kI2rDJNRmyjvA5WhyYz10a+2SvGciiFRWY899phVXtQhqDY7KPIwUPvdvXv3lNng1VZKVF/VQwpTZ+9bSGWr/VSwvRQojeKlYHfNteKOceUrn5unRVME6BxyGZO4eJVi6+/OVehS3xiqi35tQ0uXHl56mf0BtNp4F/nLV2ShNYg47uabb/bdSTRRnNxQkMok4B4f+xB5j5K23U896Fp3ywZtez+7bEpf0fPtRJYS0Ky06jHJVYYOHWrOOuss+3JLd4xerMcff7xxk1BJAdCLTIqDE73MNet88CWol/mwYcNslhtvvDHlBeuOkxKiF6kT+b3qxS2FRaKXzxlnnGH2339/l8Vfvvrqq/4kkS6xX79+doZdt61lMecIlsM6BCAAAQhULgHNnTV27NicL1CDyqjzLWiNCB8sBUPtcrBNkzIRHCVLysmvf/3rZu2wLCDyEJCicPjhh4eLtm2ni4HRTg0+I2UlOJ/ZXnvtZQYOHNjsWCWoXk7RchkU0L/BBhu4TasgFVp/v5ACV6Z6HaP63tB3QI2W3s8uvW2X7pZOUQkqKLHEoITrns6nPJyPbQhAIHcCeom6YD25bmmm2eCoI+lKkvKhToKbbrrJaLZ4KYxOOVHv0YgRI6wiohl18xXNFi9Lh17E6vVRT5NELx31Jh177LFmo402iixWM9uff/759iUrZUh+tHpJhaWYc4TLYhsCEIAABKqPgCZjVAeac33aZJNNcpqzRMrHEUccYTRapmaLV6erU05k8VA7J08FN1lyPmSlfKhTUF4Tajs16I1E7eCaa65p6urqrGdBujKljIwZM8ZaWpwCFc6bZP3D54p7OxELylVXXWUGDBhg63r//fcbbSOVSUD/rBIsKOVxf2VylTuXXoRyqQpaTIq5Aik9UlD0UwMgpSXTsMbhc+l4uXopLiVdb1ax5wifk20IQAACEIBArgTkHaAJENUJL5cqWVLiEH1HSUFRWIQ6ClW2OvnyESkoaiMzdTQmVf909Sx5C0pUj2i6iyEdAhBIloBeqOqZiVv0Ml155ZXtr5Cydbxeypmk2HNkKpt9EIAABCAAgUwE1Hkmi0Tcou9kdezpV6gorjSbJFX/bOctdH9+KlqOZ8HFK0dQZIMABCAAAQhAAAIQgAAEUggkoqAowKfO853TDwtKCm82IAABCEAAAhCAAAQgAIEMBBJTUNw5UVAcCZYQgAAEIAABCEAAAhCAQDYCKCjZCLEfAhCAAAQgAAEIQAACEGgxAigoLYaaE0EAAhCAAAQgAAEIQAAC2QigoGQjxH4IQAACEIAABCAAAQhAoMUIJKKgaMI1J8SgOBIsIQABCEAAAhCAAAQgAIFsBBJRUDSKV319vf2hoGS7BeyHAAQgAAEIQAACEIAABByBRBQULCgOL0sIQAACEIAABCAAAQhAIB8CKCj50CIvBCAAAQhAAAIQgAAEIJAogUQUlMbGRr/SuHj5KFiBAAQgAAEIQAACEIAABLIQSERBwcUrC3V2QwACEIAABCAAAQhAAAKRBBJRULCgRLImEQIQgAAEIAABCEAAAhDIQiAxBaWurs7o17ZtIqfIclnshgAEIAABCEAAAhCAAATKkUAi2gMWlHJ8FKgzBCAAAQhAAAIQgAAEWp9A4goKFpTWv8nUAAIQgAAEIAABCEAAAuVCIBEFZcmSJf71M4qXj4IVCEAAAhCAAAQgAAEIQCALgUQUlKCLFxaULHeA3RCAAAQgAAEIQAACEICATyARBQULis+XFQhAAAIQgAAEIAABCEAgDwLt8sibc1YpKPX19Tb///73v5yPIyMEIAABCEAAAhCAAAQgUN0EErGgBJESgxKkwToEIAABCEAAAhCAAAQgkIlAIgpK0MWLGJRM+NkHAQhAAAIQgAAEIAABCAQJJOLiFTwBCkqQBuu5EpgxY0auWckHAQhAAAIQgAAEINAKBHr06JHIWROxoARrioISpME6BCAAAQhAAAIQgAAEIJCJQOIKCjEomfCzDwIQgAAEIAABCEAAAhAIEkhMQamrqzP6YUEJ4mYdAhCAAAQgAAEIQAACEMhEIJEYlKDVBAUlE372pSOQlE9juvORDgEIQAACEIAABCBQGgQSs6C4y0NBcSRYQgACEIAABCAAAQhAAALZCCSioGBByYad/RCAAAQgAAEIQAACEIBAFAEUlCgqpEEAAhCAAAQgAAEIQAACrUIgEQUl6NZVU1PTKhfGSSEAAQhAAAIQgAAEIACB8iOQWJB8fX29pfHJJ5+UHxVqDAEIQAACEIAABCAAAQi0CoHELShBa0qrXCEnhQAEIAABCEAAAhCAAATKhgAKStncKioKAQhAAAIQgAAEIACByieQuIJCDErlP0RcIQQgAAEIQAACEIAABOIikLiCgotXXLeKciAAAQhAAAIQgAAEIFD5BFBQKv8ec4UQgAAEIAABCEAAAhAoGwKJKChy66qrq7M/XLzK5lmgohCAAAQgAAEIQAACEGh1AokpKO7KcPFyJFhCAAIQgAAEIAABCEAAAtkIJK6gYEHJdgvYDwEIQAACEIAABCAAAQg4AokrKFhQHGqWEIAABCAAAQhAAAIQgEA2AokoKO3aLZ2gHgtKtlvAfghAAAIQgAAEIAABCEDAEUBBcSRYQgACEIAABCAAAQhAAAKtTmCpqSPGqshqUl9fb0tcsGBBjCVTFAQgAAEIQAACEIAABCBQyQQSsaDU1tb6zIhB8VGwAgEIQAACEIAABCAAAQhkIZCIgkIMShbq7IYABCAAAQhAAAIQgAAEIgmgoERiIRECEIAABCAAAQhAAAIQaA0CiSgoQRcvRvFqjdvKOSEAAQhAAAIQgAAEIFCeBFBQyvO+UWsIQAACEIAABCAAAQhUJIFERvGSBaWurs4Ce+211yoSHBcFAQhAAAIQgAAEIAABCMRPAAtK/EwpEQIQgAAEIAABCEAAAhAokEAiFpT27dv71SEGxUfBCgSKIvDTTz+ZGTNmmG7dutlfmzZtiiqPgyEAAQhAAALlSmDevHlm9uzZpkuXLqZz585lcxmNjY3mySeftPXddNNNTe/evcum7i1Z0UQUlA4dOpiOHTua+fPnGxSUlrydnKvSCLz11lvmzjvvNHKVnDt3rn95Xbt2Ndtvv70ZMWKEWXvttf10ViAAAQhAAAKVSuDLL78048aNM5MmTTILFy70L1Pfneutt54ZPHiwWXnllf30UlyRgvLGG2/Yqq222mqxKSjvv/++GT9+vC13wIABZuONN856+d98840ZM2ZMXsdkLTSmDIkoKPvvv7/ZfffdzQ8//GBWWmmlmKpKMRCoHgKLFi0y5513nhk9enTkRavX6PHHHzfPPvusOeuss8xuu+0Wma/YxA8//NA89dRTtpjjjjvO9lQVWybHQwACEIAABPIh0NDQYB566CHz7rvvRh62YMEC8/bbb5v33nvP7LPPPqZ///6R+So5cd111zX19fVm6tSp5quvvjJSfuRxkU4WL15sHnzwQTNt2jTTvXt3s/7666fL2irpsSgojUuMaRvwNmlsW2Pad+5q1lxzGf+iGrw8NYE8/g5WIACBFAJ6afz+97/3e0J69uxpDjvsMLPRRhvZl4h6jtRTcv/995uZM2eac845x0iR0DFt28YbVjZ58mRrwVEFDz30UBSUlDvFBgQgAAEIJE1AFofbb7/dqD2SLLfccmbrrbc2q6yyim2T1BkuS8Drr79u5syZY0aNGmW+/fZbM3ToUFNNrtDyWPrVr35lbrrpJmtdeuSRR8wRRxxhmUX9GTt2rFVOxEjHBcMzovK3dFpsCsrz3y02r09vMBNmNpgp8xuNPpP6dGxrNuteYwYuX2OGrFTjuXuhobT0DeZ85Ufgv//9r6+cyI3rwgsvTHlx9OrVywwZMsTst99+5uyzzzYTJkywSsTqq69u08rviqkxBCAAAQhAIJrASy+95CsnshIceOCBKeEDUljk6rzZZpuZBx54wHzxxRfWDWyFFVawadGlVmaqvg+23XZb8/zzz5vPP//cupJtvvnmzS5WFha5ykn0PdG3b99meVo7oeDuVllNJG9MazB/e2u+OfGteebWKQvNW7MbzPTFS8xU76f1W7y0k7x9509cYF738kpkTUEgAIHmBL777jtz88032x0yt1588cUpyknwiBVXXNFcddVVRi9hyciRI43M4AgEIAABCECgEghocJgXXnjBXoqCyYcPH56inASvcZlllrHeBorRlDz33HNG1pdKECld8pSQ10Q22W677YwUFckzzzxjxDAo8tKQu9ySJUtsvI6bFiSYpxTWC7agyKXr2W8Wm5GfLDDvz83+ADzw3SLz8axGc/xatWbn3rWlcO3UAQIlR0AvExf4d8opp6R9EbuKyyR75JFHmssuu8y+uOSf6wLj1INyzz33GAUP/uc//3GHNFtefvnl5uOPP7bBhYcffrjdf+ONN1rLjEYNc/KXv/zFaI4jieJRNPoIAgEIQAACEEiKgNo0fVBLdt1116xuzO3atbMWBI2SJXevr7/+2rcOyA1McZsSKTpqaxWsLrdpxWGo00/tmiwxTrTv5ZdftjHVUnbkVrbmmmuaLbbYwmVpttSHv9ywVbbiQdRxqLI33HDDjMc1KyiQ8PTTT1s3NsV3Dxo0KLCn+apcveWydf3119trfPjhh1NcvaS4TZ8+3X5fKGa8VAezKlhBkeUkV+XE4XtnToO54VPPf7B9W7PFCjUumSUEINBEQAFuEgWsbbLJJnY92x+5esnsLdHL08n3339vX5AaUS+TfPDBB1YZUayLk08++cQe67a1VACikwMOOMCtsoQABCAAAQgkQkBWA4mGEl511VVzOsfAgQN9C4LaUicaCVNuTxINUawOPLWTTuT2pJ+Umr333ttaH6ScBOWjjz4y+qnzTgpTlEiZeOWVV1J2TZkyxeinkTldR2BKhpg3pBDtsMMOViHTNWt0L3FRHVzdtL+UB7LKW0GRa5d+D365KCfLSZi5lJSHpywyA7q3Ne08MwxhKWFCbFcrAfUSuRFK1EOTq8iK4qwmuR6TLd+JJ55oTeV6kSngTnLppZdaxUnrGh0EgQAEIAABCCRFQBYLKQySfD6kZRHIFlOhWBWVL0VEeWXpUKyLrCxvvvmm3SdlQp1/al/lSi0XbLmbydqitlHt9FprrZVy+erIcwqAXNJkNVljjTWsxUIdf++8844d4CbloIQ2NJCAlCkpJVKa1G471y4pe9pfypK3giLXLgXEj/p+UcHXJXevHXu2Mzv2yvv0BZ+TAyFQ6gTkWyrTsCT80mvpuivgXqKXtZMNNtjAmqndNksIQAACEIBAUgTkouUkHwXFHZNpqbKPPfZYf2RKWRzU7l533XXWXVrKiUbOlAuUGwlMedQ2Xn311dZ1Sh/+wbZaistjjz1mT6sYkKOPPtp3n5KHgpSVPn36mCeeeCJT1WLbp3rLw0LXJHe2a665xpatTk25gLnriu2EMRdUUJC8RusqVsbHUEaxdeB4CJQSgWC8R/ClV0p1pC4QgAAEIACBliAQVFDinnxR1gO5jQVFH+7BiY81Glb4I16B+C4APdiBp3I+++wzGy+jWM2DDjrIV06C51Dsijr7Wkp69Ohhh1sOnk+uaZnmRwnmbc31ghQUDSVcrLwZQxnF1oHjIVBKBDQ5o5NscSMuH0sIQAACEIBAJRIIjkrpBmiJ6zrTxbO4D3edL53VZvnll7fVUBxLUOQCJpEypaGP00mmCRH1HSBrR9RP5WlCyqh9QVbh84aD4LO5v4WPb63tvH2sFnoBKJrnpFj52itDZbUPzvBYbKEcnzcBuRTJD1M/PeBuPddtd0yDyvCO17b7KabCrWu5yNtWnsXeT+Vr/zCCrf17pp4OJ+qJQSAAAQhAAALVSiBo4dBkjHFKsOxguc7NWqOBpZOwVcXlcwpKOsXG5cu0/4orrrCjj7m84aVG4NIvLIMHDza77LJLONmWNWbMmJR0zR4v97a4J3ZOOUkMG+nvQIbCCzK7hMrzXONssP3PP/9stc358+f7OdxIRn5C00q6sZpbK/9RRx1l9BBLO3U/VfXKK68MV91uH3/88TbGQP8Awd+tt94amX/EiBEp+dwx9913X2R+BXu5PMHlU089FZlfIzgoX1jy5anZSD07qPEK88+vMoOzuNp/aC+Pl8s86I2/rX+MsFYfrke1baOgVNsd53ohAAEIQCAdgaASEbeCku6cxaQr0F7iLCzpysq2P91xhaQ/+uijRqOXSeSy9uKLL5pvv/3WLjURdClL3gqKLB6aIX6qNwljMaIyOnpDeH3lacVB5aSYMlv6WDdcXa7n1VwT+UjYvzHbsbNmzcqWJWV/lHKSkoGNFiUgty4NE6xRSz791BuPG4EABCAAAQhUKQG5WWmYYA0gExwOuFRxLLvssrau2b7FMu1Xx3fUt5nmJpNrl2aF33LLLZsh6NSpU7M0jSimUbwke+21lx1mWIH8mlpAo5Gts846fjxNs4NLICFvBUV13qx7jZ0lvpj6b9rtl3lQNHTbq6++apzfnZazZ8+221oPpmsEApfmlrphGhHBbbul0hWk5LbdUulnnnlmZLoCn1y+4DKd5Sbd9VdbflliZEGRdcRJOhOo9gdHj1gQsJy5Y6t5qR6NO+64w/Zw6IWcS2Cgem1GjRplscnE269fP7vu7oGeZbnUpTPnhmeZrWb+XDsEIAABCJQOgfXWW8+MGzfO/Pjjj0YeN1ICsokUAE2SKNFIXBp9qyVE35BSprJZezIpW+msK/pWVqe1rkXr2USsNFmlRMMhaw4UyZ577mk0K72sKnL1+s1vflOy3iwFKSgDl68xt0yx11rwH5UhUUBStlkxCz5JKxyoD0Fpv1oGf7mmteTxcZzLv0Zdc1NsiUtT3InWtZTY2BNv3carNPFphVtU0qfcaaedrIKi50VDGZ5//vlZ66shBGXG1egiwQmgNJyhRPw1QljUS03KixtnPtuJlBeBAAQgAAEItBQBDc0rBUWiWeA17G82UYyGhgmWV8KQIUOyZY9tv4YS1gzyikVRjG26OBYNT5y0PPLIIzagvkOHDmafffbxTye3Oc1Gr3lg1LkpVnLHL0XJW0Fp8EIWhqxUYw7oWWs0n0khMsw7drBXRoMXa18TR0BLIZVI6BjXS10t8RXOFGkjWQIxKE4hCy6lmCyRwqJlkxKX0G0o22LV26MhAEePHm1/Go7wkEMOSXs98id9/PHH7X5Zpjp37uzndbPLK0Hm3KgXu2bSlVUxnQTL0wRTmngKgQAEIAABCLQEAXW0qV3UJMauDdpqq63Snlqu9HJtkshqoKGDW0rc6FiyTmg+FM1BEpYvv/zSV7jC++LalvXIDbQjZSRsdRJPKVJy9ZLyJyuVq3tcdYijnLzVA8383sH7s2/fWtO/yy9WkHwqsknXGrP3KrWmk1dGpSkn+XAgLwTSETjllFOMC5j/z3/+Y84991wzefJkP7ssIop/uuCCC8ypp55qrVQa0lAujUGRqdi5iF1//fX2ReQUSo0vf9tttxmlR/muunIUE+NEgzOMHz/etwy6dJYQgAAEIACBpAjstttu/pwl6j3kkyQAAEAASURBVLyTa5JiKZzIU0PWAFkN7rrrLtsBqs61qFgNd0wSy9VXX933CJKSpLq6kb2ktEycONGoHQ0rDHHWRS5mzzzzjC1SMSYbb7xxZPFy9RIjfROIZyl6SORtQXFXusUKNeb4tWrNDV4s7ztzcguYl3Jy9Bq1ZtCKNUY97sGYBVcuSwhUOwEpJzfffLM5+eSTjXpbFGOlX9euXe3oIBqBI2j10AvowgsvjPSz/cc//mFOOukk6xer8mTu1cvRjTaimW4nTJhgf1HcFc+i8vWy1cv1hBNOsNkuuugiI3c0BAIQgAAEIJAkAbklHXPMMdb9efr06bYtUnuk9kztouJTnCu56iFrwLBhw6zbc5L1iipbHhCKQVGn4iuvvGJ/6gTUYFBSBrR+xBFHmGuvvTbq8KLSVP7DDz9svw+kfGhk13QSdPWSUvP000/b+JR0+VsjPW8LiqukXL127l1rTtugg3X3cunplnLrOmW9DmZon1qjY1FO0pEiHQLGyKyt4ac1VrlGMZFo8AgFtznlRAF5GvFDMSjpxlXv37+/ufTSS82AAQOsqVuTPEk5UbyKFBYNfZ1JFGgvJUe9LWoIEAhAAAIQgEBLE1A7qPZQA8m44YfVnklhccqJYpo1lO6RRx6ZqJUi07XLzX/48OHWvcy5+mtCRykPcrs+7rjj/DY9UznhfZr5Xu5aq622WniXv60Bp/SNIFHebG22XL3cpJFyC5s0aZJfVimstPGgyZhRlCzwNI6Xfmgw46c3GM0Qr0kYve8aOxyxRutSQLxiTuTWpZOhnBSFu6QOdo+PfYi8R0nb7iezq9bdMioGZcUcRqMoqQtuhcpIIZFfrUbwUE+RrBryGZWSkY+oHL2AdJyUGxcvlU8Zcg1TY5CkiTqf+pAXAhCAAASqi4AC0DUSlnr+5Tqlka3UpikovpRE9VQdtdQgNRo2uZpkqueGp+8MdXTWaOn97NLbduluqTx25FEtmyDFoqDIIqLYFCeaIV5qj2JVnFRiQLy7tmpeoqBU893n2iEAAQhAAAIQgEBzAsUqKAXHoASrEtBDbLImcwwLAfFhImxDAAIQgAAEIAABCEAAAmECBceghAtiGwIQgAAEIAABCEAAAhCAQLEEUFCKJcjxEIAABCAAAQhAAAIQgEBsBFBQYkNJQRCAAAQgAAEIQAACEIBAsQRQUIolyPEQgAAEIAABCEAAAhCAQGwEUFBiQ0lBEIAABCAAAQhAAAIQgECxBFBQiiXI8RCAAAQgAAEIQAACEIBAbARQUGJDSUEQgAAEIAABCEAAAhCAQLEEUFCKJcjxEIAABCAAAQhAAAIQgEBsBFBQYkNJQRCAAAQgAAEIQAACEIBAsQRQUIolyPEQgAAEIAABCEAAAhCAQGwEUFBiQ0lBEIAABCAAAQhAAAIQgECxBFBQiiXI8RCAAAQgAAEIQAACEIBAbARQUGJDSUEQgAAEIAABCEAAAhCAQLEEUFCKJcjxEIAABCAAAQhAAAIQgEBsBFBQYkNJQRCAAAQgAAEIQAACEIBAsQRQUIolyPEQgAAEIAABCEAAAhCAQGwEUFBiQ0lBEIAABCAAAQhAAAIQgECxBFBQiiXI8RCAAAQgAAEIQAACEIBAbARQUGJDSUEQgAAEIAABCEAAAhCAQLEEUFCKJcjxEIAABCAAAQhAAAIQgEBsBFBQYkNJQRCAAAQgAAEIQAACEIBAsQRQUIolyPEQgAAEIAABCEAAAhCAQGwEUFBiQ0lBEIAABCAAAQhAAAIQgECxBFBQiiXI8RCAAAQgAAEIQAACEIBAbARQUGJDSUEQgAAEIAABCEAAAhCAQLEEUFCKJcjxEIAABCAAAQhAAAIQgEBsBNrFVhIFQQACiRL46aefzIwZM0y3bt3sr02bNomej8IhAAEIQAACpURg3rx5Zvbs2aZLly6mc+fOpVS1rHX58MMPzWeffWbrXldXlzV/nBnKkRsKSpxPAGVBIGYCb731lrnzzjvNa6+9ZubOneuX3rVrV7P99tubESNGmLXXXttPZwUCEIAABCBQSQS+/PJLM27cODNp0iSzcOFC/9I6dOhg1ltvPTN48GCz8sor++mluvLVV1+ZN954wyy//PKmJRSUcueGglKqTzL1qmoCixYtMuedd54ZPXp0JAf1ID3++OPm2WefNWeddZbZbbfdIvORCAEIQAACEChHAg0NDeahhx4y7777bmT1FyxYYN5++23z3nvvmX322cf0798/Ml+1JVYKNxSUantyud6SJ7B48WLz+9//3owfP97WtWfPnuawww4zG220kenevbvtRXr//ffN/fffb2bOnGnOOeccI9OxjmnblrCykr/BVBACEIAABDISaGxsNLfffruZPHmyzbfccsuZrbfe2qyyyirWReqHH34w33zzjXn99dfNnDlzzKhRo8y3335rhg4daqrZ/bmSuKGgZPwXYScEWp7Af//7X185kRvXhRdeaNq3b+9XpFevXmbIkCFmv/32M2effbaZMGGCdQNbffXVbZqfkRUIQAACEIBAGRJ46aWXfOVk3XXXNQceeKCpqanxr0QKi9ybN9tsM/PAAw+YL774wrqBrbDCCjbNz1hlK5XEje7WKnt4udzSJvDdd9+Zm2++2VZy/fXXNxdffHGKchKs/YorrmiuuuoqoxeyZOTIkUamXQQCEIAABCBQrgQ0IMwLL7xgq9+7d28zfPjwFOUkeF3LLLOM9TBQXKbkueeeM7IiVIJI6ZJ3hDwlcpFK44YFJZe7Th4ItBCBZ555xg8CPOWUU9K+lF11ZFk58sgjzWWXXWZfYvLV3Xjjjd1uf6l0uYRpKdN4p06djF78O++8s/Xd1Us+LHIju/rqq23yJZdcYs3qjz76qHnsscfM559/buu22mqrmV/96ldml112SanrkiVLzBlnnGFHW9l2223NIYccEi7e31bQ4C233GK3FXfjFC4/AysQgAAEIFA1BNROydVZsuuuu2Z1XW7Xrp1RO/Pkk09ad6+vv/7a9O3b1x4vNzDFakqk6CjIXm2OAu6nTZtm1NG36aabplhdtO/ll1+2baWUHbmVrbnmmmaLLbaw5aT7IwVBx+l4ratdVTu73Xbb2fOkOy5d+tNPP23d2HbffXczaNCgdNn89Di5+YW24goKSivC59QQCBOor6+3SYo12WSTTcK7I7fl6iUTuEQv0rA88cQT5txzz01Jnj9/vlVoFFz48MMPm5tuusksu+yyKXl+/PFH+yJXokYQO/30033XM5dRPTsaaUzxMnI3cyIfYJWn69HIJQcffHBav2ApPWow1lprLZQTB5AlBCAAgSolIKuBREMJr7rqqjlRGDhwoJH7s0TtpxO1XepQk2io3Xvuucd8//33brdtn9RGSanZe++9jToJpWQE5aOPPjL6aZh/KUxRovbyxhtvTBltU/n1Uzu77777Rh0Wa1qc3GKtWIGFoaAUCI7DIBA3AfUYqQdEot6aXEVWlCiriY7X0Iznn3++LUpB9jvuuKPZfPPNbc/Qq6++anucFIT4xz/+0VxzzTVGwzZGyUUXXWRjXfRyVvyL6ielROZ0KSiPPPKIVZLkJ+xkr732sulyW9MLWucPi3qznCl/zz33DO9mGwIQgAAEqoiALBZSGCQrrbRSzleu+BRnNUl3kGJVVL4UEeWdOnWqUcyGrCxvvvmm3af2TB1+alNlzVf7pTZK1pZXXnnFtn3qTAuKRt286667rHJSW1trBgwYYONjZEHRvCdq19UR16dPn+Bhsa4nyS3WiuZRGApKHrDICoEkCcgaIdcoSfgFWMh5p0yZYs4880wbl7LBBhuY6667zo9n0djxMjtL2ZByMnHiRBuMLxerKFGP0gknnGCOOuoof7cCFGUyP+mkk6yy8u9//9sO86iyJXrBy7ztTOxRCope+BqBRaOPMVSyj5YVCEAAAlVJQO2Bk3wUFHdMpqXKPvbYY61lRvnk3qW2Vm2j8wZQO7X//vv7Fn/l0QA0cndWh5ra1XD7rCH/5TotkUeD2lsnagPlnnXDDTcYzUuSlCTJLak6ZyuXIPlshNgPgRYiIFOwk/AL0KXns9RLUybtjh07GsWQBEcCc+Vo2MbDDz/cbsq0/fPPP7tdKcstt9zSxrqkJHobUiw0ypjcuRSgr94oJ3LzclYRWVqc8uX2azlmzBi7udVWW9nJq4L7WIcABCAAgeoiEPzQjnvyRbV3chsLitrF4GTHimUJD1MsS4hzH1OHW1g+/vhjm6QYlaBy4vLJM+Gggw5qVq7bH8cySW5x1K+QMlBQCqHGMRBIgIDMxE6kVBQrzo9WL99ML/ptttnGnkoKhiwaUaJZb8MvbZevR48eZsMNN7Sb8tMNioL7JM7NK7gv6N61xx57BHexDgEIQAACVUggOBKl3KXilHTxLN26dbOn0fnSWW00+7tEnX5BUTC8S3OxoMH9bl3lqq2MErX9ag+jfsqvCSmj9gVZBdfj5hZV55ZIw8WrJShzDgjkQCD48pLfarEipUCSLZ4luD8YPBg8fzBPMN2ty+KjeJewgqKgfQX7y69XI6kE3bwUA6NeH/Voab4XBAIQgAAEqptA0MLh3KbiIhIsO1ims+5rNLB0kq6DzrWzOi6dcuPK1P7p06e7TX95xRVX2LbQTwityANBv7AMHjzYjqCp9OC1xc0tfN6W2saC0lKkOQ8EshCIU0HRC1c9O5J0vUauOho/3o16opFIokTDCWcSdw7N5KsRwoKSzs3LuXfttNNOaYPzg+WwDgEIQAAClU2g3D60FWgvkdUiarj+4N1Kcgj9cuMW5JJuPb26mO4I0iEAgUQIyK1LFgeNYPLpp58WdQ719nTu3Nn2ymj0kUwi07FTZoIvueAxegk7JSaY7tZdj41M5WH3NCkgl156qe/mJSuKTNpu9C6N9oVAAAIQgAAE9KGvtkZB6+ks+qVEyQ3PrzZNrljpRsJUndPFeGrwGWfFCV6bhi1W+6yRNxUHGhbNZ+ak3Li5emdaYkHJRId9EGhhAs7VSZaIXF/OUh6uv/56+3Pjvavarrcmm7KjYYY1RGHwGLsR+JOtDE1MJVlnnXUCR/2yKguNYlgkbsIsuXfNnj3bjvKVbohkewB/IAABCECgqgi4kSBl0U/3UR8GMmvWLDN27Fj7c1aNcJ4ktl3wvMp2HXXpzpOuTVd8i9rrqJ/K0khiUfvCHYrlxC0do2A6CkqQBusQaGUCsjZI1JviZnHPViUNkXjzzTebe++9NyUYXhNXST755BPbC5OuHDf3ivZvttlmkdnefvvtyHQlav4WzTovSRckGHbzcoqKguPT+fbaAvkDAQhAAAJVRcANuqKLdm1FNgCK0ZBV/rXXXjPLLbdctuyx7Zfi4GJXNARxOpHrczZvhnTH5ppeTtxyuSYUlFwokQcCLURA7k9uptrRo0fbyZ8ynfrFF180Gk5Y8qtf/cq6dbn8rhyZyi+++GKXnLKUO5kmaJTo3FEz0WufZpt3o4JpOyhXXnmlkcVH0r9//+Auf13mab3IFVCogHnn3sXoXT4iViAAAQhAwCOgCQ3dgCrvvPNO2tElHSwN8+s60dQxFzWkvssb91IdbG4Cxvr6+rRWlFGjRtnOvLjPHyyvnLgF651uHQUlHRnSIdBKBE455RR/OML//Oc/5txzzzVyw3Ki4QTlynXBBReYU0891bpnqcdI46wHZdNNNzW//e1vbdJjjz1mLr/8cvPhhx9a64zM4epx+tOf/mS0LhOz5jNJJ1IuzjnnHDszvOsF0khjst7cfffd9jANKexcucLlBCdi/M1vfmPduzTbbjqFKHw82xCAAAQgUD0ENHGvc2FSZ92DDz6YYoGQW7JcuR555BHbkSevA8VdRsVqJE1tn332MYoHURzKPffcY9577z07WIzqpE5AdfDJk8ENZ5xkfcqJWzYOBMlnI8R+CLQwAY3mJZetk08+2c48+8QTTxj9FMshRULWCgXOOVEMh5QL+amG5eijj7Y9Ouq9ufPOO+1PQX2K/3BxJ3qpS3kJ+tKGy/nnP/9ppDhJKVKPkRSi4Ihf66+/vjnrrLPCh6Vsy1py++23+2nO7ctPYAUCEIAABCDgEZBycswxx5g77rjDDs07ceJEo5+C0NUWqv0Jzv3Rt29fM2zYsKwjaSUBV232AQccYOuqCZfvv/9+O4mxLDluVEtNRlxTU5MymXESdSknbtmuHwtKNkLsh0ArEJCp9tZbbzXHHnusP3qWlIovvvjCV06kUGj0D1kxMo2/fvrpp5uTTjrJ9OzZ016Jgg6lnMiqMWTIEBvrki52xF26Jnq87bbbzNChQ62C4pQT+d5K8fjXv/6V1ayuuVLcefTi3nnnnV3xLCEAAQhAAAIpBDSal9pADR7jrCkaKUtziTjlRFYJzf5+5JFHGjeiVkohLbShucKGDx/ut8VqY6WcqN4aqXKXXXbJuyaa+V6eCdmG+Q8XXE7cwnUPbrfxTFBLggmsQyAfAu7xsQ+R9yhp2/30D6p1t2zQtvezy6b0FT3XISQzAVlL5GP7zTff2F6jfv36GY3WkW3M9XCpug96sWskEZmjpeDIepJOFHPyhz/8we5+8sknrfVGG6qPXM6k4EiRCg51mK4sl67GRr1gGgzgoosucsksIQABCEAAAmkJaDAWtV2KqZw7d671GFAbFh7WPm0BLbhDbtMaul9tdEsG7EddYmtym+pNcaDvBHld1Gjp/ezS23bpbqk8+nl/jPfXCi5eUXeUNAiUEAFZGxQw6IIGC62aXgRyA4tyBcunTNUnajjhbGW8+eabVjlRvkMPPTRbdvZDAAIQgAAELAFZ69Uhpl+pixSTfDsQk7qmcuIWZoCLV5gI2xCAQOwEFCh42WWX2XIVxFisshV7BSkQAhCAAAQgAIGSIYAFpWRuBRWBQOURuOWWW4xGEJOCIpE/ruJhEAhAAAIQgAAEIJCOABaUdGRIh0CVE6itrbXDIioIUe5hhYhiXqScqCxNIqXAfzfbbSHlcQwEIAABCEAAApVPgCD5yr/HiV4hQfKJ4i37wl2woIIZNcQiAgEIQAACEIBA5RMgSL7y7zFXCIGyJVBKwYJlC5GKQwACEIAABKqMQGF+G1UGicuFAAQgAAEIQAACEIAABFqGAApKy3DmLBCAAAQgAAEIQAACEIBADgRQUHKARBYIQAACEIAABCAAAQhAoGUIoKC0DGfOAgEIQAACEIAABCAAAQjkQAAFJQdIZIEABCAAAQhAAAIQgAAEWoYACkrLcOYsEIAABCAAAQhAAAIQgEAOBFBQcoBEFghAAAIQgAAEIAABCECgZQigoLQMZ84CAQhAAAIQgAAEIAABCORAAAUlB0hkgQAEIAABCEAAAhCAAARahgAKSstw5iwQgAAEIAABCEAAAhCAQA4EUFBygEQWCEAAAhCAAAQgAAEIQKBlCKCgtAxnzgIBCEAAAhCAAAQgAAEI5EAABSUHSGSBAAQgAAEIQAACEIAABFqGAApKy3DmLBCAAAQgAAEIQAACEIBADgRQUHKARBYIQAACEIAABCAAAQhAoGUIoKC0DGfOAgEIQAACEIAABCAAAQjkQAAFJQdIZIEABCAAAQhAAAIQgAAEWoZAu5Y5DWeBQH4EZsyYkd8B5IYABCAAAQhAAAIQaFECPXr0SOR8WFASwUqhEIAABCAAAQhAAAIQgEAhBFBQCqHGMRCAAAQgAAEIQAACEIBAIgRQUBLBSqEQgAAEIAABCEAAAhCAQCEEiEEphBrHJE4gKZ/GxCvOCSAAAQhAAAIQgAAEiiKABaUofBwMAQhAAAIQgAAEIAABCMRJAAUlTpqUBQEIQAACEIAABCAAAQgURQAFpSh8HAwBCEAAAhCAAAQgAAEIxEkABSVOmpQFAQhAAAIQgAAEIAABCBRFAAWlKHwcDAEIQAACEIAABCAAAQjESQAFJU6alAUBCEAAAhCAAAQgAAEIFEUABaUofBwMAQhAAAIQgAAEIAABCMRJAAUlTpqUBQEIQAACEIAABCAAAQgURQAFpSh8HAwBCEAAAhCAAAQgAAEIxEkABSVOmpQFAQhAAAIQgAAEIAABCBRFAAWlKHwcDAEIQAACEIAABCAAAQjESQAFJU6alAUBCEAAAhCAAAQgAAEIFEUABaUofBwMAQhAAAIQgAAEIAABCMRJAAUlTpqUBQEIQAACEIAABCAAAQgURQAFpSh8HAwBCEAAAhCAAAQgAAEIxEkABSVOmpQFAQhAAAIQgAAEIAABCBRFAAWlKHwcDAEIQAACEIAABCAAAQjESQAFJU6alAUBCEAAAhCAAAQgAAEIFEUABaUofBwMAQhAAAIQgAAEIAABCMRJAAUlTpqUBQEIQAACEIAABCAAAQgURQAFpSh8HAwBCEAAAhCAAAQgAAEIxEkABSVOmpQFAQhAAAIQgAAEIAABCBRFAAWlKHwcDAEIQAACEIAABCAAAQjESQAFJU6alAUBCEAAAhCAAAQgAAEIFEWgXVFHczAEIACBDARmzpxprr/+epvj8MMPN3369PFzT5061fz73/827dq1M3/84x9N9+7d/X2sQAACEIAABIIEGhsbzU8//WSTlllmGdt2BPeX8rrq/uSTT9oqbrrppqZ3796lXN2SqBsKSkncBioBgV8IjB492jz22GOROGpra82KK65oVlppJbPZZpuZTTbZxLRp0yYyb6kkzpo1y4waNcpWZ/fdd09RUO655x4zZswYu2+NNdYwRx11VKlUm3pAAAIQgEAJEJg/f7558803zfjx4406vJYsWeLXSh/5/fv3N4MGDTJt25a2Q5AUlDfeeMPWfbXVVktEQbnjjjuMzhMWfSd06tTJLLvssqZHjx5m/fXXN507dw5nK7ltFJSSuyVUqJoJfP311+bVV1/NCcEqq6xiP+r33nvvnPKXWqY111zTr5IUlFKRDz/80Dz11FO2Oscdd5zp0qVLqVSNekAAAhCoGgJffPGFUUfWvHnzIq/5m2++Mfp99NFH5sADDyyLj+7IC4kp8bPPPktR4NIVK0vOeuutZ3bddVcjS1SpCgpKqd4Z6lXVBNQbdPzxx6cw0Ev6+++/N++9956ZMmWK+eqrr8z5559vJkyYYM4880zTvn37lPylviGLSt++fa2ZXi/LUpHJkyebO++801bn0EMPRUEplRtDPSAAgaoh8PHHH5t7773XNDQ0WE+BDTbYwHoNLL/88mbBggVWMfnkk0+MOpT0zr7hhhvMIYccYlZeeeWqYZTuQtXhJyuNE1md5syZYy1Qn3/+uWWq7whxk2IXzOuOKYUlCkop3AXqAIEQASkoRx99dCh16abM3RdddJH58ssvrUuYzLV/+tOflmYok7WNNtqoTGpKNSEAAQhAoCUIyK3rkUcesR/Scm2W4tGvX7+UU/fs2dO6Osv9SxYBxabcfffd5v/+7/9MTU1NSt5q21h99dXNtttuG3nZc+fONS+//LJ56aWXrNKizrgTTjjBdOvWLTJ/ayaWttNea5Lh3BAoYQIDBw40t912m/W/VTXvu+8+89prr5VwjakaBCAAAQhAIDsBxSaqx1+y//77N1NOgiUoHnPnnXe2ST/++KONVQnuL+d1ubjJQqTYm7hEnZniNWzYMFvkwoULzYMPPhhX8bGWgwUlVpwUBoGWI9C1a1fz97//3YwYMcKox+n222+3wYLBGpx++ulm9uzZ9iXvXuLB/VqXKf3yyy+3yRdccIENonN5Lr30UiOTsHpj1IulGJkbb7zRvPvuu+aHH36wAfubb765Oeyww4xiYvKRSZMmmcsuu8wecu6559qywsert0eDBmjwAJ170aJFZt111zUy9++www5mww03DB/ib4uJeodUV/nmisPaa69tfW+HDh3a7Fhdl9zlZsyY4Zfxl7/8xagHT6J4FI2+EhTVTz19qp9c7hYvXmx69eplecl0vsIKKwSzsw4BCEAAAhkIKMj7nXfesTlkNcnF/VcddrIIaFAWxaMoaN6JYlSeffZZuzl8+HCjD3IFq6v9mTZtmh14Ru91KTpOtE9WBrVxqo/aNsVMbrHFFi5Ls6XcqN5//31btkaolGuaBrVRG5XpuGYFBRKefvpp68omd+jgNQWyFLyqeqltlzeGPDHUfuXbhhd88hwPREHJERTZIFCKBPRC2WOPPexIWa+//rpRD1LQVKsPbpm+Bw8enLb6eqm70UXk2xsUvXDlq7rqqqvaBuCMM86wL3iXRy82/RRUfuutt2bs6XLHuGXwvFImwqKP/9/+9re2Bym4T3XVT8rHqaeeag444IDgbrsupeScc86xL93gTrkD6Hf//ffb+B0pOU7kz+w4uLS3337brTY7j+qnOCEpeEH59NNPjX6PPvqoZYJPdJAO6xCAAATSE9BHs2uHNNpULqKh6o888khrdQm7d+k9rTIliuNU0L1iOZ3ow1w/dYBpwJlnnnnGKiduv5ZSevRT55UCy6NEysQrr7ySskuxovq99dZbRsPsl5rU1dXZ9lDKldpMFJRSu0PUBwJlTmCnnXayCop6bNQbou24RR/cegHL71cvaCk8UnzUyyTlRMqGYmDkdhbHqCCyREgZknlbwf+77babGTJkiD3/uHHjTH19vd13ySWXWKvFQQcd5F+yjv3zn/9sGyEFVMrCpFgXzbMik7nqKKVLebTueuhOPPFEawlSI3PTTTfZ8mRBcvOzBAMJ1at29tlnW+VEo3ztt99+ZquttjIdOnQwUhQfeugho160U045xZZVDkM6+gBZgQAEINBKBNTh5SSfzh0Nn6tfJnnggQesRUSKiAZo0TtalhdZWdRxpfe6lAlZ6TfeeGNrAf/uu+/MCy+8YK0tahtkSVlrrbVSTqOOLKecaOhjWScUqD59+nSjji9ZhNQpVmoiLwxxEHNZjUpNsKCU2h2hPhDIk8A666zjHyGTdBIyceJEa66WG5T7YNd5pDRst9125uSTT7Y9RRpV7J///GfRVdAEjm645bPOOsvIxO1EvWrqLTv22GNtr4/Gfpc7lRsHX/7LP//8sx3z/V//+pd1B3PHKnhQ5naZ+sVKcTtOQdE+iRorJ3Ilk5k+LNdee6353//+Z4MxL774YrPlllv6WTQ/jSwzcgmTYvePf/zDyHUOgQAEIACBzATkiutEc37FKYprUbvhho7Xu13KxnXXXWfjPKScqDNLcS9ujjHlUdtw9dVXW+8BWUSCCorcxNzcZXLv1eA2zoqjDj0pK5qg+IknnojzUmIrS3WUgqI2s9SEIPlSuyPUBwJ5EtDkSzJxS9Rjk5Ro1LCgcuLOo4/zX//613ZTFhVZcooRmeHlHiWRZSKonLhypYzIhWvAgAFWgZD53YksPM8//7z1O5aCERZZMxQ3I1GvWb4iH2YNSiBRYxRUTlxZasB+97vf2U0xCU4u5vKwhAAEIACBVAIuOF7tWseOHVN3Frm19dZb+8qJK0oWesUmOlG8pVNOXJq8AqR8SIIdWNpWfKOs9opVlCXfKSfa50SdYlFtkdvfmktZUSRyq9N1lJKgoJTS3aAuECiAgF6mLpA7qReMFBMpA+nEDWmoj3fn75sub7Z0xYE4H2T5yKYT9WrJFevmm2+2M+OmyxeVrsZPUojFSfVzE4c5RSfqHJrhWKIeQfk3IxCAAAQgkJmA6+BybVrm3PntVSxllLi4TZ0zndVG7sIS9+535cgFTCJ3tOWWW84lN1tmiqfR4C9qO6N+KkjtYdQ+x6rZyfJICCpUcZSXx6mzZsXFKysiMkCgtAnohelemu4lGneNgybtqLLlbytFSZYCWTOy5Y8qw6W5F762gz1bbn8+S5Wl4D/51ypORj/10MnCUqh8++23/qEanlGxOVGiRsfJBx98UHIBiK5uLCEAAQiUCgHnfqWAdH0wBz+gi62jKztcjrNwO0+E8H5th60qLo9rr9IpNi5fpv1XXHGFP6yyyx9cPvfcc0a/sCgWdJdddgkn57XtLFa6dsVQlpKgoJTS3aAuECiAQLB3PikFJRggHlVFuU1pSF0FHRZrQdFIZJJOnTpFxn9EnT+cJl/iv/3tbyaoTITzFLodHIZYAwTkIsUyyeUc5IEABCBQ7gScEiGlQe2JYiRKWVRHSba2N9v+1rpG1545V6/WqkfUeVFQoqiQBoEyIhC0BiggLwlxL+F0Zcu1zCkWmXqK0h0fTHejgMkqpJHCMpnNg8e5dQ0TKeVEdZLf8Pbbb29HKlE5Kls/BftrNLBCxDWgOlZxOZl63TQqjOJlsil4hdSDYyAAAQhUGoHgyF0aDrjUFRS5C2siRVnnM0mm/UcddVRknKLaKbl2yZU4KtZRnXjFiNpIxdBISm2IYdUJBUUUEAiUKQHNH+ICyjWaV/hD2Jml9ZJLJ06xSLdf6RoqMZNoFBDn0qQhGouR4KhZGgVLk3DlI3fddZdVTvTCVTB7lItAMY1esCdMvItxZ8vnusgLAQhAoNIJqB1Tp446dzQsvIb7zUU00qQGiZEloNCJEXM5TziPOsGkoGSLZwzOvRIuI9imBPfJK0FB+WoTk5j0V54Grt3W6GWlJgTJl9odoT4QyIOAhj50o4rsu+++zY7U8IaSTC/PXNyP5CqVyYqixkEihajYuBHN6OuGDM40ypabKV7DDLux89VLpcklJQcffHCkcqJ9mi8mF3Ev72BezTrsFD93ruB+1iEAAQhAoDACGrlLMY0SzS+iYXyzidyUHn74YTtfiYvHzHZMXPtdZ5diUTINUqPhiUtJ1DH57LPP2irJClSKHW0oKKX0xFAXCORIQKN6aG6Ne++91x6hj/qoGdWdNUND3Ua9PDXLriavyibyB9Z8JFGjfEhBkqIk0SRWxU5KqBHDFPwn0USKCnKPEs2Vcvnll1t3LTdBl4L8NGxkJtHEXE6hicoXrL8m2AqLXNikpEhGjhyZNs5FStChhx5qf5qpGIEABCAAgewEhg4d6ltRNPN7cG6U8NFqCx9//HFrcdEoXC1pPVFdNNGhRG2pmw/FJgT+qL0p1KU4UExsq7JMaQRMN1qmOjejPA1iO2GBBaGgFAiOwyCQJAEpBPowD/40vK0me7rsssvMnnvuaR555BFbBbkZnXvuub7VIVgvN/a6zMuaRNH5wcp8rlnaTzjhBCNLRDbRR7nMwX/961/tUoqKXsia0V0zyGuSJ/nD/v3vf89WVE77NceJXLRkwTjzzDPtdSseRVzk9nX99dfb2dpVmOZKcQF+Uk6cS5hewGPHjrX1VD6Z4aXQnXbaabauSouSoC+uXMSkaIiXfk7OO+88OxylXAp+//vfWw6OrbiMGjXKnHHGGdY1TrEvwTJdGSwhAAEIQKA5AbU3mgBYIguK3uUTJkxI6SDTe1YWbE2a62ZBV5xGsXEZzWuTOUXD3Q8aNMhmksVn9OjRxo3spTrKu0DtiBvaPnNp8exVe6zBc9xPHWQaXVOz3d9yyy2248+N3rXTTjv5Fqt4zh5fKcSgxMeSkiAQGwEpAJoEMJuop0mWjWCvf/CYvfbay/bcaHb1J5980v7kz6qPaSkmslZIAZDikUm22WYb+4KVRUNmYSkEOj5olZFSUax7l6uD6nXllVeaY445xrqnOQVM5w3OeKsA+OOPP94dZpfiJsuHTNhSEtSrJv9dN6LXbrvtZjTu/d13351ynNvo16+f9XtWY6PGRUqcRAHxeplL1IDKeqNzqzfq9NNPtwqilBEpQk5kNtdM8ggEIAABCOROQO92ufpqeF11TqlDTvGWeseq3QlaVdT7r/d6pnmpcj9z/jk1ObDcqCdPnmyVACkCUpTURqpTTetHHHGEVabyLz3/I9SZqV8m0WAvspzE1WZnOleh+1BQCiXHcRBoYQKyDuhD27kY7b333ll75vWCl1VDH/Z6acqS4mJJ1Otz6qmnGjfMYLbL0Ye6rDVyawrGtMjEfdxxx/kf79nKyXW/rA7XXHON7T2TpUYWDCknaoykRKhR0EvfxYO4cjVBonqJ5AKnHjYNECDlRC9k5T/ssMPMVVdd5bI3W6o8KRXqmdMIacGGMJhZyodc29S7Jxc61c8pJwp6HDFihBk2bFiL9+gF68g6BCAAgXIloAmA1Q7ILVejTeljPzioizqfevfubZUTFwvSGteqdnb48OFGHYHyNFAHo4uFkZu12io3OmU+9dPM97J0hAe/yacMl1edmKqD3KEVEK96laJbl6uvlm28G74kmMA6BPIh4B4f+xB5j5K23U8fbFp3ywZtez+7bEpf0fvgRlqOgBQLuSVJqXBuUZnOruEP33vvPbP//vtbS4vLKyVHyo6UJVlkwkqCyxfXUi97KRlSNhRAmS3OxJ1XPW1q2PRyVkNWyAtZDYQanEwmepnyVT/1mGlgAjczsasHSwhAAAIQKJyAFBO1XeoE0vtfo2epwy7ptiffGqvNUR21VP2kRFWrTPXc86S86R7VaOn97NLbduluqTz2XmrZBAwLSrU+OVx3VRKQQqFfsSKlRL+WEpnI3cgu+ZxTc5S4gQLyOS6YNzjvSTA9uC4FSAMEIBCAAAQgED8BdfqUQ8eP2pyWbBvjJ106JRIkXzr3gppAAAIQgAAEIAABCECg6gmgoFT9IwAACEAAAhCAAAQgAAEIlA4BFJTSuRfUBAIlR0BxKjKrt/TQjSUHggpBAAIQgAAEINBiBAiSbzHUlXkiguQr875yVRCAAAQgAAEIQKBQAsUGyWNBKZQ8x0EAAhCAAAQgAAEIQAACsRNAQYkdKQVCAAIQgAAEIAABCEAAAoUSQEEplBzHQQACEIAABCAAAQhAAAKxE0BBiR0pBUIAAhCAAAQgAAEIQAAChRJAQSmUHMdBAAIQgAAEIAABCEAAArETQEGJHSkFQgACEIAABCAAAQhAAAKFEkBBKZQcx0EAAhCAAAQgAAEIQAACsRNAQYkdKQVCAAIQgAAEIAABCEAAAoUSQEEplBzHQQACEIAABCAAAQhAAAKxE0BBiR0pBUIAAhCAAAQgAAEIQAAChRJAQSmUHMdBAAIQgAAEIAABCEAAArETQEGJHSkFQgACEIAABCAAAQhAAAKFEkBBKZQcx0EAAhCAAAQgAAEIQAACsRNAQYkdKQVCAAIQgAAEIAABCEAAAoUSQEEplBzHQQACEIAABCAAAQhAAAKxE0BBiR0pBUIAAhCAAAQgAAEIQAAChRJAQSmUHMdBAAIQgAAEIAABCEAAArETQEGJHSkFQgACEIAABCAAAQhAAAKFEmhX6IEcB4EkCcyYMSPJ4ikbAhCAAAQgAAEIQKBIAj169CiyhOjDsaBEcyEVAhCAAAQgAAEIQAACEGgFAigorQCdU0IAAhCAAAQgAAEIQAAC0QRQUKK5kAoBCEAAAhCAAAQgAAEItAIBYlBaATqnzE4gKZ/G7GcmBwQgAAEIQAACEIBAaxLAgtKa9Dk3BCAAAQhAAAIQgAAEIJBCAAUlBQcbEIAABCAAAQhAAAIQgEBrEkBBaU36nBsCEIAABCAAAQhAAAIQSCGAgpKCgw0IQAACEIAABCAAAQhAoDUJoKC0Jn3ODQEI/H/2zgJMluJq2IW7O8Hd3SV4kEAgF3cJECCEGyCQcEMIbsEleMJHgktw1xCCu7u7u8O/b/3U0Du3e2RHd/c9z9M7Pd3VVdVvz3bVqXNOlQQkIAEJSEACEpBALwIqKL1w+EUCEpCABCQgAQlIQAIS6CQBFZRO0rdsCUhAAhKQgAQkIAEJSKAXARWUXjj8IgEJSEACEpCABCQgAQl0koAKSifpW7YEJCABCUhAAhKQgAQk0IuACkovHH6RgAQkIAEJSEACEpCABDpJQAWlk/QtWwISkIAEJCABCUhAAhLoRUAFpRcOv0hAAhKQgAQkIAEJSEACnSSggtJJ+pYtAQlIQAISkIAEJCABCfQioILSC4dfJCABCUhAAhKQgAQkIIFOElBB6SR9y5aABCQgAQlIQAISkIAEehFQQemFwy8SkIAEJCABCUhAAhKQQCcJqKB0kr5lS0ACEpCABCQgAQlIQAK9CKig9MLhFwlIQAISkIAEJCABCUigkwRUUDpJ37IlIAEJSEACEpCABCQggV4EVFB64fCLBCQgAQlIQAISkIAEJNBJAioonaRv2RKQgAQkIAEJSEACEpBALwIqKL1w+EUCEpCABCQgAQlIQAIS6CQBFZRO0rdsCUhAAhKQgAQkIAEJSKAXARWUXjj8IgEJSEACEpCABCQgAQl0ksDInSzcsiUggdoIvPfee+H7778PE000UW0XmKrfEPjuu+/CLbfcEh577LHw3HPPhdFGGy385S9/iZ+dvonLLrssPProo2H66acP66+/ftuq022/9/fffz+cdNJJ8f433XTT8JOf/KRtLCxo4BL4/PPPwyeffBLGGmusMOaYY/abG+WdddVVV8X6zj///GHKKadsW90//fTT2BaOPfbYVcsk7c033xzTLbHEEmGCCSaoek02wccffxyuvvrqMNJII4WVV145PqfsefZpl5944onw2muvhbfeeiuMMsooYa211gojj2z3upxVvd8lWC8x00ugDQRoAM4+++xw3333xZff22+/HUudZJJJwhxzzBEWXXTRsPbaa4cRRhihDbUZOEUMHTo0wDZPxh9//ADfqaaaKiy//PKB760W6rL//vuHyy+/vFdRe+yxR1coKHfddVe45pprwiKLLNJSBaXbf+90VC666KL4jFZddVUVlF6/Vr/UQ+Cll14Kt99+exyM+Oqrr0qXMjAx22yzhcUXXzxMNtlkpePduMP/6z333BOrNu2007ZUQUEBuOOOO8ILL7wQXn/99cD/IjLOOOPEcmecccaw8MILx2Plf7744otSPeeZZ566FZQ777wzDhyRL23D0ksv3asI6nbppZeGBx54oNfx1VdfvSMKyplnnpnbvtFPGGOMMcK4444bJpxwwjD77LP3C4VYBaXXz8ovEug8gQ8//DAMGzYs3H333cNVBkWF0XY2Grl99tkn1DKSNFxGVQ6cfvrp4YMPPghzzz13WGGFFaqk7j+naXCKFJTsXRx++OFhmWWWCTvvvHNsmLLnmrnP6FxSThZccME4SsfoPI1JtwujhtQf2WabbXJHF2u5h2b83ptVl1rqaxoJ9IXAt99+Gy6++OLwyCOP5F7+5ZdfhgcffDBaLH/xi1/Ed29uwkF0EAvT+eefH55//vnh7hpF5cknn4zbM888E4YMGdL0QZ1JJ520VG52Px18+OGHS8rJdNNNF58ZVppRRx01JYmf//3vf8Nnn30WB78YYGyVPPvss9GiUy1/rF8ow1iFUPS6VVRQuvXJWK9BSQBXki222CKOFAGA0Vo6yowS0cDxArr22mujgnLrrbfGtOecc07TR2sYFXrllVfCmmuuOaAUlPSjwiKwwAILpK9RacGtCDM9I4OMbF5//fXRgnXggQf2Slu6qAk7uHUh4403Xjj++OPDiCP2n7BARjTPOuusWP+NN964TwpKs37vzahLvBH/SKAFBBgU+de//hWtAGTP/zsuR1hrce/CNYh3D4NSuCVhrcNasNJKKw1aKzkcTj311DhQBjMsIHSqURTgCTMUBJSUp556Kpxyyilhhx12aOo7lDKxOODiNcUUU1CNXvLqq6/G77jnbbbZZoXP6v777w+0L7Q5rVRQUuVmmGGGgGUrCZYeePK+RdmjL4HrLu/Nddddt1fadE03fKqgdMNTsA4S+IEAJloaJmS//faLIxw/nIofvHhotFBKjjjiiIC7AKMzyy67bDaZ+1UIYK3Ycsstc1NhOaIz8c9//jM2Krvsskt0t8troHIzqOMgDSuy2GKLNbVhraMKHU3q772j+C28TQRuu+22knIy66yzxk4hnd4kKCwzzzxz7MBeeOGF4cUXX4wW8oknnrhlgyOp7G79xEOAdzGCdQRrflZwuZpzzjkDVnEsue+++25UVFBimikokUXyxhtvxFO0y93kbo01p9wdLd0Dlpz//e9/gd8kSguDTNtvv31bXJpTHWr97D/DdbXekekk0I8J4POPTDPNNMMpJ9nbImCZlxByxRVXxE//NIcAsSc77rhjjA0hR17oBK23QvCRRvANHozi730wPvXBdc+4MP7nP/+JN00w+XrrrRdH5PMo4G6zySablNx2b7zxxppcUvPy6rZjKF24YjKKX4swYQjCxDDlykn2euIxUeSQ8liQbLpW7H/99dcx21a55NbLrJZ7xNqz4oorhnXWWScmx1vg3//+dy2Xtj2NFpS2I7dACRQTSCNGjLJVEkZrDjvssPDmm2/GWUOK0uJCRLA95lxM4vjH4i5GgP1SSy3Va9QHc/UBBxwQs0pB+Yy0YDZHaFz33HPPuF/rHzrgjNDgd417GjPWMFLIKBeWIEbAioQRsfPOOy8GKWLGx6+Xa+eaa67YiBNU2kqhfvfee290t6Dh4x4oO0/q4Yy/NNYvBAsYQkxR8rPG5eOvf/1rPJ7+9JXj7rvvHpkzAkmjlCdYcY466qh4ioB9XBoqCa4UyWUhpSNmitlrEOJRmNmnFmn0915rXZjJh98S/zcHHXRQRYVw7733jv8rdHw233zzWm4jpkGRxTWSSQVwj/zmm2+iWwgjmbhRpE5UzRmacEAQ4L3BbwHB57+aGyezP/GbIU6AEW7ey1NPPXW8HjcwXE8RFB06l7ik0pl/5513Yrwc/3tZ91XO8R7n/Y9rFBaBSoHl5I1LEO808qYtwCUoWSyKAtK5rpLgmkz9cVvGxbaa8P+ETD755NWShg022CB89NFHhYpfyoDngBsdrk38jxK/CVvaW9qWcuHe02xlzMzFQBJtLv/jCG0UQvsEf4R2iQFEFDFmQUSoG/L000+HM844I+4zEEasUSWpl1mlvMrP0fbS5tDG0Q7Bo5K1qPz6dnxXQWkHZcuQQI0E8E/FbEwHkManPNgumw1WFrYi4cVaPvLPy5WNBgsXJ0y7SQhITDOzpGO8oJOywlSz9QgN81577RVffNnrmJmM7YILLohubMstt1z2dNxHIaDTm176KQGNLKZpGghiQ2aaaaZ0qiWfW2+9dQxspWGnschTUOrlTGNVzpn7YkPKrSmNcOR3xAguMwMVCcGmqT4E6lYTGtmUPqUluDcJym+t0ujvvda6oBDTENPxQlkp6hjQSF955ZWx+nQAaxU6U9tuu210MclegzLKRkflH//4R9fPzpStu/vNIYDVAGHgodL7OlsaLqjJpTQ7NS6/szSQwfv63HPPje/zdC2/XzaUmjXWWCNcd9118V2fzvOZAsuJiUBhyhPedcyclZWXX345sPFuZqrtVgsDYry7sCKgWFSathcrS7Up+PnfJ7bn8ccfL1Udnrx3eTf88pe/jHEupZM9OwwMJd7JWpI9ltLyTk9KSLKm0H6na1M63rVpFjIUvk4LruG0xbChnVFB6fQTsXwJdDGB+eabL2DWp2OOmxEWjb68yGhEGA1HGE3DGoCZnM4So/U33XRT7DDRYP785z+P6Xg5EZSIoBzw4mYkL40i12OxoEFhqlyUIRqOjTbaKHbuaWxpcJglDKsOadjP+g0zasi984KfZZZZ4kxaTIvIaBUNCetRMALGSDexIq0URr0JlIQnvs7l0hfOjNYlzsQZwYNpjWGEZH3TG+FYXtdmfceihhsKHZh0H1h8UkcqG5xZrcxGf++11oVRWDp9KFaMQBcpKGl0mpiAJZdcslr143mUVyyLWKLohDLSSkwR/y+M1jJzE0o+M8LBqz+td1ETABMVEuC3gcKA5M0CVXQh74BkNSlKQ6wK+aOIkJbfGIM3WCnodHKO9xPvm3nnnTda8Bj8wt2M9oX/Xywp5YM8DDYk5QQlgZF2Yix4/zIgQGA6g0utFt4jKBNY3YkHxCWpkRmnGNTiHuiU4x6NIkG8J+0tygX/p1iPq3XSeZdstdVW8fYvueSSmCftUxoEShYy8krp4EUZtGd4LiDJ4hy/dOhPsiBhQUkudR2qSm6xI+ce9aAEJNARArjiEBzIRuNC40PHCisDnTkaivQCLKogSsFuu+0WGPHBlH700UeXOr28IFdbbbVouWBUFwWIBoxGavTRRy+NICXLDS9ZOuj1yg033BBfyFgDmLI3O3MJjQNuAoxQowQRh5BVUAj6RzmhkWZmKzqLCB07GmK2XXfdNY7mMeqTZ9Wot76V0sOMZ5EsSSltXznTiU1M02gbSlw6lvLnsxGO2Xyauc/zQ+gIJeH59kWRbvT3Xk9dUMRRUNjoLJRbqrgXeCM/+9nPau5A/O1vf4sTVfB7Pfjgg+MaRTGTnj/8z/K/i9sbgwNY/dLAQUrj58AlwGBLknoUlHRNpU/yxsLL+wTh/4/3+Iknnhjdi3hn8W7kfywFcJOG/5njjjsuvmOxiGQVFBSXNO05Fhw62GnAhI45ygrToCcrY6X6NXpuoYUWiv8z/N/QgT7yyCNj3VEGGFiDZ7qvWsqirWFgJTuAQh58h0eaJbOagsLAQ1IeUzuZOvrZeqCApHTJ+pOXLntNJ/Z5rvBNFqBO1KGozBGLTnhcAhJoPwFeeIxGs/YIL19GwRiFPfTQQ+MIO3EExBXQQNCJzxPOYRrnZUiHKTUw2bRYLlgMjBH6FKicPd/oPq4DWGoYkc4qJylflA0aIITRvqzggoDQgczrRKKw4aZD/q1WTqhHch1gJC/rAtUOzo1wpO7dLs34vdd6jygKKIT85vn9lAsj3em3hxJfi/A/yDoNCJ054lbKhQ7gb3/723gY10rcKZTBQSCroDR78UWmKU7KSaLJ/1M2lgILeHknHitEch/LDjKQB3GC/H/QuSaOIq/tYHAp752e6tCsT8omtiSVxf8NLlO8d1HCDjnkkOjihsUH5aKaMACUVU5SemJBErNyHinNQP6kn4DQtvHsu0lUULrpaVgXCfQQoJEhkBeTM37t2REdOsl0rnBvwpUk60+b4KUZY7CMpJdPOpc+GdFJVovkI53OteszKR+MbGUlNUgEGRJMnm3ks+natZ81xWdf4N3CuYhju/g0Wk6jv/day0cpTvFOyZUre22yntCJqTR5Q/YarDHEAiBJ4c6eT/tpFiL+f4kPUAYHgWzHOfseacbdF8Wz0OFGKK/IapMGXdJvN9UnTZuLMpUs1+lc9hMrRpFguUdxz9u4ho5w3rksq5Q3SgoTTAwdOjS6ZiU30pQPbRftJJN8VFMusPwUSZoYBKt4J6SZzOqtf1YJzXsG9ebXzPS6eDWTpnlJoIkEGOXChM9Gw4E7E77BLNBI5x1zPD74vJzxMU6SXtTEazDKVCRYIJBWKyip7vi4piBBlI5Ufnn98P3nfhgZIwiUKRDx6SeWBusJilc7hWBSBNN+dsSy3Zzr5dhORs0oq6+/93rKxs2LEdg8N6+koNRqPaHctGYR+/xOCS7OkxRgyzkGFbKDDnnpPTYwCGTfF+UDMY3eYTbvbF7JQpfcirLn0n65VSUdTwpKkWKT0lU6j0txpUElYj7YyoUYDlwr8wSliwWL2fAOwNqJtYe4L8pC8Wd2LBaMTW5V5flUmkUP92YEj4VOSCuY1Xof6Vnxe6knzrTW/BtJp4LSCD2vlUCbCOAnyoaLF6NPzAh02mmnxZcz0w0TRIjQOPECT0IgZTXB/5QXc7XYlmr5lJ/HB5pZxLKduPI0ed9xw+GFfcIJJ8QFuLgfrBXJYoEPNbE5G264YcWZXfLy7suxFOSaRh3Jo52c+8qxL/faLdfU+nuvt74ouIwOM1KKJTIFy2PVQFGn41aPgpKUV+rBYnG1SPnMPrVcY5r+SSCrRDRbQWkFkRRnl33X5ZVT7XzeNc06hmWHDSsnI/6pbcAyw+DDr3/969yiipSy3MSD6GB6hxV5W3QShQpKJ+lbtgT6QACXGF7CNCasu8DMKkyXiAsLL2FGg/iOGT4CqdL6AABAAElEQVTNIpJXTFYpafbLm+ktUU5wiWJknJEvRrZoWPCBZmMNCyYDyBPuhUD4nXbaKVqNsAYRq0In8oWeGbyOPfbY+B0LETxaJTR6afaubLxLuzg3yrFVXNqZb6Xfe731QAlnHYbTe2aOw2KSFJRkPUkKTK35ZjuguGVWGrVO/295fvC1lme6/kUANyvckrB4d8p9qB5iuItS1zQVbtG1lc4zfX2y4mSv533P4BqukHmxWmnCkOw11fZxT8Jtk/owpTqMKaOVbUK1OvXlfDuZZetH+4wlCulGq64KSvZpuS+BDhJgFg3cthDWHKmmNBAAiYJCx4eZTtIsUJiysYowCo1i0AlhcUhefrz0CCLO+rmm+lC/akIDz32yIQQxM1Ur7mFMqUnHkg5nq+SKK64oxRgwVXNW2sG5UY7pN0SjXSRpscSi86063qzfe731w0KCgsLkE2k2rxSTkqbcrjXP7Egyikd2RqRa8zDdwCZArB8DMfyfpd9btTumw40bIsLASF9myKtWRt55BpNQUKpZeyopW9n/iWwZvC9xi+VeKrlbcQ2xMbhtIbXcOzMtoqCgGFG3IjevmGEX/mkGs77cFtb55H6aHYDrS16tuMYg+VZQNU8J9IEASgWzlrClUftK2WTnLc++4NIqwvi6541kVcqz/Fx6eZUfr/SdxpVViBHuJU854RxWkXqF+JN99923NLtXdoHAevOqlp7GFEsNgs91muc+XddMzinP7GczOKbA0Eodjma4HPXld9Ks33uWGfvV6oKLII0xCjRuXsm9ixHcFERfnmfRd1btTkpg+s0XpfX44CSQnXAhKcLVSBCjgesSMyxWClavlk+959OgEbEo/H8UCdMTt1JwO2L6brY0wl+pvOSaRppudFVKde+mIHQU5vR7xHLWjYMrKijpl+OnBDpMgE4T65wgjPBWGvVmJI7RfQSfeka+kqTVgWlkWEckT7C6sLgcQYXEe5RLcl0hML9eIdCumokd6wcd1DxhCmRmL2Nu+jzBqpLiZVo1UsZoHO5xBBDSAd1rr72Gu6dmcM67v3SsUY7kkyYUYHrbvA4HroC1xCmlOmU/ccNLwuJt9Uqzfu+UW29dUpwJFrgUsMsCbtl8arkfFFeUFISYqaJ4K5Rx/tfYUkxTLfmbpv8TYJAgjU7zf5IWQSy6MwK/08ALLofV3qVF+fTleHqf8l5I66GU58N7u8g1tzxtX7/DLFlOmBSmUscea0viRUc7zWLW17JbcV16ht3yv8/iwHgi4MKMrLnmmoUDia3gUWueKii1kjKdBNpAgKmDEeItWFmcjnwydXOcDjMvbM6lDj4d6dRhJw2NGgvDIcxsQkefRg9rSnIHI76DGYdwDfvpT38a02b/JH9UysDNiBGtSo1E9lpextQB4SXIqvU0eAjuA+edd15cSLLI5xj3NkzP1J0NS0IS7p+F7hj9QXFgvZi+CBYFlK+00XHAbYx7ZdY0Yny4Z8pgpjQWvCyXZnAuzzP7vVGO5JWmbMbtgVXrE0t+B8TzbL/99uGLL77IFlvzfvqNcAFufHTCyZetVmnG752y6q1LWoiRjlaykiWlpda6p3RY9FBUWKWamCmsMokzv/uLLroo/OEPf4ixYoyGZ+ua8vBzYBNYZZVVSjMAsqI5M74ld17unP+ZFFPIO4h3NcpyXqxGK0lhXUzvOjr91DXN7MVv+aGHHor/62lq81bWJbUhdKZR/om1TB1qymWfdo01UfjfQ2jLkkUzHuiSP2kaY+qJgko7Vs97st7bYAATy3DaUIxwj6bsv//973EAlDogtKFpYLTeclqd3hiUVhM2fwnUQQCXKBQBlAqUg5133jlejc8uloPsCC0d2GHDhuXOOoSCQqeUGJXU0ScwHatMesnzIqfjlEaAs9Wk45gCh1nBlw3FgWl/axGUJjr9KBKUQd25h1R/GmxGus4555zhsmPeezqOjz76aOSAmX/GGWeMXGCCJYD8mBs/uSQMl0mVA1gNqlkOCG7FcsK0x0XSKOeifNPxRjiSx+qrrx5Z8iyvuuqquDEySQcaxYR7/OMf/xj+/Oc/pyJr/uT3kKaDpuOCsoMQLF6r4tis33u9daGDtdRSS0XlmTrDhAXo+iIoJ0z1jdWPzhQLqTJggDKCQp4EFwpWklcGHwEs0r/61a/CmWeeGTvT/L+wYSXFJYn3ZHYACEvGOuusEycTaTctLMMM4DAZCR1aNgaTeF+gOLG/2WabRferVtYN5YxOPG5IdOzPOuusWBy8cBvOzlbJd2Z2zE6338q61Zs37sDJBRSlj413DoNfrRDil1IMU1H+/CaxnKRFKovSdfK4FpRO0rdsCeQQwA2EUSGCK9OsQIy2pc49igl+zSeddFKucpKyxFVqu+22K5nK6ZSinNB5YhVipikeMmRISt7rk8aBEXc6fimGpJ6RKRamY6Rmvvnmiy4KxAVQf16KdGQrdYjpNGN5ofM/5ZRTxkaR0TNibmgcmQWGuq+33nq96tzoFzqUvKyXX3752MnGxaGScpLKa4RzyqPosxGO5Mmz3meffWJDlFayZqSWzgYjpfzOqgWsFtWN3wMdbgLLG/H7bsbvvS91yQbEM9FC1gpZdM9Fx1E+GFRA6SEfOlZJOSE+jJXk+c12o/tJ0T15vLkEeK9hnWXikuRCy/uYzndSTvh9MCHIFltsUYqza24tqufG75d3KxaM9O7HjQrlBJdR3svcS71Cm8P/WT2z2BH3BwtcmNP/Jx4FSTmhfcQdjFmwulU5gRMDbLS1KCXpPmrh1xdmRflikaMNYHZPBgEZ/Oxm5YT7GKHnR/d90Q15XALVCKSfT/wR9fyU+J42Gmn20+e3fO/Z4ucPxyfpGVVXignQsSeImQ46nTBmK8kqDcVX/ngG/nRK2Rg5ptOfFJ8fUxXvcT0NAo0qylG9gsWDQEdekJSdGr1a86FxZDSPxjsba1Pr9e1K1yjnavVslCP5MzJKh4gR2kaUiry64jJAR6sR949m/N6pWy11IQB5xx13jLeCZZD/q2YIrjAo4yiBdJ5USppBdWDlwf8yFm6UWH4vdFx5t6UFA7vlbqkndeQzWfE7VTfeLbRhcKMtxHpOnerp8Heq7tly6RPxzHnW9baF2Xz6w/7bPQOrPB+e10h89mzxs+d7Op4+ScPW8yf0/I2igtIfnnIX15F/NkQFpYsfklWTgASGI4Alj7iZxRZbLBxzzDHDnfeABCQgAQn0nUCjCooxKH1n75USkIAEJNDPCBCHRZBymuYatxtFAhKQgAS6i4AKSnc9D2sjAQlIQAItIEAMFrOzMbMNboMIPvFpgdMWFGmWEpCABCTQRwIqKH0E52USkIAEJNB/CODDzrTaCNN+MlMdCosiAQlIQALdR0AFpfueiTWSgAQkIIEmE2CWNtYkYbpt9hUJSEACEuheAioo3ftsrJkEJCABCTSJADPEuEhik2CajQQkIIEWE3AdlBYDNnsJSEACEpCABCQgAQlIoHYCKii1szKlBCQgAQlIQAISkIAEJNBiAiooLQZs9hKQgAQkIAEJSEACEpBA7QRUUGpnZUoJSEACEpCABCQgAQlIoMUEVFBaDNjsJSABCUhAAhKQgAQkIIHaCaig1M7KlBKQgAQkIAEJSEACEpBAiwmooLQYsNlLQAISkIAEJCABCUhAArUTUEGpnZUpJSABCUhAAhKQgAQkIIEWE1BBaTFgs5eABCQgAQlIQAISkIAEaiegglI7K1NKQAISkIAEJCABCUhAAi0moILSYsBmLwEJSEACEpCABCQgAQnUTkAFpXZWppSABCQgAQlIQAISkIAEWkxABaXFgM1eAhKQgAQkIAEJSEACEqidgApK7axMKQEJSEACEpCABCQgAQm0mIAKSosBm70EJCABCUhAAhKQgAQkUDsBFZTaWZlSAhKQgAQkIAEJSEACEmgxARWUFgM2ewlIQAISkIAEJCABCUigdgIj157UlBJoH4H33nuvfYVZkgQkIAEJSEACEpBA3QQmnHDCuq+p5QItKLVQMo0EJCABCUhAAhKQgAQk0BYCKihtwWwhEpCABCQgAQlIQAISkEAtBFRQaqFkGglIQAISkIAEJCABCUigLQSMQWkLZgupl0CrfBrrrYfpJSABCUhAAhKQgATaS0ALSnt5W5oEJCABCUhAAhKQgAQkUIGACkoFOJ6SgAQkIAEJSEACEpCABNpLQAWlvbwtTQISkIAEJCABCUhAAhKoQEAFpQIcT0lAAhKQgAQkIAEJSEAC7SWggtJe3pYmAQlIQAISkIAEJCABCVQgoIJSAY6nJCABCUhAAhKQgAQkIIH2ElBBaS9vS5OABCQgAQlIQAISkIAEKhBQQakAx1MSkIAEJCABCUhAAhKQQHsJqKC0l7elSUACEpCABCQgAQlIQAIVCKigVIDjKQlIQAISkIAEJCABCUigvQRUUNrL29IkIAEJSEACEpCABCQggQoEVFAqwPGUBCQgAQlIQAISkIAEJNBeAioo7eVtaRKQgAQkIAEJSEACEpBABQIqKBXgeEoCEpCABCQgAQlIQAISaC8BFZT28rY0CUhAAhKQgAQkIAEJSKACARWUCnA8JQEJSEACEpCABCQgAQm0l4AKSnt5W5oEJCABCUhAAhKQgAQkUIGACkoFOJ6SgAQkIAEJSEACEpCABNpLQAWlvbwtTQISkIAEJCABCUhAAhKoQEAFpQIcT0lAAhKQgAQkIAEJSEAC7SWggtJe3pYmAQlIQAISkIAEJCABCVQgoIJSAY6nJCABCUhAAhKQgAQkIIH2ElBBaS9vS5OABCQgAQlIQAISkIAEKhBQQakAx1MSkIAEJCABCUhAAhKQQHsJjNze4ixNAhKQgAQkIAEJSKCcwOeffx4++eSTMNZYY4Uxxxyz/HRXf3/iiSfCs88+G+u+7LLLtq2un376afj+++/D2GOPXVOZDzzwQHj11VfDxBNPHBZddNGarskmuv/++wN5LLTQQmHuuefOnirtv/fee+Hpp58Or7/+evjss89iuqK0pYvcGY6ACspwSDwggc4QOOGEE8Jjjz3Wp8LXXHPNsOKKK/bp2lovGjp0aPjuu+9qTR6OPfbYmtOaUAISkMBgJPDSSy+F22+/PTz33HPhq6++KiEYbbTRwmyzzRYWX3zxMNlkk5WOd+vOK6+8Eu65554w0UQThVYqKCgjd9xxR3jhhReiAvDxxx9HJOOMM06Ycsopw4wzzhgWXnjhQkwoUY888kiYYYYZ6lZQvvzyy3DFFVeEb7/9NrzxxhthjjnmCCONNFKvslBK/vnPfwaUzSQTTjhhoTKT0rTi8+GHH47KVK15zzfffB2pZ1H9VFCKyHhcAm0mwAjUnXfe2adSF1lkkT5dV89F1K1WBWWEEUaoJ+uuSnv66aeHDz74IL6oV1hhha6qm5WRgAQGBgE6uRdffHHsLOfdEZ3hBx98MDz66KPhF7/4RVd1HPPq245jdPrPP//88Pzzzw9XHIrKk08+GbdnnnkmDBkyJKDkNVPIb7zxxgtYSFA6ypUTyqJ+1BMLGFaTmWeeOV6TrQdKDMoDsswyyzS9nqms999/Pyq+6Xu1z2mmmaZakraeV0FpK24Lk0AxgdVWWy3MO++8wyXAVHzDDTfE45tuumk0oZcnYuSjXYIytMACC1Qsrj8rKJdeemlgNBCrlApKxcfsSQlIoA8EGOj517/+Fa0AXE6nd4kllghTTTVVfL+/9dZb4bXXXgt33313wIXpoosuitaClVZaKfTnd2sfUJUugcOpp54aB484OM8880QL06STThoHzmBGpx8l5amnngqnnHJK2GGHHcKIIzY31HrbbbeNChKWmnLBnQulAFl66aXDYostVp4kfn/nnXei1YwvWMiarUiVF8pvphar1nTTTVd+aUe/q6B0FL+FS+BHAiuvvPKPXzJ7V199dUlB2WCDDcIkk0ySOdv+3QUXXDBsueWW7S/YEiUgAQkMAAK33XZbSTmZddZZw7rrrttrNB6FhZF3BoIuvPDC8OKLL8YOLXET1QaHBgCe3FvADQ7LNoJ1pDymg3ZxzjnnjF4ItJnvvvtuVFRwk2umJNe7vDzffPPN0mGeX7cICspPf/rTbqlOzfVormpZc7EmlIAEJCABCUhAAoOLwIcffhj+85//xJsmZmK99dbrpZxkaRBXsckmm5QCwG+88caa3Wyz+XTjPhYR3JrxEKhFiNFBiHEpV06y1xP4jiKHEMzeTvn6669LxY0xxhil/WbtoKjCLFlpmpVvt+ajBaVbn4z1kkAfCRAAeMEFF0TfZszevChpCAmix5eZRq/d8te//jWaxTF7b7jhhgE3KkYR77vvvjDqqKPGwMNsnWi8Lr/88nDttdfGGVf4jimfoMS11147FLm0lZdDGTfffHNg5hVG36addtpoUt9ss81iualMZnU54IAD4te33347fv7vf/+LLgJ8gd+ee+4Zj/tHAhKQQF8J8H7+5ptv4uVYzau5II088sjRXeiqq66K7l68q6aeeupS8VdeeWXAZWiWWWaJLkXErNCJJU5jlFFGiWl594877rjxGmJbUJDo8BNLQYcf1zJcd1PHvpR5ZgfFinci17GfgtIZme+LVR8XtnPPPTe2T7vvvnumpPxd3KeQySefPD9B5iieBh999FGh4pdJGl5++eXYVtL5J46Fdz18maUrbya16667LrrbTT/99PG5kBftFEHzqY4c495SjApsseTQFjEpAjO1JSFmhWeMEI9CG1UklAO3VVddNT6vonQD5bgKykB5kt6HBHoI0FjtvffevVh88cUXccSFhuuSSy6JfrypseqVsIVfmJ2M8gnC48V9+OGHl0ornx4SZeTXv/51NM+XEvXs0JCwXXPNNYEGbZ111smejvvZcojbGTZsWJyCMiXER5mNRua0004rjUwS1MgMNFlBUUnKCo2RIgEJSKBRAigPCFMJ1xqUjFvtFFNMEa+bYIIJ4mf6Q4cVpYWgbYLqCbzPCgMzxGRsvfXWscPMe493bBICttl4d+K6i8JSLuRBTEe2A45yw8Z7nXi9VguKA4oRigQKXurU55XLPeTdR3laYg3POOOMksLIeQLs2XhOm2+++XDxISgiKH88vyTwe6FnVrGsoIgkSW5muICVB/jTpiVBKVJ+JKCC8iML9yTQrwngo7vffvvFe5hrrrnC8ssvH0eBsKIwAxcjcLxEd9lll3D88ccP9+Jtx81jMUFJon5LLrlkHPVLo4mUj4kc5YMGFcsPI0UEGtI4oUDcdNNNsRE+7LDD4mhfUeAfDTUWGIJKGZXCH5jG4ZxzzomWGxoJAi5/97vfxdtmBJHvCEoNzLD20EAhrQ5ijIX4RwISGNAECI6nU4xgEa5VGInPWk3yriNf3nu4OM0+++xRGWFK3VtuuSVgNSHQnvLZeC8y6MK0xrxrsYygtPz73/+Oikw2f97JZ599dlROsMgQnM77FAtKmrL3sssuCz/5yU+ylzV9H8vC448/Hq0PTOPLAFUj3gAoV9wX+eIyRv2xbMAQ1zCUDuJ/Ntpoo6r3QjsFY5SS66+/PqbnutFHHz3uJ6WSSVeYDCE9F05i7UmWmkoWrJjRIPujgjLIHri3OzAJMArzxz/+Mc7PjhvUiSeeWHJhYvQGMzwKAcrJQw89FN2Z9t1337bDQEFitG2PPfbIdW1A8WDmGgRL0HLLLVeqIy4M66+/fth+++1jA4LLFVMCzzTTTKU0aYcGAN/u3//+9+lQYIYSGm9mdkHZwQ1up512ivWgIaHhRXA5QxiRTMfiAf9IQAISaIBA1nJRj4JSS5EMwODKxXs+SZoVjLU76HCjYGyxxRZxwCeloYPO2iIMcJGm3DrBtQzYIGuttVZ0s03XMnCE+9LJJ58cO+fpeCs+sS4k6waKwJFHHhnf6ShjWKLgWc8MZ1iFmKCAdiK52aEg0E7wncE03NmYDjq5ahXdV3qW2bVPUHiS4pGuSwoIZSeBYSOKVspnIH6qoAzEp+o9DToCNCK8HOloH3LIIaVOdhYEIzdMU/x///d/0cWJzntfXL0YLbv33nuzWQ+3v9tuu+X60uLOVaSc4D7AfSA0GlnlJBVAQ3HwwQfHWW/wF8ZKkqwgKQ2fWF9QxvKEGXNQUBg9pFFPrhN5aT0mAQlIoFkEsgpKsxdfxOUoq5ykOjNgld6rDObQIS4XBn9QULCu8E7MWkOwsCAsfkhe5YJ1mYEjBsVQdFolvPuxNmAJwh2NsrCEJ5cp6oFViAE5LPTVlArq+fOf/7yknGTrjdKFgoJygnLW39sInitWp0rCM8froptEBaWbnoZ1kUAfCWCiRzC9V2r4llpqqaig8OJlNd6f/exndZeIK0FyUyi6OBsEmE3DFJlptCp7nH2UnrSSMu5VRYJlg1Gzu+66K7pr5SkojIwVlZN1lcCfuL83PkWcPC4BCXQXAd67SbBmNFOy77VsvoziYxXm3YpFJU+y8RpZKwAxH+k779QiwYLAe5mpfcuFznHWjTedT+96XKPSfjqXPpM1O31H6WCACQsErlhsaUYr8iFuhA03KyZjyVPGUl5YLYosF8kli7SdGMTCrS5P2UucipjBp0gxS7Ogpfsv/yxqL8vTtfO7Cko7aVuWBFpEgI42krd4VLbI7HlevH0RLDHVgvmKZlpJJu68ctM9cG6GGWbIS1I6xn2goGSvKZ3s2cFMXyTZoPxsh6EovcclIAEJNINANrA6uU01I1/yyOZdnmfq7BYFlhe5RmXfr8mNqTzv9J3zeQoKA09M3lIkKDAHHXRQ7mms7eVKCgnHH3/8GFtIfCFKFANmuPVi7cFKxQAZwe8bb7xxYexOpbaIMumwUze2dsvRRx/dayKD8vKZbpqtXFj0MW/QkeeL+18lySplldK185wKSjtpW5YEWkCAxoeXNFJtVhg657yIGHXK+sHWUy1Wu2du/mZLqg/uWdWmrUz3yUgSs5SlYMRUp24cDUp181MCEhicBLJKRLMVlFYQTbMYYu0psjakcit1+FOaVnyyqCUbizQy4MQUymy0DShGzAiZJ0VKWV7a/n6Me2Vgsb+JCkp/e2LWVwJlBHj5YMZn5Ij58CsJJuKkzGQby0rXtOtcqg8uBYyAZS0d5XVIDScjgs6wVU7H7xKQQDcSoKOfBoj6asFu532lGEVcjujwV3rXsu5InjBDVt407SzQyLoeyG9+85u8S2NQf+6JgoO4NxG7SHwia1/BmDYvzwpTkEVXHGa652T1ylaIqZ65HzwYmPClXBjcG0iigjKQnqb3MmgJMHqFgsIsJ5WEWbSSybpTI15F9cvWB3M9lpoi4TyC3/NgGgkr4uFxCUigfxAgiJuAdCzGdOqTElCp9nS40zpNBIBXszBXyquec9n4PCw+RXEu5FmkcGHdLrdwkz7FjtCpzr77OVcuadCK47XcO0H/KCh08qlXpXqXl9UN37MxQdn6wIl1b2BQjVn2uv66P2J/rbj1loAEfiTAQl4Io1IpkO7Hsz/usYpxEgLWu0nmn3/+krKRrWd5HQm4TIudpfsuT9OM74waKhKQgASaSQBXpCRpzYz0veiTeAPcloi7w52pXUInOMWtZBcULC8fN9tq1vvya+r5zpolf/vb3+KWBqcqXZ8s7KSpZImvlEe7zhkHWUxaBaWYjWck0G8IrLzyyrGujEoxDW+eEEjIAo0Io3BFM7rkXduOY4wKJYWDefWLZh1h/vs0WrfKKqs0vWrJ1aySktT0Qs1QAhIYFASYzpX3L/Lwww/H2RQr3TiB38xWhfB+bKe7EtbpNOXwzTffXFoPpby+TP2bN1NXebq+fqcOyXJy6623xliTorywtiReWKcIqO82yT7DajNidlvd21kfFZR20rYsCbSIANaH7bbbLubO2iBHHXVUtDJg4sY9gBE41j1hH/PxAQcc0KKaNJbtPvvsE5gBjEaGtVQYYcQNgvvAOoSCdf7558dCWOWdWUuaLUlxYzEwVhpm9M5RrmZTNj8JDF4CDKykgZBrrrkmruCetUDghosV4NJLL43vIN5/xBnmxR20muIvfvGLuK4UFuVzzz03PProo3FiEupE5/qSSy6J7+ZWKwJp8OrFF18MJ5xwQiyTuJgk7KPMsR5Lmk2MBYq70QUY1+QkWMVwvYYnm/IjAWNQfmThngT6NYGtttoqjnAxmnXWWWfFjREkAs5T3AmNHMpL1re4m26aUbJjjjkmbL311gGXgmHDhsXpHplBJgX3U9/VVlstrgjfirqzWvINN9wQs8Zaw0aQJ42zIgEJSKBRAignv/rVr8KZZ54ZO9MPPfRQYCMIHZck4lOygyLEUKyzzjpVZ9JqtF5519OZXnvttWNdGay54IIL4jsZKwCuXchiiy0W19+47bbb8rJoyjGUM9oxBq1QQGjjEHgRHJ9tH/i+xhprVIxjbEql+pgJ7RzPlDaOjcWTEdZ4yVsMs4/F9PvLtKD0+0foDUjgRwK77757nBElrUOC9YGXOtPussrwcccdFyotuPVjTp3bm65nDRMsJcxxn+aiT40PL/Ztttkm7Lnnni0bGaMh3G+//aJSkha96sZRuM49IUuWgAQaJcBsXgzE8J5L1hSsAHS+k3KCVYJFa7fYYouagukbrVPR9aw7td5664W0FgptCsoJ9V599dVz194oyisdJ69VV1216vocKT2fWMxhwQBbmkqeAbjUPhAvgzsYs2BVmmQlm2en9lFGqGOlmdHK68ZUwTCbdtppy08NyO8j9JiUtCkNyEfbnptKP5/4I/rBRMkxNl5i2c9v+d6zxc8fzk/SE4SnNJ8A7GnoiNVglhRe6FhP+pt89tlncTFGZiijQUNBSQ1TO+4FjjR+NMRZv+F2lG0ZEpDA4CBA/AbvamIIeefxnuOdnTf7VaeJ4CbMOxGrdjsD9svvGyUONzi4MYDEoBxB/e1sH8rr1NfvKKa0NQNtmuC3e5Y94HnwfEbis2eLnz3f0/H0SZo4EMjnDyBVUPr6i/K6SEAFxR+CBCQgAQlIQAISkECWQKMKii5eWZruS0ACEpCABCQgAQlIQAIdJaCC0lH8Fi4BCUhAAhKQgAQkIAEJZAmooGRpuC8BCUhAAhKQgAQkIAEJdJSACkpH8Vu4BCQgAQlIQAISkIAEJJAloIKSpeG+BCQgAQlIQAISkIAEJNBRAiooHcVv4RKQgAQkIAEJSEACEpBAloAKSpaG+xKQgAQkIAEJSEACEpBARwmooHQUv4VLQAISkIAEJCABCUhAAlkCKihZGu5LQAISkIAEJCABCUhAAh0loILSUfwWLgEJSEACEpCABCQgAQlkCaigZGm4LwEJSEACEpCABCQgAQl0lIAKSkfxW7gEJCABCUhAAhKQgAQkkCWggpKl4b4EJCABCUhAAhKQgAQk0FECKigdxW/hEpCABCQgAQlIQAISkECWgApKlob7EpCABCQgAQlIQAISkEBHCaigdBS/hUtAAhKQgAQkIAEJSEACWQIqKFka7ktAAhKQgAQkIAEJSEACHSWggtJR/BYuAQlIQAISkIAEJCABCWQJqKBkabgvAQlIQAISkIAEJCABCXSUgApKR/FbuAQkIAEJSEACEpCABCSQJaCCkqXhvgQkIAEJSEACEpCABCTQUQIqKB3Fb+ESkIAEJCABCUhAAhKQQJaACkqWhvsSkIAEJCABCUhAAhKQQEcJqKB0FL+FS0ACEpCABCQgAQlIQAJZAiooWRruS0ACEpCABCQgAQlIQAIdJaCC0lH8Fi4BCUhAAhKQgAQkIAEJZAmooGRpuC8BCUhAAhKQgAQkIAEJdJTAyB0t3cIlIAEJtInAZZddFh599NEw/fTTh/XXX79NpVqMBCQggcoEPv/88/DJJ5+EscYaK4w55piVE3fR2e+++y5cddVVsUbzzz9/mHLKKdtWu08//TR8//33Yeyxx65aJmlvvvnmmG6JJZYIE0wwQdVrsgk+/vjjcPXVV4eRRhoprLzyyvE5Zc+zT12eeOKJ8Nprr4W33norjDLKKGGttdYKI49sN7ucVa3fJVcrKdNJoMUETjjhhPDYY4/1qZQ111wzrLjiin26ttaLhg4dGm6//faYfNFFF+11GS/h6aabLsw666xhrrnmClNNNVWv893w5a677grXXHNNWGSRRVRQuuGBWAcJDGICL730UnyfPvfcc+Grr74qkRhttNHCbLPNFhZffPEw2WSTlY534w4Kyj333BOrNu2007ZUQUEBuOOOO8ILL7wQXn/99YDSgIwzzjix3BlnnDEsvPDC8Vj5ny+++KJUz3nmmaduBeXOO+8stc2TTDJJWHrppXsVQd0uvfTS8MADD/Q6vvrqq3dEQTnzzDPDM888E+sywwwz9KoTStbEE08cpphiivCTn/wkTDjhhL3Od9MXFZRuehrWZVATYPSFF2FfhE53qyVbt+x+Kve2226LuyOOOGJAmdlwww3TKT8lIAEJSKCHwLfffhsuvvji8Mgjj+Ty+PLLL8ODDz4Yrb2/+MUvwtxzz52bbjAdxMJ0/vnnh+eff36420ZRefLJJ+NGp3zIkCEBJa+ZMumkk5ayy+6ngw8//HBJOWGgjmeGlWbUUUdNSeLnf//73/DZZ5/FAbw55pij17lmfnn22WdL2aEAl8vTTz8dD40wwgjhZz/7WVhsscXKk3TFdxWUrngMVkICIay22mph3nnnHQ4FL5MbbrghHt90001zzcvzzTffcNe16sD4448ftthii17ZY0JnRPCmm26Ko4FHHnlkeP/998MOO+zQK51fJCABCQxWAlgc/vWvf0UrAAzGG2+8gMsRFmfcu3ANwkXo7rvvDrxTL7roomgtWGmllQKdycEocDj11FPDBx98EG8fCwgWJhQFeMIMBQEl5amnngqnnHJKbHcYKGuWUCaWBqwPWB7K5dVXX42HcM/bbLPNCp/V/fffH957772wwAILhFYqKKl+1Kfc2oM16d13343uaN988030KoDxCiuskC7rmk8VlK55FFZksBPAtzVP8H1NCsoGG2wQMDF3UrCMbLTRRrlVoLHYdtttYyN74YUXhu222y40s6HILdSDEpCABPoBAazMuCghuMOuu+66sdMbD/T8QWGZeeaZYweW9+eLL74Y3cBwyaFTOxgFt+KknGAdKbco0R7OOeec0fuAtpLON4oKSkwzpZLb8htvvBGLwp2qmxRJLCNF1pGPPvoo/OMf/4hscdNbfvnlu6ruAG2eitnMX4J5SUAC/ZIAo1q/+93vYt0xvfc1pqZf3ryVloAEJFBA4MMPPwz/+c9/4lmCyddbb71eykn2MuIqNtlkk1IA+I033hitBdk0/XUfpQt3ZizstUhyUZpooomGU06y1xMXiSKHlMeCZNO1Yv/rr7+O2Y4xxhityD4qqvUwq6US4447bgz4Jy1WFSx33SZaULrtiVgfCTRIAN/mCy64IPo4Y9HgpUmDSBA9Ps00fq2UmWaaqZT922+/XdrP7vBCPOuss2Id8ZdlBhtGDhn1wp2BEbFKguJz3nnnle5x8sknD7PPPnu8jplTyn1/K+WVztFgHnjggdG1goDPXXfdtSMBjqk+fkpAAgOHAO9lXGoQrOXVLMtMPIJ7DrNk4YKDG9HUU08dr6czef3118d9FB2C7BkFpzP/zjvvRCs7s2plrS6c+9///hddonCNwiJQKbCczAn+5l1L3rzLiZ9JFouigPRYqQp/rr322tgZXnXVVeOEJRWSxlPEbCC846sJHgZYBnDFqiQ8B9zosGa98sorURGELVYt2qFy4d7TbGW0L3Tu33zzzegeRVqsNghuZvBHiINhtkjaFWaQRKgbgtv2GWecEfdxmaZdriT1MquUV/ZcdhIG6kbQfDeJCko3PQ3rIoEGCVx55ZVh77337pULygAvSabYveSSS6I/Ly/YVkl2JAbf3XKhod5rr71iw5A9d9999wU2lKv99tsvLLfcctnTpX3M+H/5y19i45kO0tCw0YiwHXrooXW5wuFCQLwMyhJm+v3331/lJMH1UwISaJgAI+AIsSbTTDNNTfktuOCCpZiH7NS4dNpTwDgB5Oeee27sMKdM6XSzodSsscYa4brrrovKSTrPZwosJyaiyL2YjjEzZ2Xl5ZdfDmxYKYiJbLUwuIb1CcsLikWlaXuxsrBVEpQuYnsef/zxUjJ4Mph37733hl/+8pehvN2iDU28k7UkeyxlRCc/KSHJmoLymK5N6fAuSLOQddJlO2vFSspvqmM3fKqgdMNTsA4SaAIBfHXp2CNM9YtP6UILLRRfvMy6RcedTvwuu+wSjj/++KbPdEK5vIxPPvlkdsMqq6wyXGNBA7PHHnvExpSGhFgW6krjSwN0+umnR0WKNOyX+xEzVfC+++4blRNGu7C2MIMZjfGtt94abrnllng9Qfz4cI8++uixLpX+0Pgl5YQ8jz322MColiIBCUigGQSwWPCOQvJmgSoqA0tAtY4j7znyRxEhLaP9xLowUMSAD+dQJni3MQkLblDETOBuxmg/CgiWlKzlm/owk1hSTlASsGozeIO1AAsAgekMJrVasGajTGBl/+c//xnWWWedhrwAmGqee1h22WUDM26hSDBtMW50KBfMsEZAfKWYE+4Zi85WW20Vb5+BP/LEis/00EiykJFXSgcvyphlllnCUkstFdOxXkonhLY4rQ1DXE8t68m0u54qKO0mbnkSaAEBRrT++Mc/RhM8s4OceOKJJTcnOvk//elPw5JLLhmVk4ceeigccMABsaPfl6rQMLElwezPyxkXAuaCx/RNYN6f/vSnlKT0SbA/L2gsOIcffnivmUxoLHAbwGWB0SyUkayCQgO/++67x1E0GlNma0kKCOlwYaNh3nnnnWMjjaUFc3wloS6/+c1v4pzxKEpHH310Q41fpbI8JwEJDE4CuGglqUdBSddU+iTvrbfeujS7IyPyvB9pAxghRznh3UaAeQrgJg3v2+OOOy4OKtF+ZBUUFJfLL788FsusVXSwk9sUHXOUFdyBsNi3WhhkY/pgNmaKZIZI6o4ygCUKnum+aqkLbQvxPSg+SciD7/CgPcOSXk1BwYUrKY/JpZhOfjqW8kYBSceS9ScvXUrfzE/azKQYky/KKooeSizKK+0fymk1F7Nm1qmevFRQ6qFlWgl0KYErrrgiYOqnw37IIYeUlJNsdZnOEpP8//3f/0WT/+9///uoKGTT1LLPXO5sRYL7FgtU5QmuBEXuBKRnWkQaJBo+XqBM2ZiEe8QUT2OAC1dSTtJ5PlHCuEca5eRSkT2f3cfEvuOOO8YZX5im+aijjupXqzhn78V9CUigewlkFZSs338zasx7HbexrPCOJJaCQR6EWJbyTjyxiCgfWK6zbrmkp4POCDuda+IoknLCuSQMJmGRb/VEKJRNbAluWZSFixYuU8ltCkVh+umnj4NZKGJ5dU115hP3raxyks5hNYcZ7UY5j5Smv30ymxlbkbDAczuXKCiqR9FxFZQiMh6XQD8iQPAjwgu2UgOIWRkFhVEizPcs0tQXKfebZVQGBQnBBYsAeEb1cDOrV1J8DCNdWUkLQXKPlUa3fvvb32Yvy91HOcFyQmOEi9hhhx2Wq/DkXuxBCUhAAnUQ4H2bpNkuPUXxLMlNlfKKrDa42aKgpHd3qmOaNpe2hKmPiwQrRpGCQqwGykS54AaMsCBl2s+mQcEoVzL4zpTMxAriesaW4ifIh/c4GxMHMA0+LmlFUikQPK2qjhdAJ6SZzFL9yyfFyXLHNY1+wDLLLBMtUumabvlUQemWJ2E9JNAAgdSgYK6tJNnzfX0Jb7/99mHLLbccrhjcvBjVOuaYY2JjgYsXHX+sGnlCnQmYxzUsBQ0y0kgcSZ6ke0RBaUTwZ0aJoUFDDj74YJWTRoB6rQQkUJFA1sJRPvBS8cIaTmbzziZPykFyK8qeS/vlVpV0PL1rixSblK7Sedxls5ajdE36JOaDrVyI4SgaOEPpojPNRuwg7ktYe7ASUBYDZcyOtfHGG5fcqsrzT1MRlx/ne7LK4wrVCWk2MwYIyxdq5L6SmxeTJxB/Q2wMVqpG29ZmMxux2RmanwQk0F4CNES8rJGi0bRUI3xf02wwafGrdK7RT0bjcM867bTTYgwKo4bMtlX+ssf9CtMyfq/Dhg2Ls4oxCw1uXUXKST33WO0+UIayo374NCsSkIAEWkUgq0Q0W0FpRZ2JUUCqzYhV7Xwr6pbyxLJDLAztCHGHxFkiWAgqxcYUKWUp38HwST8At7hf/epXMQaFNvrf//53rsWrkzy0oHSSvmVLoAkEeOESu8EIUpqDvShbTOpJmck2mkXp+3IclwLmuMd0TBAeFpIUgMmIDUoL/s34PzMSRgAhjQ2maDaC35mRLCvcIy9VlIs0upc9X+8+I3SY888555w4Rz1B9rgQKBKQgASaTYB3IgNDuCX11XLd7DpVyg83W+rK+7aSVDqPlT1ZcbJ58H6nHWIwi8UVyyVNz1t+vNJ3XMCYlp763H///ZExZaTg9UrXdtO5djLjvuFGTA5WKNz8UEwrWcXazUoFpd3ELU8CLSCA2RoFhZlOKglBjcmiUcnUXSmPWs4lhYS0lJm+n3322VE5IYbk/PPPH87XmPRFC3JRXxogprhsRHB5IE4G4cXMgl1YUTBvd3PAYCP37LUSkEBnCTAIwsALlus0k2G1GvG+Y5FEhADw8ti/atf39TyDRygo1aw9lZStIusK73GC0LmXam0QnWbckZBa7p3pe1FQUIyoW5o9q68c2n1dM5jVW+dszGq3KSi6eNX7NE0vgS4kwIJeCJ33vMDDVGViPpJkVxlOx5r1Scc/SVoVnsY2uVbh71oeCJnSs1hWnqSVi/E3To1WXjoadIL00zSZ5Wm4b+aoZ2O6ZRpjLDp/+MMfqjbI5Xn5XQISkEAtBNJ7kLRpFfhq1xGjwXolzMZVKVi9Wj71nk+DRFireTcWCdMTt1JYRPJvf/tb3LJtSlGZyTWN81jcu1WykyZ0uo5ZJbTS5DOdqKcKSieoW6YEmkwgTd3LqBdB33lCQCELNCKMxrXqZcTo4EknnRTLYQQLBQBhOshqJndm6mKu+zzBbQylAkvRPvvsk+s+wLW77rprnDK4lqkiCbpkymLqBjvWWamk4OXVy2MSkIAEqhFg9ijeuwjrSKVFEIuuYyCG2aoQBqCqvTuL8unL8WR5YFr3ooEe3rXlrrh9KavSNTBLlhMW4q3UscfaknjhopZmMauUf7vPpWeYXZuk3XXIlgezm266KR7C5bmdSnC2HkX7KihFZDwugX5EYP755w/bbbddrDENCmt6MEsVpm4sF4zEse4J+5iRsRz0VYgpYTQru1EWI32sIs9Kv6+++mrMPhvXwcs5WXpOPfXU+GKkAURQDs4777yw2267xZV948GyP4xADh06NB4lmP7AAw+Mq8Zzj1hUOMZilbx0KStbdllWvb6ywjLB+ggWniIFr9dFfpGABCRQJ4FVVlmltGYJK5oTmJyNG8T9FisAC97iDsu7jfjCvFiNOouuKzkLITL9OkKnn7qm2D/e2Sz2i4tumhK+rszrTJzaDKZDPuGEE6KXAIHwSdhHmWNhSmaSRAiY78Zg+DSNMfVEQWWwLblcp/tp5ifWkfKNWbuefPLJcPPNN8eFKWl7kfS8m1l+o3kZg9IoQa+XQJcQYLVfXkYsaIWLExsNCJ339BKksUN5SVaNvlSdxoqtkqAg/PnPfx5uUUbqyOghfti4VBE8ih8yL02EBpyRL4LX84Q57vEt5t6Yw52t/B4J/t9vv/1Ks5Xl5VN+DOsMShadAhQ8/MVZ0V6RgAQk0CwCvJuYOenMM8+MnWk6+mxYcHFJ4r2YtRJgyWDAp3wti2bVp1I+WOVpT17oiSGkM81GAPsXX3wRFSf2WUgXF6xWCsoZ7RducXTsefcj8MJNOE36wjG+r7HGGmHeeefla9cJ7sXJzTm1o1iIdthhh5bUFZfurFt3XiHEZDKrZrLu5aXp1DEVlE6Rt1wJtIAALkooHxdeeGEc8cLdCsE1ivnlaRyxGDRbGK3CZYwgRYLNGcFKgfHZsuaee+7w97//Pey///7xRY07FcoJDTeN3SabbBKOPfbY7CXD7e+0007R7I/FhWvTPaLYzDHHHHHKybyVgofLqOwA+TISRwxMCprHMqVIQAISaBYBZvNiEVs6/MTLMYqOFSBrFeBdxrty2WWXje/uZpVdTz60GQzS3HDDDYGp4VGcsE4jtCEoMH1RnFj5nnuu5x1N20X7ctVVV8UBKhSWbBwinWyCvRloqrQQYz3334q0rEM2ZMiQgLsaylYaOKxWVl+YVcoTSw5xRjDjWWYD5Std1+5zI/SYEIdf6rPdtbC8fksg/Xzij6jnp8T3tPHPx376/JbvPVv8/OH4JD2j50rzCcCcFyDWBka6UFqwnnSTEHyJmxj1YuXfoqD5ojrz28I9gntkFKpbX7JF9fe4BCQwuAnwDuT9hZsNrlO8x3hXpwUDu4UO9aSOfGLxxvLdKUFRwg0ObgyM0dGmTihU/Ulov3jmPOt6277+cp9v97TPPBee00h89mzxs+d7Op4+ScPW8yf0/I2igtJfnnSX1pN/MkQFpUsfkNWSgAQkIAEJSEACbSbQqILSv1TONsO1OAlIQAISkIAEJCABCUigvQRUUNrL29IkIAEJSEACEpCABCQggQoEVFAqwPGUBCQgAQlIQAISkIAEJNBeAioo7eVtaRKQgAQkIAEJSEACEpBABQIqKBXgeEoCEpCABCQgAQlIQAISaC8BFZT28rY0CUhAAhKQgAQkIAEJSKACARWUCnA8JQEJSEACEpCABCQgAQm0l4AKSnt5W5oEJCABCUhAAhKQgAQkUIGACkoFOJ6SgAQkIAEJSEACEpCABNpLQAWlvbwtTQISkIAEJCABCUhAAhKoQEAFpQIcT0lAAhKQgAQkIAEJSEAC7SWggtJe3pYmAQlIQAISkIAEJCABCVQgoIJSAY6nJCABCUhAAhKQgAQkIIH2ElBBaS9vS5OABCQgAQlIQAISkIAEKhBQQakAx1MSkIAEJCABCUhAAhKQQHsJqKC0l7elSUACEpCABCQgAQlIQAIVCKigVIDjKQlIQAISkIAEJCABCUigvQRUUNrL29IkIAEJSEACEpCABCQggQoEVFAqwPGUBCQgAQlIQAISkIAEJNBeAioo7eVtaRKQgAQkIAEJSEACEpBABQIqKBXgeEoCEpCABCQgAQlIQAISaC8BFZT28rY0CUhAAhKQgAQkIAEJSKACARWUCnA8JQEJSEACEpCABCQgAQm0l4AKSnt5W5oEJCABCUhAAhKQgAQkUIGACkoFOJ6SgAQkIAEJSEACEpCABNpLQAWlvbwtTQISkIAEJCABCUhAAhKoQEAFpQIcT0lAAhKQgAQkIAEJSEAC7SWggtJe3pYmga4icOmll4Ztt902XH311V1VLyvTfwh8++234eCDD47b448/3n8qbk0lIAEJSKBrCYzctTWzYhIYhASuueaacMQRR4T3338/LLroosMRmGCCCcKss84at7nnnjuMNtpow6Wp9cAnn3wSDj300PDVV1+Fp556Kiy//PJh1FFHrfXyjqeD1eWXX15zPX7+85+HVVZZpeb0JqyNAArKRRddFBPPP//8YfbZZ6/tQlNJQAISkIAECgiooBSA8bAEOkHg1VdfjcoJZd955525VUjWjplnnjkceeSRYdJJJ81NV+3gWGONFSabbLLw8ssvh6mmmqpfKSfcG6yKGOXd+7zzzpt32GMSkIAEJCABCXQZARWULnsgVkcCicDvfve7tBs/Gal+6623wr333hueeeaZ8PTTT4ctttginHbaaWGKKabolbaWLyOMMEI444wzwj333BMWWWSRWi7pyjQjjjhidFOrVrkFFligWhLPS0ACEpCABCTQBQRUULrgIVgFCZQTGHnkkcNGG21Ufjh+//7776Nicfzxx4d33nkn3HTTTYVpczPIHMSKsswyy2SO9L9dFJStttqq/1XcGktAAhKQgAQkkEvAIPlcLB6UQPcSwPKx+eabh5lmmilWsh43p+69K2smAQlIQAISkIAE/j8BLSj+EiTQTwkQg4Kr19tvvz3cHfz1r38Nzz//fFh66aXDhhtuGJit67bbbgv33XdfjDW54oor4jXHHntsYOalhRdeOGy55Za98inPg+tvvvnmcP/994cPPvggTDvttGHxxRcPm222WcX4FWJFzj777HDXXXeFN954I0w88cRhttlmC9tss02YfvrpwyWXXBIIeCce5i9/+UuvOrTjy6effhqD7a+99toY18J34nrmmGOOsPbaa4f55psvtxrlfPIYk+fFF18cxhtvvHDQQQfl5vPnP/85vPvuu2HZZZcN66233nBpXnrppThDFif23nvvXjFHX3zxRTjrrLPCI488Ep599tnAxAf8LuC70korhTnnnHO4/B577LFw3HHHxeOHHHJIfJYEuePq99xzz4Vdd901DBkypHTdd999F2688cZw4YUXxt/U119/HZ8b+cNHkYAEJCABCTSbgApKs4manwTaROC1116LJc0zzzzDlUgn9NFHHw3TTDNNOPfcc8Phhx9eSjP22GOX9p988snYMZ1ooolKx9JONo8bbrghDBs2LOBeluThhx8ObNddd12Mg8nmm9K88MIL0f2KjnOSV155JbDhmoZCQpA+nWPq2m5BGfn1r38dZzHLlk2d2FCcdt9997DOOutkT8f9LJ8ixsQGcW/Im2++GZWw+OWHP6+//nosg68ofXkKCoodeaDYZSdEQCnZa6+9IstsniihbBdccEHYb7/9wnLLLZc9HctJdUIx2nnnnaNilhJ9+eWXaTd+HnPMMVEJyh586KGHAttll11WUnay592XgAQkIAEJNEJABaURel4rgQ4RuOWWW6JyMProo+d2nlO16KhioZhrrrnCkksuGWaZZZbwzTffpNM1fT744IPRwsCIOfEqjNDT2T7nnHOiVQZLzamnnhrKg/qZKpljKCfjjDNOWHXVVaPFZcIJJ4zWlOuvvz4ccMABoVOza2EJQPlgiuUxxhgj1m+xxRYLU045ZVQIUKC498MOOywqB1g48qQSYywY4447bvjoo4+i0gCDrNx+++2lr8kaNskkk5SOsUP+SHbaaZ7hHnvsEZ8DyiXxSjxjpqF+8cUXw+mnnx4VVNKwj0UlT1A6eU5rrbVWYNpqrv/JT35SSnrllVeWlBMsSiuuuGK0tqG8YVFDgfvTn/5USu+OBCQgAQlIoBkEVFCaQdE8JNBkAnRAsU5khY4+7ly33npr3Ahwp3OYYlGyadM+Fow111wzdmYJJu+L4DrEyP7vf//70uXTTTdd7DDvsMMOsTPPaP1OO+0UsmXsu+++ASvPSCONFF2UcCNLwloZ66+/fpx9CwtBJwTF4+67745F4zqVtTSgyFG/7bffPjzwwANhzz33jB39PNaVGMODGdJQxnCNK1JQUApwhbvjjjvCGmus0QsH1yG40yXBooXSg/KDdQzlIQnPBtY8M2Z9g2+RgoIF5cQTT8w9z30deOCBMVuuP/nkk0uufKzFg7JCubi6KRKQgAQkIIFmElBBaSZN85JAEwn86le/KsyNkXkWdGTEu5LgdsUoelZxqJQ+7xzWhV122SXvVFh33XWjgsJij1hV0nTHTImc3IiYYSurnKSMsP7Quf7lL38ZF4tMx+v9pKwdd9yx4mXwQtlI8tlnn4UUh0NHPqucpDRJseIeP/7442hFKrcSkbYaY6wyKCjJEpLyRwmFEdcPHTo0WnOwqGQVFKwhKBE8v6wFZeWVVw5sRTLmmGOGhRZaKGABoVzihPJk0003zVVOSMvkCzxXnhOxKnmLeMKG/FGYFAlIQAISkECzCKigpNag8QAAQABJREFUNIuk+UigyQTKXX0IVsYdh0/iS3DLoWO92267BawpecLaH40oJ+TJaHlRHlNPPXWpWALgk4KC1SXFMmRH/kuJf9jhHrFWEE/RVyEuppoVhmmbs8JaMnS+ESYSKBLc0bD2kD8uTXkKSjXG6f4JdmdaaGJJECxkxMCssMIKUflAAaAcnm/inZQa6kCgfT2CdQXBilIkeYpjSovrG4LVKD3XdC77ieubCkqWiPsSkIAEJNAogd6tdqO5eb0EJNAUAnSo0wh/NkM61QSYE4NyyimnxBFyLBdHH3107gh36gxn86h3H5ehIskGxmPJSMLMYAgd7Ty3qJSOT9yEGlFQKKOaBYW4kqygTCWZYYYZ0m7u54wzzhgVh+w12YTVGKOEwYAYE9y1iOVBUvwJCgxWqvnnnz9aLQi+J54ESQpKUnLiwbI/1At+zMCFpYcNxYffSDWpVHcmUECqPb9q56vVwfMSkIAEJCCBcgIqKOVE/C6BLibAKDsdajamv2UGKqwBTAHLdMKtkDSaX0/edJARFK0816BsXrgjNSLUb5NNNqkrC2bMQlAMyi1V5Rml2cWwCDGtLy5P9QoKBgoKCkdSUIg3YU2bJZZYImbHJAa4VaG41KKgEBvDLGjMBNYKIQYFSfcfv+T8qXY+5xIPSUACEpCABCoS6FvUbMUsPSkBCbSDACPuU001VSyKzmo3SQrKxuKTOrpF9UvWlqLzrTieXOI+//zzOMtYpTLSOjMoW6ONNlqlpIXniENBkkUEVz0sFLi3JSsGCgqSLCtYyigbV63y9UyY2pkJClBOcL/aYIMNoqvf/vvvH61pf//733sF1ceM6/yTpjRO9190OW5rigQkIAEJSKCZBLSgNJOmeUmgzQRwP6Ijy1S/3SQoKFg2iKfA/ajIjYqpfjuhoCSlAGbEy1Sa6pjzCPEoWDz6IuSPtYbnhHKC9YTYmWQ9IU/ieVA4cfFK0xJznDiRcisWC18SZE/6888/P86URtqsTD755Nmvde8Te8RvK91/UQZPP/100SmPS0ACEpCABPpEQAtKn7B5kQS6g0DqPCaXoO6oVQi4bbFKPHL88ccXuiExjS2d8XYL1qekbFSKf0EJeOKJJ2L1FlxwwT5XEze3dD1xKMlKklVQyBwrCkodwfLJ2lIef0KMCUoMguWE2cbyBNe/RgTrDkKwfJrwIC8/FmxUJCABCUhAAs0koILSTJrmJYE2EmChREa4kewUtG2sQsWiWKOFjjkWA6YpZqYnOtcE09OpRTlhIoBqMSAVC+njScpMCgPrexBgnidHHnlknD6Zc6usskpekpqPJTcvFAdiTXDdYnHErGTdvPLWPyEtbmbV4nqYcYxZwxqReeaZJ15OvM5BBx2UmxWuhWeeeWbuOQ9KQAISkIAE+kpAF6++kvM6CbSQACP3yTqSLebDDz8MzNp01VVXxU4u53DzKR9lz17TqX2sOgRxs8gh95LWY6GDTewHMmTIkOg6xUr07ZZ99tknsNYMPJmqmXVSWFSRVe8JaL/22muj+xT12nzzzRtmnKwlTGiAlYRg+XLXLaYsJggfxY00uPCVK3DJGoMSAjfOo6BitUIZJD7lqKOOii5liXNf2KLAsUbMeeedF2eLY5rj1VZbLcbNoLRgBTruuOMCsSqtCtTvS729RgISkIAE+j8BFZT+/wy9gwFKoJZZuehEsoheWvOi21CkGatOO+20aKWg002neaKJJgpbb711XKSxE8oJnOjYH3PMMbEeL7/8chg2bFhUGFBQUAST0CknIL1RQZFkS1avZC3J5ovywQKL//3vf+PhIsWTxS9ZRwVF4Q9/+EMYZZRRYrB9UhSw9ow//vgBK1sjsvPOO0flEqsPcS9s/NY++eSTqECxjwvf+uuv30gxXisBCUhAAhLoRUAFpRcOv0iguwkw+9TMM88cNwLR6TwXxSB0y52gpLAxus+aLSgnWasASgtSbk1oR/1Z44UONkrSrbfeGjvdSTmhjiyGueWWW5biVRqtE25eF1xwQcyvSPlAcUkKSnILKy8X1zBm6mLWLuJRmC0N5YTfB6vGM+3yscceW35Z3d/5bR188MHhhBNOCJdffnksh5gh4neWWWaZMHTo0GhBqTtjL5CABCQgAQlUIDBCz0wy31c47ykJVCSQfj7xR9TzU+J72uh4sp8+v+V7zxY/fzg+yQ+ralcsxJMDmgCWi+uvvz6svPLKYb/99uvYvX722WfR3Ys1XHBbQkHphNJUL4DkDoiLFwtStkphJVD+1VdfjUrKtNNOG13I6q2r6SUgAQlIYHAQeLtnCnraUAa0RuKzZ4ufPd/T8fRJmjhxDZ8/4NGCMjh+J96lBNpOgCB4gqjp7B966KExRqK8Erg7pRmtiiwK5de06jsd/KLpkFtVZjPyZX0WpgRutRA71B/5tJqL+UtAAhKQQPMJOItX85maowQk0EMAF6AXelYjZ8pc4iQI6k4ruDObF4H+v/nNbwIWC1yTityZhCkBCUhAAhKQwOAioIvX4HreTb9bXbyajnTAZMhv4/DDD48zYaXfCTfHgoXZ2aUIHD/iiCPCdD3xIIoEJCABCUhAAv2fQKMuXioo/f830NE7SB1PY1A6+hi6unAWHCQInbVG3nvvvVhXlJSZZpopzDHHHGGbbbbp2lnIuhqslZOABCQgAQl0KQEVlC59MIOlWioog+VJN+c+ce1iliyCuftDAHpz7tpcJCABCUhAAoOLQKMKikHyg+v34t1KoKMEWGOETZGABCQgAQlIQAJFBAySLyLjcQlIQAISkIAEJCABCUig7QRUUNqO3AIlIAEJSEACEpCABCQggSICKihFZDwuAQlIQAISkIAEJCABCbSdgApK25FboAQkIAEJSEACEpCABCRQREAFpYiMxyUgAQlIQAISkIAEJCCBthNQQWk7cguUgAQkIAEJSEACEpCABIoIqKAUkfG4BCQgAQlIQAISkIAEJNB2AioobUdugRKQgAQkIAEJSEACEpBAEQEVlCIyHpeABCQgAQlIQAISkIAE2k5ABaXtyC1QAhKQgAQkIAEJSEACEigioIJSRMbjEpCABCQgAQlIQAISkEDbCaigtB25BUpAAhKQgAQkIAEJSEACRQRUUIrIeFwCEpCABCQgAQlIQAISaDsBFZS2I7dACUhAAhKQgAQkIAEJSKCIgApKERmPS0ACEpCABCQgAQlIQAJtJ6CC0nbkFigBCUhAAhKQgAQkIAEJFBFQQSki43EJSEACEpCABCQgAQlIoO0EVFDajtwCJSABCUhAAhKQgAQkIIEiAiooRWQ8LgEJSEACEpCABCQgAQm0nYAKStuRW6AEJCABCUhAAhKQgAQkUERABaWIjMclIAEJSEACEpCABCQggbYTUEFpO3ILlIAEJCABCUhAAhKQgASKCIxcdMLjEpBA9xB47733wvfffx8mmmii7qlUgzW55ZZbwu233x7vaZtttmkwt/51+WWXXRYeffTRMP3004f111+/f1W+xbUdzL+LFqM1ewlIQAL9hoAKSr95VFZ0MBH47rvvwtlnnx3uu+++8MQTT4S333473v4kk0wS5phjjrDooouGtddeO4wwwgj9FsvDDz8cLrroojDNNNOEehWUoUOHRuWGm4dFVkYeeeQw3XTThVlnnTXMNddcYaqppsqe7or9u+66K1xzzTVhkUUWUUEpeyKN/C7KsvKrBCQgAQn0UwIqKP30wVntgUvgww8/DMOGDQt33333cDeJosIIcxpl3meffcLYY489XLqBfuDOO+8s3WJ2Px287bbb4u6II44YUGY23HDDdMpPCUhAAhKQgAS6nIAKSpc/IKs3uAi8//77YYsttgivv/56vPFVV101LLPMMmHGGWcM3377bXj22WfDtddeGxWUW2+9NaY955xzAlaDwSjjjz9+ZJC9908//TS89NJL4aabbgpfffVVOPLIIwNcd9hhh2wy9yUgAQlIQAIS6FICg7NX06UPw2pJ4MwzzywpJ/vtt19YeeWVe0GZYYYZwkorrRRQSo444ojYEf/vf/8bll122V7pBssXLCMbbbRR7u2+9dZbYdtttw2vvfZauPDCC8N2220XsKgoEpCABCQgAQl0NwFb6+5+PtZukBEgNgEhLqNcOcmiILCaOAvkiiuuiJ/+6U1g0kknDb/73e/iwY8//jg89thjvRP4TQISkIAEJCCBriSgBaUrH4uVGqwEPvjgg3jrBHhXEoLjDzvssPDmm2+GUUYZpTApnXKC7ZkxCovCBBNMEN3FCLBfaqmlcoPs//rXv4bnn38+LL300jF2g3iOm2++Odx///2B+k077bRh8cUXD5tttlkYddRRC8t+4403wr/+9a+A0sX+xBNPHOacc86w1VZbxdmrCi9s4omZZpqplFuaaKB04IedL774Ipx11lnhkUceiS50n3zySZh55pnDbLPNFq1V1LmSwPi8886L18N48sknD7PPPnu817XWWqsio6J8cUk78MADA+5q8N51112j9YfPL7/8Mmy88cZhySWXHO5yZkX75z//GZ/rIYcckhufdMIJJwQC0RdeeOGw5ZZb9sqDZ4zCiyshvwEmZeC3yMQM6623Xq4rYfnv5dJLLw38Zpjggd9HuQLdDb+LXjftFwlIQAIS6DoCKihd90is0GAmQEeQDhwdReInKikAWFnYiuSqq64Kf/nLX3qdRqFh+9///hc7p9tvv32v83yhw41CQ9433HBDDNhniuMkdG7ZrrvuunDaaafldoJxq9p8880DAf9JXnnllcDGdX/+85/T4ZZ+Uo8k88wzT9otfaKU7LXXXrFepYM9O3Su2S644IKAq91yyy2XPV3av/rqqyPjLJ8XXnghsMGf7dBDD40d/dJFVXZQAomXQUnApW///fcvKQbffPNNuOeee8KUU06Zq6AQn8R5hEkW8up98cUXx5icFVdcsVSTr7/+Ohx33HHRdTB7Ly+++GJgI1+UDu5lrLHGKl3HTvb3cu6554bDDz+8dL58Aodu+V2UKuiOBCQgAQl0JQEVlK58LFZqsBKYb775wo033hjeeeedsOOOO4YDDjigrs5t4vbAAw/Eji3fF1hggWgJmHvuucMzzzwTA+wJIP/HP/4RlZCf//zn6bJenw8++GC4/PLL47UE6mNVQLkh/oXOKiPsp556asmNKl38+eefh9///vdRORljjDHCKqusEpZYYomAy9Udd9wRO7sHHXRQHJVP17TiEwXv5JNPjllTh/I1ZOjs77HHHvGeOEcsC9MSY2WiU3766adHRY007GNRyQqWoX333TeuT4OVgdggpg1GCWMCA2ZaQ9HbomfSA2JgRh999OzlufsodEk5Ic9jjz02MBFAEixXzFqG8lQuKBbZGc2wppQrKChOWGcQ8krCuixY2hAUF5435WNN4lljlUHh2XvvvQMWkzyhTpdccklkiHVnlllmCTBO0i2/i1QfPyUgAQlIoHsJqKB077OxZoOQwJAhQ+L6HnQuUTLWWGONsOCCC8aOJsoLI+rVAr1RInbbbbfAqDgd5qOPPjqMNNJIkSadxtVWWy1aBeiUogDREc26QiXsjODj1oOykYS4F9YdoRPNSD0Whp122qlXnRhlRxFCsE6ssMIK6fLo+rTuuutG9zDur1FJ1pyUDzOdvfvuu+G5554LuBrBYrHFFgt/+tOfUpLSJ9ahjz76KIw77rhx1B/rVRLuExco7h+3LZSRrIKCErL77rvHDjjsTjnllJICQjo6+XTsd95557iGDZYW3L0qCXX5zW9+E9mhKPHcxhlnnF6XoOgdddRRUQnCZQ0XrCQwR7HFusIscCiD5ZIUG9zGpphiiniaNXd4jiiTuPVhMcqur0NdYMRsaHCAcfo9ZfNH+VlzzTWj0pf3G23n7yJbL/clIAEJSKD/EVBB6X/PzBoPYAK4dDFCjWsWlhQ6j4xcpzVRcJlZaKGF4qxddILzXMCuvPLKaL0g7cEHH5zbmcQqQGeTDjyfeQoKHdZddtkllzZKBgoKVgrySJ1dEmM9QNZZZ51eykk82POHetFZ3WSTTeL9peN9+WQGM7YiQUFaffXVc08zCUGliQjGHHPMyBqedOyJuUlCXMVnn30W+XMvedYRrAibbrppVDRZbLOSEMSPxeypp54KKKIoIZRfLihOxLjgBkidsvVPCgnxRbjRUSZKA9ckSQpK1nqCMkEMTiX56U9/GhUUrCDkmxeXw3Pld5WnnJB3O38Xle7FcxKQgAQk0P0EnMWr+5+RNRxkBFA6cIEiVoBpcrMroeNyc3NPwDquNozIP/7448PR+c9//hOPYRmh05gnrJuSLAJFnWeuL+psTj311KVs6SwnYR9LAEKntkhQiLL3VZSuluNYEbIbilUSXLBw3ULZ64tgOUCwomQF6wiC21ul+/jtb38b43T++Mc/Zi/vtY9yguWE54DF65hjjslVTtJFWIQQ4pSyQlwRgmKEpQXBEpeVpKCkPLLnKu0nDqQpmmwAV8Ki30snfheV7sdzEpCABCTQ3QS0oHT387F2g5gAVomtt946bnTwCOhmlJyRaOIIcOfB1YrR9nnnnbdEKgWG33vvvYGZnIqEGAmkSEHJjryX55FVfHD5SfLkk0+m3ThbWOlLzg5KCgsqNiIE+ZfPREV+uHkRI0Nnn/vDxYtZz/JmviJ94otrGAoDGzNoJUakyQrpERSURgQFEyUmPQMsXnnWmGwZWD9QXpOywTmsOQ899FC0ruAGyH3+/e9/jwoKa8UgL7/8cvzNoADjNpgnWMSoC7EzMIQDSnFaODTvmnSMWdqKpN2/i6J6eFwCEpCABPoHARWU/vGcrOUgJ4BbDxtuXXQiCXBnBi060XS8CWJGCJTOzpxFcHY1QUnAlax89Lv8e7V8OI9SgGDFyMZHxINlf4iDaJUQ9M4GI6bmRbHDbY7ZqLL3RRwMx2vpgKe6ZhlXmkUtpa/0iQLALFhJiPOoNsMZsTHEgOC+9d5774UJJ5wwoIwSc5QsJ7hgjTfeeFGJ4feCUpIUmvnnnz+MNtpoqcj4SRpcC3Fdywa290rUwJdu+V00cAteKgEJSEACbSSggtJG2BYlgWYQoLP561//OrraEAj+9NNPxxF0YhYIbmYEnhF11uJgzZEiySol2aDoovS1HJ9sssliMmIVGHnPWlrKry93myo/34zvrBGz6qqrRgUF1zMsJCnehjgNlBM65FirmLkK1zU69gSnsxH8Xu4mBSvuC+UiWVIaqevPfvazqGQwOxoTF+B6R4xPkVA2M7KhXOHmxSQEqY5JQUEJw43rmmuuiYoJ+0lBycafUAbKCb8nrCZcBwd+O8y6BgPK45632267oipVPd5tv4uqFTaBBCQgAQl0lIAKSkfxW7gEfiRABxq3LWT66afvNZPSj6l+3GPGJRQUFA1mcErrfOBqg1UEiwudzXYKcStJmAUs63qWjqfPNNNX+t6qz6SQkD9Wh/SdaXVRToghOf/883MnE4BhnsAYBQXlsBEhFog4GQReTIaAFQXXMYLliwQlAwUFpQMFBQsRyhjWlSS4eaGgoLxUUlDIA+UE2XPPPXMnFUi/y5R3vZ/d+Luo9x5MLwEJSEAC7SMwYvuKsiQJSKASAZSKDTbYIG7Z9SyKrsEakCS7xgfBygjxDdlF91LaVn4St5Lch4iJKBI698ntpyhNs47T8U+SZp/KulbBPG/aXK7BdSpPkiLArFtYioqEmc6YIYv1ZPIkBZZjuWDKZyw5KE1/+MMfhgvMz16frCAoF2kBTFy3shMEoJSQLwoKcUnMtoYlA+U3K2n2L35DrBeTJ0Uc8tLmHevG30VePT0mAQlIQALdQUAFpTueg7WQQFzgjgBnhIUBcb0pEqwtxAsgdDqz0/ymqWdxPzr++ONzs8Dqwmj5xhtvHNfbyE3Uh4N0iJMSwCKOWeUgZYfSxPS/le4vpW30E04nnXRSzAb3rcQJJQpXuUrCTF1FQfy4jXGvxADts88+uYog1xL/wiQGaeKCSuWxICNTFlM3JkFgnZUiRlgkWFASJZXV6pHk3pXKID/WdsFqxFTJCEpLuaS1VrIuf9k0X375Zfj3v/+dPVT3frf9Luq+AS+QgAQkIIG2ElBBaStuC5NAZQJpMT9Gxpkel05ydoSeDjGzeHEudZ6JM6EDmIQZmrbZZpv49YwzzgjHHXdcXF8DxSC5g9FxJmAcN6tK0wGnPOv5RPFhWlriUFgw8vrrr4/uUJTNTGQsBMh9JWWhnrzL09JBRwnKbsxCxVTLrCLPWiyvvvpqvCwb15GdyQpF6qabbopxOyREOTjvvPNi3bMWiWzZKGFDhw6Nh5jp68ADD4xuUjDmeXGMqYVhQFnZsrP5lO+jeAwbNiweJnieWb3yhJgQFsykPCYCQMoVFI6lWcu4RyRZXuKXH/6kY9z3/vvvH5UeTjE7GyyZKS5vOutsHrXst/N3UUt9TCMBCUhAAt1LwBiU7n021mwQEsDdiI4hSgUKCCuRI8Q8EGOQnW2Kji+dWVaGLxcUFFx6iFFBSWFjpJwReUbEETq5uBLhGtRMIaYDdyU68LgfUUdcqAjix7UKYepb7od6NSLEWLBVEjgxM1ayLKW0KHasRP/BBx9EDtQHzokx7k5YIQhezxPuAca4cF1yySVxQzFDQUEZQ8Yaa6yokGHtqFWwzqAYECODaxhB86xoXy4oFqxQT1msHo8bVbmgoGBBIg3PgHVWyoX8YQNHymNjBjbuAwULJe2II44ITOnciLTzd9FIPb1WAhKQgAQ6T+DHYdfO18UaSEACPQRwuzrxxBNjx5QgaoQg5dRxpsPNCD4dzzzlJF7Q84dVvZl5KU33i3KAcoK1hdF2Rt6HDBmSkjf1k9F91mCZccYZY74oXZRPRx3LQrI+NLXQHzJD8cKdi+Bx7v/0Hne5cuWEpMyExVohBKPDlGl6YYxSQWe82nS/5LHTTjvFe0nWIFzKUAZQbGBM2UsttRRJ6xLyTWuVEDRfvigjmeGuxb0iedYTjmORYRpiZK655sqdVY3fA1YtZvJKs22xGCPKCTEy/M5mmWWWmEejfzr5u2i07l4vAQlIQALtIzBCj4vA9+0rzpIGGoH084k/op6fEt/TRkeN/fT5Ld97tvj5w/FJekaslWICdJoJJme2KDqjdBQJci4K6s7LCf50ONkY4We0PSk+eembfYxysTRgnaADnDrVzS6nkfwITMdNDCsPfOrhS7n8zlEiuU8UwtTRb6ROnbqW+2AKaCwe2RXkm12f/vC7aPY9m58EJCCBwULg7Z62hAEw2vyR+OzZ4mfP93Q8fZIm9g34/AGQCspg+aW06D7pmCEqKC0CbLYSkIAEJCABCUignxFoVEHRxaufPXCrKwEJSEACEpCABCQggYFMQAVlID9d700CEpCABCQgAQlIQAL9jIAKSj97YFZXAhKQgAQkIAEJSEACA5mACspAfrremwQkIAEJSEACEpCABPoZARWUfvbArK4EJCABCUhAAhKQgAQGMgEVlIH8dL03CUhAAhKQgAQkIAEJ9DMCKij97IFZXQlIQAISkIAEJCABCQxkAiooA/npem8SkIAEJCABCUhAAhLoZwRUUPrZA7O6EpCABCQgAQlIQAISGMgEVFAG8tP13iQgAQlIQAISkIAEJNDPCKig9LMHZnUlIAEJSEACEpCABCQwkAmooAzkp+u9SUACEpCABCQgAQlIoJ8RUEHpZw/M6kpAAhKQgAQkIAEJSGAgE1BBGchP13uTgAQkIAEJSEACEpBAPyOggtLPHpjVlYAEJCABCUhAAhKQwEAmoIIykJ+u9yYBCUhAAhKQgAQkIIF+RkAFpZ89MKsrAQlIQAISkIAEJCCBgUxABWUgP13vTQISkIAEJCABCUhAAv2MgApKP3tgVlcCEpCABCQgAQlIQAIDmYAKykB+ut6bBCQgAQlIQAISkIAE+hkBFZR+9sCsrgQkIAEJSEACEpCABAYyARWUgfx0vTcJSEACEpCABCQgAQn0MwIj97P6Wt1BQuC9994bJHfqbUpAAhKQgAQkIIH+SWDCCSdsScW1oLQEq5lKQAISkIAEJCABCUhAAn0hoILSF2peIwEJSEACEpCABCQgAQm0hIAKSkuwmqkEJCABCUhAAhKQgAQk0BcCxqD0hZrXtJxAq3waW15xC5CABCQgAQlIQAISaIiAFpSG8HmxBCQgAQlIQAISkIAEJNBMAioozaRpXhKQgAQkIAEJSEACEpBAQwRUUBrC58USkIAEJCABCUhAAhKQQDMJqKA0k6Z5SUACEpCABCQgAQlIQAINEVBBaQifF0tAAhKQgAQkIAEJSEACzSSggtJMmuYlAQlIQAISkIAEJCABCTREQAWlIXxeLAEJSEACEpCABCQgAQk0k4AKSjNpmpcEJCABCUhAAhKQgAQk0BABFZSG8HmxBCQgAQlIQAISkIAEJNBMAioozaRpXhKQgAQkIAEJSEACEpBAQwRUUBrC58USkIAEJCABCUhAAhKQQDMJqKA0k6Z5SUACEpCABCQgAQlIQAINEVBBaQifF0tAAhKQgAQkIAEJSEACzSSggtJMmuYlAQlIQAISkIAEJCABCTREQAWlIXxeLAEJSEACEpCABCQgAQk0k4AKSjNpmpcEJCABCUhAAhKQgAQk0BABFZSG8HmxBCQgAQlIQAL/r707AZKjLP84/ubkCKCBhACGI4BEiIiRcKokBsR4a3FYFAFCBAoQQeUQIyAeECCWoqglBkulEKXEyCUaLkUrCAElIdy3kBAgEAUWAolJ/v17dp7+v9uZ2ZnZ7tmZ2f2+VZu+3n675zOd6X76fd9uBBBAAIEiBQhQitSkLAQQQAABBBBAAAEEEMglQICSi4+VEUAAAQQQQAABBBBAoEgBApQiNSkLAQQQQAABBBBAAAEEcgkQoOTiY2UEEEAAAQQQQAABBBAoUoAApUhNykIAAQQQQAABBBBAAIFcAgQoufhYGQEEEEAAAQQQQAABBIoUIEApUpOyEEAAAQQQQAABBBBAIJcAAUouPlZGoD0Fbr/99nDBBReE2bNnr/MBrrvuunDccceFP//5z+ssYwYCCCCAAAIIINBogcGN3gDlI4BA7QJz584NN9xwQ80rjB07Npx00kk15/eMixYtCnPmzAnbbLNNOPbYY3126OjoCBdddFFYuXJlePTRR8PkyZPD0KFD0+WMIIAAAggggAACjRYgQGm0MOUjUIfAkiVLwl133VXzGqtXr645by0Zhw0bFkaNGhWeffbZMHr06HWCk4cffjitWVFgo/wkBBBAAAEEEECgSAEClCI1KQuBggQGDhxozayqFbfVVltVy1LX8gEDBoTLL7883HPPPWHPPfdcZ92nn346XHnllTb/8MMPJ0BZR4gZCCCAAAIIIJBXgAAlryDrI9AAAQUo06dPb0DJ1YtUrcjEiROrZyQHAggggAACCLSswGuvvRaWLl1q+7fllluGjTfeuGX3NbtjBChZEaYRQAABBBBAAAEEEGhzAQUn119/vX2KT37ykwQobf59svsItL3A888/H6644oowf/78oPERI0aEcePGWa3MmDFjuv18l1xySXjooYfCHnvsEY4++mjLq6d93XvvvWH58uXpujNmzAhDhgyxafVHGT9+fLqMEQQQQAABBBBoroBqUPTAGw29SXi71KRQg9LcY4etI1C4wHPPPReOOuqo8Morr6RlL168OOjv5ptvDmeffXY6v9zII488Yn1QNttss3TxY489ZvPSGcnIwoUL08mDDjooHWcEAQQQQAABBFpHwGtSdH3QLjUpBCitc/ywJwjkFlixYkU47bTTLDjZYIMNwpQpU8K+++4bNt9883DnnXeGm266KcycOTPssssudW3rxBNPDFOnTrUyLrvsMlt31qxZYfjw4Ta+7bbb1lUemRFAAAEEEECgdwRUg6I/pXapSSFA6Z1jg60gUJfA2rVrg2otqqWtt946rL/++mk2vcPk8ccft+lzzjkn7L///umynXfeORxyyCHhyCOPDAsWLEjn1zKy3XbbWTbdffGkIGfkyJE+yRABBBBAAAEEWlignWpSCFBa+EBi1/qvgN5vosf4VkvqG7Lbbrul2f7+97/b+MEHH9wlOPEMG220kb2IUbUha9as8dkMEUAAAQQQQKCPC7RTTcrAPv5d8PEQ6DcC6gz/6quv2ufdb7/9Kn7uHXfc0V7CWDEDCxBAAAEEEECgzwp4TYqe8KXxVkzUoLTit8I+9XuBwYMHhzvuuKMuB3Vu97TDDjv4aNmhgpRnnnmm7DJmIoAAAggggAACzRQgQGmmPttGoECBp556ykpT5/hqfUPo1F4gPEUhgAACCCDQRgJ61LCe5rX77rsHjbdiIkBpxW+FfUKgBwKjRo2ytfQkr46OjqD+JpXSiy++WGkR8xFAAAEEEECgDwroTfIKSBSY6G+nnXZq2U9JH5SW/WrYMQTqExg7dmy6whNPPJGOlxvxJ32VW8Y8BBBAAAEEEOh7Al5zotqTVq05cXUCFJdgiECbC+hRwOutt559ivvuu6/ip9FTPLw5WMVMNSxYtWpVDbnIggACCCCAAALNFFDNiWpL4poTzWvlRIDSyt8O+4ZAHQIDBw4M48aNszX0MsVytSh6v4rej7Jy5co6Sv7/rBtuuGE6sWjRonScEQQQQAABBBBoTYF2qjlxQfqguARDBFpIQIHE/fffX3WP1M/EX6KozGeddVaYNm2aPW749NNPD3oD/F577RWGDRsWHnzwwTBnzpwwb948q9rtyaMFR48ene7T7373uzBixIgwfvx4m6cAiYQAAggggAACrSHgNSfam1bvc5IVI0DJijCNQAsI6EWN06dPr7onEyZMCD/5yU/SfAogzjvvvHDKKaeExYsXhxkzZoRBgwYF1XyoaZfSYYcdFoYMGRIuv/zydL1aR8aMGWMvhly4cGFQM7ITTjjBVp05c2bZF0PWWi75EEAAAQQQQKBYAa85Uamt3uck+8m55ZkVYRqBNhdQjcmFF14Y/F0oCnYUnAwfPjyceeaZFrz09CMOGDAgnH/++eHjH/94t08J62n5rIcAAggggAACxQh4DYr6n7R6n5PsJx6QNCVZm53JNAK1CvjhYwdRcihp2v/WrFlj4z5crenkz4ZJPs0fmTQRIjVOYNmyZeGFF16wplh6DLECjCLT66+/HhQAbbLJJkUWS1kIIIAAAggg0MYCy156Kajpt647BmmY/Nkwmfb5PlQeuz7RsPSZaeLVxl8+u45ANQG9sLHaSxurldHdcvVtISGAAAIIIIAAAkUK0MSrSE3KQgABBBBAAAEEEEAAgVwCBCi5+FgZAQQQQAABBBBAAAEEihQgQClSk7IQQAABBBBAAAEEEEAglwABSi4+VkYAAQQQQAABBBBAAIEiBQhQitSkLAQQQAABBBBAAAEEEMglQICSi4+VEUAAAQQQQAABBBBAoEgBApQiNSkLAQQQQAABBBBAAAEEcgkQoOTiY2UEEEAAAQQQQAABBBAoUoAApUhNykIAAQQQQAABBBBAAIFcAgQoufhYGQEEEEAAAQQQQAABBIoUIEApUpOyEEAAAQQQQAABBBBAIJcAAUouPlZGAAEEEEAAAQQQQACBIgUIUIrUpCwEEEAAAQQQQAABBBDIJUCAkouPlRFAAAEEEEAAAQQQQKBIAQKUIjUpCwEEEEAAAQQQQAABBHIJEKDk4mNlBBBAAAEEEEAAAQQQKFKAAKVITcpCAAEEEEAAAQQQQACBXAIEKLn4WBkBBBBAAAEEEEAAAQSKFCBAKVKTshBAAAEEEEAAAQQQQCCXAAFKLj5WRgABBBBAAAEEEEAAgSIFCFCK1KQsBBBAAAEEEEAAAQQQyCVAgJKLj5URQAABBBBAAAEEEECgSIHBRRZGWQgUJbB8+fKiiqIcBBBAAAEEEEAAgQYIbLrppg0oNQRqUBrCSqEIIIAAAggggAACCCDQEwEClJ6osQ4CCCCAAAIIIIAAAgg0RIAApSGsFIoAAggggAACCCCAAAI9EaAPSk/UWKfhAo1q09jwHWcDCCCAAAIIIIAAArkEqEHJxcfKCCCAAAIIIIAAAgggUKQAAUqRmpSFAAIIIIAAAggggAACuQQIUHLxsTICCCCAAAIIIIAAAggUKUCAUqQmZSGAAAIIIIAAAggggEAuAQKUXHysjAACCCCAAAIIIIAAAkUKEKAUqUlZCCCAAAIIIIAAAgggkEuAACUXHysjgAACCCCAAAIIIIBAkQIEKEVqUhYCCCCAAAIIIIAAAgjkEiBAycXHyggggAACCCCAAAIIIFCkAAFKkZqUhQACCCCAAAIIIIAAArkECFBy8bEyAggggAACCCCAAAIIFClAgFKkJmUhgAACCCCAAAIIIIBALgEClFx8rIwAAggggAACCCCAAAJFChCgFKlJWQgggAACCCCAAAIIIJBLgAAlFx8rI4AAAggggAACCCCAQJECBChFalIWAggggAACCCCAAAII5BIgQMnFx8oIIIAAAggggAACCCBQpAABSpGalIUAAggggAACCCCAAAK5BAhQcvGxMgIIIIAAAggggAACCBQpQIBSpCZlIYAAAggggAACCCCAQC4BApRcfKyMAAIIIIAAAggggAACRQoQoBSpSVkIIIAAAggggAACCCCQS4AAJRcfKyOAAAIIIIAAAggggECRAgQoRWpSFgIIIIAAAggggAACCOQSGJxrbVZGAAEEEoH//Oc/4dJLLzWLI444IrzjHe/oscvs2bPDyy+/HA444IAwYcKEHpfTyBWvv/768MADD4QxY8aEz33uc43cVF1lt+p+1fUhyIwAAgjUKLBixYrQ0dERhg0bFjbccMMa12qNbA8//HB44oknbN8nTZrUGjvVQntBgNJCXwa7gsDcuXPDDTfcEAYNGhQuvvjitgF57bXXwpw5c2x/P/rRj/Y4QHnjjTfCz3/+87BmzZpw4IEHWnkaP+WUU2z8s5/9bJg8eXJNLhdeeGFYvHhxeN/73heOPvromtapNdP8+fODvqs999yzpQKUVt2vWl3JhwACCFQTeOaZZ8I//vGP8OSTT4aVK1em2ddbb73wrne9K+yzzz5h1KhR6fxWHdH56Z577gmbbbZZaESAsmjRorBgwYIwcODAcPjhh7cqQ8X9IkCpSMMCBHpfYMmSJeGuu+4Kgwf3z/+a9913nwUnQ4cODe9+97vTL0AmSnvvvXc6r9rI/fffHx555JGwySabVMvKcgQQQACBFhdYvXp1uOaaa4J+28ult956KyxcuNBqtz/1qU+FXXfdtVy2fjNPLRsUxClAacfUP6+C2vGbYp8R6AcC9957r33KXXbZJShIISGAAAIIIKCa9CuuuCI8/fTThvG2t70t7LvvvmH06NHWROrFF18Mzz33XLj77rvD66+/bjX6S5cuDR/+8IfDgAEDAGxDAQKUNvzS2GUE+qrAv/71L/to48eP76sfkc+FAAIIIFCnwLx589LgZOzYseGQQw6xptBejAKWd77zndak9/e//33497//bc3ARowYYfM8H8P2EWjPep/28WVPEUCgRgFVzz/44IOWW/1GSAgggAACCLzyyivhb3/7m0FstdVW4dBDD+0SnMRCG2+8cZg6dWrYaKONbPZtt91mzYbjPO06rpohdax/7LHH2vUj1LXf1KDUxUVmBFpfQO1zr776amunq2rvDTbYIOhHXU/FUrtc/YB3l9RRXR311QlcfWJWrVoVdMdKza4+9KEPhXHjxnW3esVl6kR/yy23WHX7scceG9773vd2yav91rb0gID3vOc9XZYVPTFr1qzw1FNPhQ9+8IPhsMMOC7o799e//jWoidl///vfsO2221pHyyOPPLLHTc1a8XtQm+Tzzz/fmkDoM5566qn9tr9T0ccU5SGAQGME9Fv6v//9zwr/yEc+UrVPhfpw6rf9T3/6k/3W6Ty29dZbpzt34403hpdeeinstNNO1q9RT2TUhb/OCUOGDLG8Ol96/0XdPFOApP4cy5cvt07talqmh6SohqZSUmB1xx132Hoa17lX5+L99tsvjBw5stJqFeerCdtVV11l5/QzzjijYr6+soAApa98k3wOBBIB/fCee+65XSzefPNNewywfoSvvfbacNlll6U/vF0yJhMKTo4//nj7sY6X6Ukj+rvyyivtovaggw6KF1cdV3Cip2op6aI4G5xovjfv2nnnne0HWPMalVRTI49tttkm3HrrrWHGjBlh7dq16eb09BP93XzzzfZUMb8bl2aoMtKK34MCrxNPPNEea7n99tuH73znOwQnVb5HFiOAQPMFFDwo6THC+s2uJe2+++5hyy23tKzDhw/vsoou9BW0bLrpptapXh3v46TfykcffTQcc8wxdsNMT5ZU7YUn9W3Rn84jekKknsKVTSrjZz/7WdBjkD0puNGfzj2f/vSnfTbDCgIEKBVgmI1AuwnosYvf/va3bbf1BCw9jlfvEVEtip6CpbtJ6mD4la98Jfz4xz8OeiRjnHSH6qtf/aoFJ+qgPmXKlPD+978/bLHFFtaWVzUMOlEo0FDeWt//8Yc//MHWUUfFr33taxV/mD1A6c3+J3rii2qL1JFy4sSJ1ob5hRdeCL/97W+tVkV31BTQfelLX4qpuh1vxe9Bd+88OFFt2CWXXBLe/va3d/s5WIgAAgg0W0Cd4/U4XqV6Hh2smvi41qTc51C5OgfstddeQTfGtI7eS3L77bcH1Zroxpq2rz+dI/TeKz3WWMGLakYUtOj8pkAmTmoJ8Jvf/MaCE9XIqEWA+seoBkXlq0ZI76zK876weHt9dZwApa9+s3yufiXw7LPPhjPPPDPoMYxqivXTn/40bZqk58KrSlnBhoITPcr3vPPOC9/61re6GH3ve9+zQEYzv/71rwe9z8STfrynTZtmP8T6cf31r39tnRSrPb7wuuuuCxdccIE16/rGN77RpUwvW0P9oKtcpd7sf6KThdozn3baabZt/bPddtvZCUsX9Ko1UnO5k08+uWqzAq3bit/Dq6++Gr7whS+Exx9/3B7d/IMf/KBqMz99FhICCCDQbIG45mLzzTcvdHd0M0pNuXRu9ORPBfvjH/9otSQKMHTuU9MsT2oeqxp33YxSTYpu2MWvBtC6ujGo9JnPfMbOyb6uylHTMNWu6H0upMoCdJKvbMMSBNpGQD+Iqkpef/31rbai3CN69UhGveVdSU2XdOHqSevqjo6SflDj4MTzKBg555xz7G6Q2s/qHSPdJZWnQEh3pTQsV6avr6py3bHSNnbbbTef3fCh+ucoaCuX9JQYJd0x04msltRq34NeoHnSSSfZHT81q/vRj35EcFLLF0keBBBoCYE4QKmnBqWWndfb5+PgxNfRTT5PO+64Y5fgxOer/4qSaley5wfVsCjtscceXYITm5n8o9YLaoHA449dpPyQAKW8C3MRaCsBVTcrqRq5ux/xD3zgA5ZPNS133nmnjesf1RQoQFCaNGmSDcv9o9oFNXlSm1zVqlRKulBXUKK7T2oStv/++1fKavP9/Sfa/3r7e3RbcJWFau5UqRYobh7w/PPPVympc3ErfQ8KTlRzomZ5umP3wx/+0Npw1/RByIQAAgi0gIDOVZ50Pikyxb/xcbnq6+I3+VSjUi7F/U7ifiZqTuvTOr9USqoNUh+YcklBj26MlftTfp2ryy3TvL6UaOLVl75NPku/FfAL6B122KFbg3h5fNfH19fKChLyJDX/0hNP9COrp4bpaSrVUjP6n2ifFHBVSnGgFJ8kK+XXfHeMncvlj5c34nt46KGHwhe/+MX0YQdqZqfaNRICCCDQTgKq5fDkzaZ8Ou8wLjtblj80JW66FeepVPvh5wDlrdYkTctffvnluFgb/+c//2kPvFlnQWmGzq0zZ84su1j9PD24KpuhjWZSg9JGXxa7ikA5Af2Q6q6NUrUnnOii259ooqeMePJxNXnqyeMPvRwN1ZleP6BKqknRoxm7S7r4V78Ypd7sf6LtVao90bJ6Uyt9D6o98XfK6HN8//vfr/fjkB8BBBBoukAcRBQdoDTiwy1btsyKVW1PtUf6d/eI4kbsW7uVSQ1Ku31j7C8CGQHdyVGVtNrq6tnu3SVVAXswE//w+w+pqqa1XG/lzZP0NLHvfve7VpY6oP/qV7+q+GOtvix6vLE+R7nHDyuI0I+9OtL7j38t++Z5e6vmoNW+hwMPPNCaEOiJZOoPpIcleL+aWvzIgwACCDRbQL/9uqmmdzjFtc3N3q9K2/d3p+h8paZY2adlxuvF/UDj+bvuuqs9MSyep3G9oPGmm26y2Wq+Wy4V3Qyu3DZ6ax41KL0lzXYQaKCA34nRk5q6S3rMsNdu+DrKH9eaVCuju/K1TJ3O9TItvRBQwYUe5Xj22Wen282u7/1P9AjHSo++9X41njdbRnZaT9PS8+aVfN1snkZMu2k1w0Z/D2qWoKe06fHI6qippFqUBQsWNOJjUyYCCCDQMAHdXFFSTX+li/rsxlWL/Je//MX+/GZVNk8jpv3dKyq7Wo1PpYBLN9V0Lin3p3LV0qHcMs2r1PRM67VbIkBpt2+M/UWgjIBeSqWkOyzddZTzR/kqb9ycSuPe3Mn7gyhPNumlj3pZo/qZVHpEonee14WxniClpM7jl156abY4m/btdff+Ez9B6ekoXgNUtrDSzLvvvjtd3F1HxTRTQSOt8j3496nvVA8r0EnT33NT7aRZEAXFIIAAAoUIjBs3Li3nlltuSce7G7ntttusL+T8+fNztwjobjvZZQoSvN+KbpRVSjqXVmvxUGnd/jKfAKW/fNN8zj4toBoLJVWDq0N0uaSaDL2gUUkvcoyfTqIq9H322ceW/fKXv0zfSWIzon/0rpSLL744zJ49u+ITSKLsYerUqUFNjZR+8YtfBJ004qTaHL0oSykOmOI8Gtejj5XUX0Wdv3V3rFJSB0Pto5JOFv7kskr5i5zfit+DaqUuuugia2qg4+OMM87oNogt0oOyEEAAgbwCeqGhzllKixYt6vIEynJl60aWn1d006g3O42rBsNfwKj+mJVuCOklkLppRKosQIBS2YYlCDRNQB2uVdtR7c+rrlX7cPzxx9v+6s3oukDX42VVji7mFRioL4jG9XhE3VXPJr3jREGL2s7qpY833nij1VaoDDVZUg3INddcY6spYIifcpUtK54+66yzgp4lr/TNb37T3qTry/WiRK+y764GRY/J9UcV63OdcMIJ4dZbb037pCjQ0T5eddVV4ctf/nLQ3SmlU0891d7D4ttr9LBVvwfVIs2YMcM+vjrPVwpiG+1D+QgggEBPBKZMmRK83+TcuXPtDe5xDYTOATof6uXAeou7zltqCqW3xPd20tMr1UxL51Kdkx544AE7J2mfdKPw2muvtdYOlZo0N2J/lyxZEqr9dXfjrxH7VK1MOslXE2I5Ak0QUE3B9OnTq275uOOOs7e7K6Py626N7syoGZb+1GGvo6Mj7f+hzvQKXuJ2sr4R1aLoXRmf//znrZxzzz3Xmn0pEPEgQnknTpwYtN1ak36oZ82aFY466igr5/TTT087zXufEj2PXrUd3SX1Y1HzLr2zRXfI9DhFJfUx0WeMX+ilpk3qROhBTXflFr2sVb8HvShTwZ1O3gpi1Wzu0EMPLfrjUx4CCCBQuICCE52b1LxYj+bVkx/1p07oOkepf0r8OHidUw4++OCKD2cpfAejAvV+E21b+6q+kFdffbWdS1WT4zfP9t57b7t5Nm/evGjNxowqeNP7y6qlSZMm2fm9Wr7eWk4NSm9Jsx0EekFAzXd0Yb7FFlvY1hRY6MdJF+x6Y67eJN5dnwzVoKgZ2OTJk20drasy9DZ41YKobDUXUqBTT1KVt2pttB+6g6RaFZVdS/8T3462qf1XrUjcPE0dDT04UfkTJkyw2p4jjjjCV+31Yat+DyeffHLwfjLqNO8BYq8DsUEEEECgTgHdRDvmmGPsItrPQXpSlgIWD05UK6F3b02bNs1u0NW5icKy611XugHk70LR+U7BiQKtT3ziE2nT53o2qLJ0o+mAAw6oZ7W2zTsgqXJa27Z7z443XcAPHzuIkkNJ0/6n/5Aa9+FqTSd/NizNH1nlrnnTP2Cb7oDM9aOti3dVc6vGxH/Qa/1IeuTw0qVLrb/C9ttvX3g7Xh0bqrZXvwjV1nzsYx+rddcsn2pR1AlRn1N3plQDo+ArfiJZXQU2IHM7fA8N+NgUiQACCDRUQP03dH7T+UOPqdfvvs5zvfVY+Xo+nJpOqfZfj/PP+wj/erbb7LzLktce6Kah+uUM0jD5s2Ey7fN9qDz2BDINSztOgNLsb7DNt6+LTCUClDb/Ipuw+3rUrjcxUpvccs3OmrBbbBIBBBBAAAEEcgrkDVBo4pXzC2B1BBDomYA371JgQnDSM0PWQgABBBBAoC8KEKD0xW+Vz4RAGwh4/4funt7VBh+DXUQAAQQQQACBggUIUAoGpTgEEKhN4Mknn7Q3x+sRwiQEEEAAAQQQQMAF6IPiEgx7JEAflB6xsRICCCCAAAIIINBnBeiD0me/Wj4YAggggAACCCCAAAL9T4AmXv3vO+cTI4AAAggggAACCCDQsgIEKC371bBjCCCAAAIIIIAAAgj0PwEClP73nTftE9tLeJq2dTaMAAIIIIAAAggg0AyBeq8BCVCa8S31xW2WXtgYf7R6D8Z4XcYRQAABBBBAAAEE+qZA2WvE6FqSAKVvfu9N/1TpgTdggO1L5/vmO3fLlkUHYdN3lh1AAAEEEEAAAQQQKFYgudZLrweTktNrwdK1Ybwsu2EClKwI04UIpAdhUpoOwGxQ4gflmjVrCtkehSCAAAIIIIAAAgg0X8Cv7fxaz/aoFKzE8+JrxexeE6BkRZhuqEB8YGrcD+KGbpTCEUAAAQQQQAABBHpFQNd22eu9ejdMgFKvGPl7LKCDVdFyfNCuWrWqx+WxIgIIIIAAAggggEBrCcTXduWu/WrZWwKUWpTIU5dAHIBoxXjaxtX/pNTsayUBSl22ZEYAAQQQQAABBFpVYG1yjadrO7veS671QqYfSnxNqM+QnfbPRYDiEgxzCegA8z8ryNsalkrt7CrfOZEejDqIV64MK1asyLVtVkYAAQQQQAABBBBovsCKN9+0azsFJkrpNZ/GbU7n0OZHebpcQyb5CFBKWAyKFYgPSC85Pvh8XMM33ngjvPXWW56NIQIIIIAAAggggECbCbyZBCdvJjed42s8fQSfzn4cza+UCFAqyTC/EAE7+Eq1K8kR2hk9x8NkfE0SQXd0dFigUshGKQQBBBBAAAEEEECgVwTUrOuNJDDRDefV3kE+vtbTXmg6+UuHVfZscJXlLEagZoHs4+J0IOqgVbKDMh73AzeZp2V64kPH669bteDQoUPDkCFDwqBBg8LAgcTQNX8BZEQAAQQQQAABBHpBQNdtq1evtv4mq5Lm+tbvJNnugOS6TfUiurbzP98duxYsTcTjmqWrxbg+hQClBMWgOAE/6FQzYgdnMvQDb60OWE1nhkkkYh2pdIC/lRzoHtioDWM28NGepsuL221KQgABBBBAAAEEEIgE/JoumpW2htE8u86LghELMjTdubDrUPlL6+jabmBpPWXNJgKUrAjTdQnowEyDhVJA4tM6CC0wUZ5k3A5ilZ5M66C0wCNZx17VmETimm+Lk38UwFg5mpfk8aR5fnD7PIYIIIAAAggggAACjRHwazgv3YOW+LrOx1WDotYvFnxkalN0nZeu64UlQ81Lr/lK0wQoERCj+QTsAMsWoYMxmadaEzswNVRtSRKQeC2KDmQFKV6zYi/40XTy5/8p0qBHAUsm+bLMbCYRQAABBBBAAAEE6hTwIMJXi6+8fJnNK12T6TrOp+NxzevS5EvTWiURA68AAAUASURBVCdzLefXer49DZNrwuj2dLyEcQTqEPDDyA6yZD1N60/BhpKN61ArzVPzLxtPhmsVrCR5LK+mS/l9PeWLU9epeAnjCCCAAAIIIIAAAkUKWPARF5gEGGmgonEtS4YenFgtioIQzSvN93Ffz/ImyzSt6zrfhi+nBiUGZzy/gAKM5GDzFB94XkOiedbEKwlMrGZFkbeCEB2kWjcZ9xLSpl6lAhXo+DLfBkMEEEAAAQQQQACBxgl44KAtaDy9FtN4aVrXdrqW0zKbF9Ws+Dxf7ntqN51L14A+T0MClFiD8dwCOiC9hkPjlkoHnk1rPDlg1cTLDtJScKJAxIMWWz+Zr2BEwYrN17hSqUxb1jknneeTDBFAAAEEEEAAAQR6KODXXMnq6bVcqSi/ztPQr+tsXNdzmqd8pWUWlGh+qRzLnxnvzF66XtREKdHEyyUY5hKIAwar5UgOTg19ftzUy+YnW7OmXcqjLZfyatzWidYthSZpWcpeKfn2Ki1nPgIIIIAAAggggEBXAQ8eus7tOuV5PJyw6TgYScYtOElW07Iu/U+0LElq2qVky5N5um7zcn2+DZMFfv2naRICPRaID6XsuKZ9no93F5hY3tKBq3H/z+Bl9HgnWREBBBBAAAEEEECgLgEPInTt5sFFcmH3/+MKSPRXWp5MpOO+rq/n09qBSuM08ZIOqXABHXAegMQHnwUbyTJLClr8AE5mKL+to+WloMSnPTBRNK7k0zbBPwgggAACCCCAAAKFC6TXcMl1mZL1M0mGdp2nazi/jiuNW6Yy8yxfmTyWv8w/NPEqg8KsngvEgYMHIz5PQ/+zAzuatsO+dPB7Hu1F53+Hzv3RfK9JifdQ80kIIIAAAggggAAC+QV0jZZNutKK53sODzwsfyYw8Ws9z+Prx/N9O77Mp6lBcQmGhQv4AZgc0Z01ItkDvnQga8M60HXw+38Ae6qXFiQpDUCS/Ol45yL7N3tQR4sYRQABBBBAAAEEEMgp4DUnKqbLdVfp2k7XcT7fhj5f13qlP9uFZNxuOJeW27wy/1CDUgaFWfkF4kDCxnUgRjUk2oLnsfqPCsssX3Z3qDHJijCNAAIIIIAAAgg0RiATTCgY8dQlKNHMJK8vL7dM14I+vzO75/YSO4fUoHT1YKoBAn4gen+TdTahgCM5oC2iVh+T6OC1eZkVLKDJzGMSAQQQQAABBBBAoHgBv46LS+4yr3QT2ueVG1oLGRWQCXbiMuNxalBiDcYLFfAakrhQP0DjZT7uQ+XvEoRQYxITMo4AAggggAACCDRPIAoy4vqPbGCiHdQ8v/bL7rDnz8639ZKLwi7XguUyMQ+BngqUO7xsXnLA6qCOl8fj2l52ep150X8QLSMhgAACCCCAAAIIFCQQhQjlgonsvHha4xZgRK1i4r2K88bzfZwaFJdg2FCBcsGGNmjzywQrvjOV1vPlDBFAAAEEEEAAAQR6V6BcgFEtKNEelluv3J4ToJRTYV7DBCoFHOn8UrCiHUjnNWxvKBgBBBBAAAEEEECgJwIebHhNicrwednyKs3P5vNpAhSXYNhrAtUCj3R51IQrbuPYazvKhhBAAAEEEEAAAQRSgS79QkpNwKoFH9WWp4VHIwQoEQajvSuQBiI1brbe/DUWSzYEEEAAAQQQQACBKgL1Bhr15o83T4ASazDeVAECkKbys3EEEEAAAQQQQKDHAnkCkuxG/w+pYKkCv5TaHgAAAABJRU5ErkJggg==;" vertex="1" parent="1">
                    <mxGeometry x="348" y="250" width="348.91" height="361" as="geometry"/>
                </mxCell>
            </root>
        </mxGraphModel>
    </diagram>
</mxfile>